<!-- Generated by readme-aura https://github.com/collectioneur/readme-aura -->
<svg width="800" height="200" viewBox="0 0 800 200" xmlns="http://www.w3.org/2000/svg"><clipPath id="satori_cp-id"><path x="0" y="0" width="800" height="200" d="M20,0 h760 a20,20 0 0 1 20,20 v160 a20,20 0 0 1 -20,20 h-760 a20,20 0 0 1 -20,-20 v-160 a20,20 0 0 1 20,-20"/></clipPath><mask id="satori_om-id"><rect x="0" y="0" width="800" height="200" fill="#fff"/></mask><path x="0" y="0" width="800" height="200" fill="#08080d" d="M20,0 h760 a20,20 0 0 1 20,20 v160 a20,20 0 0 1 -20,20 h-760 a20,20 0 0 1 -20,-20 v-160 a20,20 0 0 1 20,-20"/><clipPath id="satori_cp-id-0" clip-path="url(#satori_cp-id)"><rect x="0" y="0" width="800" height="200"/></clipPath><mask id="satori_om-id-0"><rect x="0" y="0" width="800" height="200" fill="#fff" mask="url(#satori_om-id)"/></mask><svg x="0" y="0" width="800" height="200" preserveAspectRatio="none" clip-path="url(#satori_cp-id-0)" mask="url(#satori_om-id-0)"><defs><radialGradient id="sg1" cx="50%" cy="50%" r="50%"><stop offset="0%" stop-color="rgba(108,195,130,0.4)"></stop><stop offset="100%" stop-color="rgba(108,195,130,0)"></stop></radialGradient><radialGradient id="sg2" cx="50%" cy="50%" r="50%"><stop offset="0%" stop-color="rgba(230,100,115,0.35)"></stop><stop offset="100%" stop-color="rgba(230,100,115,0)"></stop></radialGradient><radialGradient id="sg3" cx="50%" cy="50%" r="50%"><stop offset="0%" stop-color="rgba(80,160,220,0.3)"></stop><stop offset="100%" stop-color="rgba(80,160,220,0)"></stop></radialGradient><radialGradient id="sg4" cx="50%" cy="50%" r="50%"><stop offset="0%" stop-color="rgba(195,155,255,0.3)"></stop><stop offset="100%" stop-color="rgba(195,155,255,0)"></stop></radialGradient></defs><ellipse id="st-o1" cx="80" cy="160" rx="160" ry="120" fill="url(#sg1)"></ellipse><ellipse id="st-o2" cx="730" cy="50" rx="150" ry="120" fill="url(#sg2)"></ellipse><ellipse id="st-o3" cx="640" cy="170" rx="140" ry="110" fill="url(#sg3)"></ellipse><ellipse id="st-o4" cx="180" cy="40" rx="130" ry="100" fill="url(#sg4)"></ellipse><style>

    @keyframes stack-orb { 0%, 100% { transform: translate(0,0); opacity: 0.45; } 50% { transform: translate(18px,-14px); opacity: 0.7; } }
    @keyframes stack-orb-b { 0%, 100% { transform: translate(0,0); opacity: 0.4; } 50% { transform: translate(-14px,10px); opacity: 0.65; } }
    @keyframes chip-appear { 0% { opacity: 0; transform: translateY(8px); } 100% { opacity: 1; transform: translateY(0); } }
    #st-o1 { animation: stack-orb 10s ease-in-out infinite; }
    #st-o2 { animation: stack-orb-b 12s ease-in-out infinite 1s; }
    #st-o3 { animation: stack-orb 9s ease-in-out infinite 2.5s; }
    #st-o4 { animation: stack-orb-b 11s ease-in-out infinite 0.5s; }
  
</style>
</svg><mask id="satori_om-id-0-0"><rect x="0" y="0" width="0" height="200" fill="#fff" mask="url(#satori_om-id)"/></mask><mask id="satori_om-id-0-0-0"><rect x="0" y="0" width="0" height="200" fill="#fff" mask="url(#satori_om-id)"/></mask><mask id="satori_om-id-0-0-0-0"><rect x="0" y="0" width="0" height="200" fill="#fff" mask="url(#satori_om-id)"/></mask><mask id="satori_om-id-0-0-0-1"><rect x="0" y="0" width="0" height="200" fill="#fff" mask="url(#satori_om-id)"/></mask><mask id="satori_om-id-0-0-1"><rect x="0" y="0" width="0" height="200" fill="#fff" mask="url(#satori_om-id)"/></mask><mask id="satori_om-id-0-0-1-0"><rect x="0" y="0" width="0" height="200" fill="#fff" mask="url(#satori_om-id)"/></mask><mask id="satori_om-id-0-0-1-1"><rect x="0" y="0" width="0" height="200" fill="#fff" mask="url(#satori_om-id)"/></mask><mask id="satori_om-id-0-0-2"><rect x="0" y="0" width="0" height="200" fill="#fff" mask="url(#satori_om-id)"/></mask><mask id="satori_om-id-0-0-2-0"><rect x="0" y="0" width="0" height="200" fill="#fff" mask="url(#satori_om-id)"/></mask><mask id="satori_om-id-0-0-2-1"><rect x="0" y="0" width="0" height="200" fill="#fff" mask="url(#satori_om-id)"/></mask><mask id="satori_om-id-0-0-3"><rect x="0" y="0" width="0" height="200" fill="#fff" mask="url(#satori_om-id)"/></mask><mask id="satori_om-id-0-0-3-0"><rect x="0" y="0" width="0" height="200" fill="#fff" mask="url(#satori_om-id)"/></mask><mask id="satori_om-id-0-0-3-1"><rect x="0" y="0" width="0" height="200" fill="#fff" mask="url(#satori_om-id)"/></mask><mask id="satori_om-id-0-1"><rect x="0" y="0" width="0" height="200" fill="#fff" mask="url(#satori_om-id)"/></mask><mask id="satori_om-id-0-2"><rect x="0" y="0" width="0" height="200" fill="#fff" mask="url(#satori_om-id)"/></mask><mask id="satori_om-id-0-3"><rect x="0" y="0" width="0" height="200" fill="#fff" mask="url(#satori_om-id)"/></mask><mask id="satori_om-id-0-4"><rect x="0" y="0" width="0" height="200" fill="#fff" mask="url(#satori_om-id)"/></mask><mask id="satori_om-id-1"><rect x="371" y="68" width="58" height="13" fill="#fff" mask="url(#satori_om-id)"/></mask><g mask="url(#satori_om-id)" clip-path="url(#satori_cp-id)"><path fill="rgba(255,255,255,0.3)" d="M374.5 79.1L374.5 79.1Q373.7 79.1 373.0 78.9Q372.4 78.6 372.0 78.1Q371.7 77.6 371.6 76.9L371.6 76.9L372.7 76.9Q372.7 77.4 373.0 77.6Q373.2 77.9 373.7 78.1Q374.1 78.2 374.5 78.2L374.5 78.2Q375.1 78.2 375.5 78.0Q375.9 77.9 376.2 77.5Q376.4 77.2 376.4 76.8L376.4 76.8Q376.4 76.4 376.2 76.2Q376.0 75.9 375.6 75.8Q375.3 75.6 374.9 75.5L374.9 75.5L373.9 75.2Q372.9 75.0 372.4 74.4Q371.8 73.9 371.8 73.1L371.8 73.1Q371.8 72.5 372.2 72.0Q372.6 71.4 373.2 71.2Q373.8 70.9 374.6 70.9L374.6 70.9Q375.4 70.9 376.0 71.2Q376.6 71.4 377.0 71.9Q377.3 72.4 377.3 73.0L377.3 73.0L376.3 73.0Q376.3 72.4 375.8 72.1Q375.3 71.8 374.6 71.8L374.6 71.8Q374.1 71.8 373.7 72.0Q373.3 72.1 373.1 72.4Q372.8 72.7 372.8 73.1L372.8 73.1Q372.8 73.5 373.1 73.8Q373.4 74.0 373.7 74.2Q374.1 74.3 374.4 74.4L374.4 74.4L375.2 74.6Q375.5 74.7 375.9 74.8Q376.3 75.0 376.6 75.2Q377.0 75.5 377.2 75.9Q377.4 76.3 377.4 76.8L377.4 76.8Q377.4 77.5 377.1 78.0Q376.8 78.5 376.1 78.8Q375.5 79.1 374.5 79.1ZM385.1 71.9L382.6 71.9L382.6 71.0L388.6 71.0L388.6 71.9L386.1 71.9L386.1 79L385.1 79L385.1 71.9ZM394.5 79L393.4 79L396.3 71.0L397.5 71.0L400.5 79L399.4 79L398.6 76.8L395.3 76.8L394.5 79ZM395.6 75.9L398.3 75.9L397.7 74.3Q397.5 73.8 397.3 73.2L397.3 73.2Q397.2 72.6 396.9 71.8L396.9 71.8Q396.7 72.6 396.5 73.2L396.5 73.2Q396.3 73.8 396.2 74.3L396.2 74.3L395.6 75.9ZM409.0 79.1L409.0 79.1Q407.9 79.1 407.1 78.6Q406.3 78.1 405.9 77.2Q405.4 76.3 405.4 75.0L405.4 75.0Q405.4 73.7 405.9 72.8Q406.3 71.9 407.1 71.4Q407.9 70.9 409.0 70.9L409.0 70.9Q409.6 70.9 410.1 71.1Q410.6 71.2 411.1 71.6Q411.5 71.9 411.8 72.4Q412.1 72.9 412.2 73.5L412.2 73.5L411.2 73.5Q411.1 73.1 410.9 72.8Q410.7 72.5 410.4 72.3Q410.1 72.0 409.7 71.9Q409.3 71.8 409.0 71.8L409.0 71.8Q408.2 71.8 407.7 72.2Q407.1 72.6 406.7 73.3Q406.4 74.0 406.4 75.0L406.4 75.0Q406.4 76.0 406.7 76.7Q407.1 77.4 407.7 77.8Q408.2 78.2 409.0 78.2L409.0 78.2Q409.3 78.2 409.7 78.1Q410.1 77.9 410.4 77.7Q410.7 77.5 410.9 77.2Q411.1 76.9 411.2 76.5L411.2 76.5L412.2 76.5Q412.1 77.1 411.8 77.6Q411.5 78.1 411.1 78.4Q410.6 78.7 410.1 78.9Q409.6 79.1 409.0 79.1ZM418.8 79L417.7 79L417.7 71.0L418.8 71.0L418.8 73.7L418.8 75.2Q418.9 75.1 419.0 74.9L419.0 74.9Q419.3 74.6 419.5 74.2Q419.8 73.9 420.1 73.6L420.1 73.6L422.5 71.0L423.9 71.0L420.6 74.5L423.9 79L422.7 79L419.9 75.2L418.8 76.4L418.8 79Z "/></g><mask id="satori_om-id-2"><rect x="174" y="101" width="453" height="31" fill="#fff" mask="url(#satori_om-id)"/></mask><defs><clipPath id="satori_bc-id-2-0" clip-path="url(#satori_cp-id)"><path x="174" y="101" width="106" height="31" d="M189.5,101 h75 a15.5,15.5 0 0 1 15.5,15.5 v0 a15.5,15.5 0 0 1 -15.5,15.5 h-75 a15.5,15.5 0 0 1 -15.5,-15.5 v0 a15.5,15.5 0 0 1 15.5,-15.5"/></clipPath></defs><mask id="satori_om-id-2-0"><rect x="175" y="102" width="104" height="29" fill="#fff" mask="url(#satori_om-id)"/><path width="106" height="31" fill="none" stroke="#000" stroke-width="2" d="M178.54,105.53999999999999 A15.5,15.5 0 0 1 189.5,101 h75 a15.5,15.5 0 0 1 15.5,15.5 v0 a15.5,15.5 0 0 1 -15.5,15.5 h-75 a15.5,15.5 0 0 1 -15.5,-15.5 v0 A15.5,15.5 0 0 1 178.54,105.53999999999999"/></mask><path x="174" y="101" width="106" height="31" fill="rgba(255,255,255,0.04)" d="M189.5,101 h75 a15.5,15.5 0 0 1 15.5,15.5 v0 a15.5,15.5 0 0 1 -15.5,15.5 h-75 a15.5,15.5 0 0 1 -15.5,-15.5 v0 a15.5,15.5 0 0 1 15.5,-15.5" clip-path="url(#satori_cp-id)" mask="url(#satori_om-id)"/><path width="106" height="31" clip-path="url(#satori_bc-id-2-0)" fill="none" stroke="rgba(255,255,255,0.08)" stroke-width="2" d="M178.54,105.53999999999999 A15.5,15.5 0 0 1 189.5,101 h75 a15.5,15.5 0 0 1 15.5,15.5 v0 a15.5,15.5 0 0 1 -15.5,15.5 h-75 a15.5,15.5 0 0 1 -15.5,-15.5 v0 A15.5,15.5 0 0 1 178.54,105.53999999999999"/><g mask="url(#satori_om-id)" clip-path="url(#satori_cp-id)"><path fill="rgba(255,255,255,0.65)" d="M196.3 113.3L193.6 113.3L193.6 112.3L200.2 112.3L200.2 113.3L197.4 113.3L197.4 121L196.3 121L196.3 113.3ZM202.1 123.4L202.1 123.4L202.3 122.5L202.4 122.5Q202.8 122.6 203.0 122.5Q203.3 122.5 203.5 122.3Q203.7 122.0 203.9 121.6L203.9 121.6L204.1 121.0L201.6 114.4L202.7 114.4L204.1 118.3Q204.3 118.9 204.5 119.5L204.5 119.5Q204.6 119.8 204.6 120.0L204.6 120.0Q204.7 119.8 204.8 119.5L204.8 119.5Q204.9 118.9 205.1 118.3L205.1 118.3L206.5 114.4L207.7 114.4L204.8 122.0Q204.6 122.5 204.3 122.8Q204.0 123.2 203.7 123.3Q203.3 123.5 202.8 123.5L202.8 123.5Q202.6 123.5 202.4 123.5Q202.1 123.4 202.1 123.4ZM210.5 123.4L209.4 123.4L209.4 114.4L210.4 114.4L210.4 115.5L210.6 115.5Q210.7 115.3 210.9 115.1Q211.1 114.8 211.4 114.6Q211.8 114.4 212.5 114.4L212.5 114.4Q213.3 114.4 213.9 114.8Q214.5 115.2 214.9 115.9Q215.2 116.7 215.2 117.7L215.2 117.7Q215.2 118.8 214.9 119.5Q214.5 120.3 213.9 120.7Q213.3 121.1 212.5 121.1L212.5 121.1Q211.8 121.1 211.5 120.9Q211.1 120.7 210.9 120.4Q210.7 120.2 210.6 120.0L210.6 120.0L210.5 120.0L210.5 123.4ZM212.3 120.2L212.3 120.2Q212.9 120.2 213.3 119.9Q213.7 119.5 213.9 119.0Q214.2 118.4 214.2 117.7L214.2 117.7Q214.2 117.1 214.0 116.5Q213.7 116.0 213.3 115.6Q212.9 115.3 212.3 115.3L212.3 115.3Q211.7 115.3 211.3 115.6Q210.9 115.9 210.7 116.5Q210.5 117.0 210.5 117.7L210.5 117.7Q210.5 118.5 210.7 119.0Q210.9 119.6 211.3 119.9Q211.7 120.2 212.3 120.2ZM220.0 121.1L220.0 121.1Q219.1 121.1 218.4 120.7Q217.7 120.3 217.3 119.5Q216.9 118.8 216.9 117.8Q216.9 116.8 217.3 116.0Q217.7 115.2 218.3 114.8Q219.0 114.4 219.9 114.4L219.9 114.4Q220.4 114.4 220.9 114.5Q221.4 114.7 221.8 115.1Q222.3 115.5 222.5 116.1Q222.7 116.7 222.7 117.6L222.7 117.6L222.7 118.1L218.0 118.1Q218.0 118.7 218.3 119.2L218.3 119.2Q218.5 119.7 219.0 119.9Q219.4 120.2 220.0 120.2L220.0 120.2Q220.4 120.2 220.7 120.1Q221.0 120.0 221.3 119.8Q221.5 119.5 221.6 119.2L221.6 119.2L222.6 119.5Q222.5 120.0 222.1 120.3Q221.8 120.7 221.2 120.9Q220.7 121.1 220.0 121.1ZM218.0 117.2L218.0 117.2L221.7 117.2Q221.6 116.7 221.5 116.4L221.5 116.4Q221.3 115.9 220.9 115.6Q220.5 115.3 219.9 115.3Q219.3 115.3 218.9 115.6Q218.5 115.9 218.2 116.3L218.2 116.3Q218.0 116.7 218.0 117.2ZM227.7 121.2L227.7 121.2Q226.7 121.2 226.0 120.8Q225.4 120.5 225.0 120.0Q224.6 119.4 224.5 118.7L224.5 118.7L225.7 118.7Q225.7 119.2 226.0 119.5Q226.3 119.8 226.7 120.0Q227.2 120.2 227.7 120.2L227.7 120.2Q228.3 120.2 228.7 120.0Q229.2 119.8 229.5 119.4Q229.8 119.1 229.8 118.6L229.8 118.6Q229.8 118.2 229.5 117.9Q229.3 117.7 228.9 117.5Q228.5 117.3 228.0 117.2L228.0 117.2L227.0 116.9Q225.9 116.6 225.3 116.0Q224.8 115.5 224.8 114.6L224.8 114.6Q224.8 113.9 225.2 113.3Q225.6 112.8 226.2 112.5Q226.9 112.2 227.8 112.2L227.8 112.2Q228.6 112.2 229.3 112.5Q229.9 112.8 230.3 113.3Q230.7 113.8 230.7 114.5L230.7 114.5L229.6 114.5Q229.6 113.8 229.0 113.5Q228.5 113.1 227.7 113.1L227.7 113.1Q227.2 113.1 226.7 113.3Q226.3 113.5 226.1 113.8Q225.8 114.1 225.8 114.6L225.8 114.6Q225.8 115.0 226.1 115.3Q226.4 115.6 226.8 115.7Q227.2 115.9 227.5 116.0L227.5 116.0L228.4 116.2Q228.7 116.3 229.2 116.5Q229.6 116.6 230.0 116.9Q230.4 117.2 230.6 117.6Q230.9 118.0 230.9 118.6L230.9 118.6Q230.9 119.3 230.5 119.9Q230.1 120.5 229.4 120.8Q228.7 121.2 227.7 121.2ZM235.6 121.1L235.6 121.1Q234.7 121.1 234.1 120.7Q233.4 120.3 233.0 119.5Q232.6 118.8 232.6 117.8L232.6 117.8Q232.6 116.7 233.0 116.0Q233.4 115.2 234.1 114.8Q234.7 114.4 235.6 114.4L235.6 114.4Q236.1 114.4 236.5 114.5Q236.9 114.6 237.3 114.8Q237.6 115.1 237.9 115.4Q238.1 115.8 238.3 116.2L238.3 116.2L237.3 116.5Q237.2 116.2 237.0 116.0Q236.9 115.8 236.7 115.6Q236.5 115.5 236.2 115.4Q235.9 115.3 235.6 115.3L235.6 115.3Q235.0 115.3 234.5 115.7Q234.1 116.0 233.9 116.6Q233.7 117.1 233.7 117.8L233.7 117.8Q233.7 118.4 233.9 119.0Q234.1 119.5 234.5 119.9Q235.0 120.2 235.6 120.2L235.6 120.2Q236.0 120.2 236.2 120.1Q236.5 120.0 236.7 119.9Q236.9 119.7 237.1 119.5Q237.2 119.3 237.3 119.0L237.3 119.0L238.3 119.3Q238.2 119.7 237.9 120.1Q237.7 120.4 237.3 120.6Q237.0 120.9 236.5 121.0Q236.1 121.1 235.6 121.1ZM241.4 121L240.3 121L240.3 114.4L241.3 114.4L241.3 115.5L241.4 115.5Q241.6 115.0 242.1 114.7Q242.5 114.4 243.1 114.4L243.1 114.4Q243.2 114.4 243.4 114.4Q243.5 114.4 243.6 114.4L243.6 114.4L243.6 115.4Q243.6 115.4 243.4 115.4Q243.2 115.4 243.0 115.4L243.0 115.4Q242.5 115.4 242.2 115.6Q241.8 115.8 241.6 116.1Q241.4 116.5 241.4 116.9L241.4 116.9L241.4 121ZM246.4 121L245.3 121L245.3 114.4L246.4 114.4L246.4 121ZM245.9 113.4L245.9 113.4Q245.6 113.4 245.3 113.2Q245.1 113.0 245.1 112.7L245.1 112.7Q245.1 112.4 245.3 112.2Q245.6 112.0 245.9 112.0L245.9 112.0Q246.2 112.0 246.4 112.2Q246.6 112.4 246.6 112.7L246.6 112.7Q246.6 113.0 246.4 113.2Q246.2 113.4 245.9 113.4ZM249.8 123.4L248.7 123.4L248.7 114.4L249.8 114.4L249.8 115.5L249.9 115.5Q250.0 115.3 250.2 115.1Q250.4 114.8 250.8 114.6Q251.1 114.4 251.8 114.4L251.8 114.4Q252.6 114.4 253.2 114.8Q253.8 115.2 254.2 115.9Q254.6 116.7 254.6 117.7L254.6 117.7Q254.6 118.8 254.2 119.5Q253.8 120.3 253.2 120.7Q252.6 121.1 251.8 121.1L251.8 121.1Q251.2 121.1 250.8 120.9Q250.4 120.7 250.2 120.4Q250.0 120.2 249.9 120.0L249.9 120.0L249.8 120.0L249.8 123.4ZM251.6 120.2L251.6 120.2Q252.2 120.2 252.6 119.9Q253.1 119.5 253.3 119.0Q253.5 118.4 253.5 117.7L253.5 117.7Q253.5 117.1 253.3 116.5Q253.1 116.0 252.7 115.6Q252.2 115.3 251.6 115.3L251.6 115.3Q251.0 115.3 250.6 115.6Q250.2 115.9 250.0 116.5Q249.8 117.0 249.8 117.7L249.8 117.7Q249.8 118.5 250.0 119.0Q250.2 119.6 250.6 119.9Q251.0 120.2 251.6 120.2ZM257.8 114.4L259.2 114.4L259.2 115.4L257.8 115.4L257.8 119.3Q257.8 119.7 258.0 119.9Q258.2 120.1 258.6 120.1L258.6 120.1Q258.7 120.1 258.8 120.1Q259 120.1 259.1 120.1L259.1 120.1L259.3 121.0Q259.2 121.0 259.0 121.1Q258.8 121.1 258.6 121.1L258.6 121.1Q257.7 121.1 257.2 120.6Q256.8 120.2 256.8 119.4L256.8 119.4L256.8 115.4L255.8 115.4L255.8 114.4L256.8 114.4L256.8 112.9L257.8 112.9L257.8 114.4Z "/></g><defs><clipPath id="satori_bc-id-2-1" clip-path="url(#satori_cp-id)"><path x="290" y="101" width="104" height="31" d="M305.5,101 h73 a15.5,15.5 0 0 1 15.5,15.5 v0 a15.5,15.5 0 0 1 -15.5,15.5 h-73 a15.5,15.5 0 0 1 -15.5,-15.5 v0 a15.5,15.5 0 0 1 15.5,-15.5"/></clipPath></defs><mask id="satori_om-id-2-1"><rect x="291" y="102" width="102" height="29" fill="#fff" mask="url(#satori_om-id)"/><path width="104" height="31" fill="none" stroke="#000" stroke-width="2" d="M294.54,105.53999999999999 A15.5,15.5 0 0 1 305.5,101 h73 a15.5,15.5 0 0 1 15.5,15.5 v0 a15.5,15.5 0 0 1 -15.5,15.5 h-73 a15.5,15.5 0 0 1 -15.5,-15.5 v0 A15.5,15.5 0 0 1 294.54,105.53999999999999"/></mask><path x="290" y="101" width="104" height="31" fill="rgba(255,255,255,0.04)" d="M305.5,101 h73 a15.5,15.5 0 0 1 15.5,15.5 v0 a15.5,15.5 0 0 1 -15.5,15.5 h-73 a15.5,15.5 0 0 1 -15.5,-15.5 v0 a15.5,15.5 0 0 1 15.5,-15.5" clip-path="url(#satori_cp-id)" mask="url(#satori_om-id)"/><path width="104" height="31" clip-path="url(#satori_bc-id-2-1)" fill="none" stroke="rgba(255,255,255,0.08)" stroke-width="2" d="M294.54,105.53999999999999 A15.5,15.5 0 0 1 305.5,101 h73 a15.5,15.5 0 0 1 15.5,15.5 v0 a15.5,15.5 0 0 1 -15.5,15.5 h-73 a15.5,15.5 0 0 1 -15.5,-15.5 v0 A15.5,15.5 0 0 1 294.54,105.53999999999999"/><g mask="url(#satori_om-id)" clip-path="url(#satori_cp-id)"><path fill="rgba(255,255,255,0.65)" d="M312.2 121.1L312.2 121.1Q311.0 121.1 310.3 120.4Q309.6 119.8 309.6 118.5L309.6 118.5L309.6 118.0L310.7 118.0L310.7 118.5Q310.7 119.3 311.1 119.7Q311.5 120.1 312.2 120.1L312.2 120.1Q312.9 120.1 313.3 119.7Q313.7 119.3 313.7 118.5L313.7 118.5L313.7 112.3L314.8 112.3L314.8 118.5Q314.8 119.8 314.1 120.4Q313.3 121.1 312.2 121.1ZM319.1 121.2L319.1 121.2Q318.5 121.2 318.0 120.9Q317.5 120.7 317.2 120.2Q316.9 119.8 316.9 119.1L316.9 119.1Q316.9 118.6 317.1 118.2Q317.3 117.9 317.7 117.7Q318.1 117.5 318.5 117.4Q319.0 117.3 319.4 117.2L319.4 117.2Q320.0 117.1 320.4 117.1Q320.8 117.1 320.9 117.0Q321.1 116.9 321.1 116.6L321.1 116.6L321.1 116.6Q321.1 116.2 321.0 115.9Q320.8 115.6 320.5 115.4Q320.2 115.3 319.7 115.3L319.7 115.3Q319.3 115.3 318.9 115.4Q318.6 115.6 318.4 115.8Q318.2 116.0 318.1 116.3L318.1 116.3L317.1 115.9Q317.3 115.3 317.7 115.0Q318.2 114.6 318.7 114.5Q319.2 114.4 319.7 114.4L319.7 114.4Q320.0 114.4 320.5 114.4Q320.9 114.5 321.3 114.8Q321.7 115.0 321.9 115.5Q322.2 115.9 322.2 116.7L322.2 116.7L322.2 121L321.1 121L321.1 120.1L321.1 120.1Q320.9 120.3 320.7 120.6Q320.5 120.8 320.1 121.0Q319.7 121.2 319.1 121.2ZM319.3 120.2L319.3 120.2Q319.9 120.2 320.3 120.0Q320.7 119.8 320.9 119.4Q321.1 119.0 321.1 118.6L321.1 118.6L321.1 117.7Q321.0 117.8 320.8 117.9Q320.6 117.9 320.3 118.0Q320.1 118.0 319.8 118.0Q319.5 118.1 319.4 118.1L319.4 118.1Q319.0 118.1 318.7 118.3Q318.3 118.4 318.1 118.6Q317.9 118.8 317.9 119.2L317.9 119.2Q317.9 119.5 318.1 119.8Q318.3 120.0 318.6 120.1Q318.9 120.2 319.3 120.2ZM327.5 121L326.4 121L323.9 114.4L325.1 114.4L326.5 118.3Q326.7 118.9 326.8 119.5L326.8 119.5Q326.9 119.8 327.0 120.0L327.0 120.0Q327.0 119.8 327.1 119.5L327.1 119.5Q327.3 118.9 327.5 118.3L327.5 118.3L328.9 114.4L330.0 114.4L327.5 121ZM333.6 121.2L333.6 121.2Q333.0 121.2 332.5 120.9Q332.0 120.7 331.7 120.2Q331.4 119.8 331.4 119.1L331.4 119.1Q331.4 118.6 331.6 118.2Q331.8 117.9 332.2 117.7Q332.5 117.5 333 117.4Q333.5 117.3 333.9 117.2L333.9 117.2Q334.5 117.1 334.9 117.1Q335.2 117.1 335.4 117.0Q335.6 116.9 335.6 116.6L335.6 116.6L335.6 116.6Q335.6 116.2 335.4 115.9Q335.3 115.6 335.0 115.4Q334.7 115.3 334.2 115.3L334.2 115.3Q333.8 115.3 333.4 115.4Q333.1 115.6 332.9 115.8Q332.7 116.0 332.6 116.3L332.6 116.3L331.5 115.9Q331.8 115.3 332.2 115.0Q332.7 114.6 333.2 114.5Q333.7 114.4 334.2 114.4L334.2 114.4Q334.5 114.4 334.9 114.4Q335.4 114.5 335.7 114.8Q336.1 115.0 336.4 115.5Q336.6 115.9 336.6 116.7L336.6 116.7L336.6 121L335.6 121L335.6 120.1L335.5 120.1Q335.4 120.3 335.2 120.6Q334.9 120.8 334.5 121.0Q334.1 121.2 333.6 121.2ZM333.8 120.2L333.8 120.2Q334.4 120.2 334.8 120.0Q335.2 119.8 335.4 119.4Q335.6 119.0 335.6 118.6L335.6 118.6L335.6 117.7Q335.5 117.8 335.3 117.9Q335.1 117.9 334.8 118.0Q334.5 118.0 334.3 118.0Q334.0 118.1 333.9 118.1L333.9 118.1Q333.5 118.1 333.1 118.3Q332.8 118.4 332.6 118.6Q332.4 118.8 332.4 119.2L332.4 119.2Q332.4 119.5 332.6 119.8Q332.8 120.0 333.1 120.1Q333.4 120.2 333.8 120.2ZM341.9 121.2L341.9 121.2Q341.0 121.2 340.3 120.8Q339.6 120.5 339.2 120.0Q338.8 119.4 338.8 118.7L338.8 118.7L339.9 118.7Q339.9 119.2 340.2 119.5Q340.5 119.8 341.0 120.0Q341.4 120.2 341.9 120.2L341.9 120.2Q342.5 120.2 343.0 120.0Q343.5 119.8 343.7 119.4Q344.0 119.1 344.0 118.6L344.0 118.6Q344.0 118.2 343.8 117.9Q343.5 117.7 343.1 117.5Q342.7 117.3 342.3 117.2L342.3 117.2L341.2 116.9Q340.2 116.6 339.6 116.0Q339.0 115.5 339.0 114.6L339.0 114.6Q339.0 113.9 339.4 113.3Q339.8 112.8 340.5 112.5Q341.2 112.2 342.0 112.2L342.0 112.2Q342.9 112.2 343.5 112.5Q344.2 112.8 344.6 113.3Q344.9 113.8 345.0 114.5L345.0 114.5L343.9 114.5Q343.8 113.8 343.3 113.5Q342.7 113.1 342.0 113.1L342.0 113.1Q341.4 113.1 341.0 113.3Q340.5 113.5 340.3 113.8Q340.1 114.1 340.1 114.6L340.1 114.6Q340.1 115.0 340.4 115.3Q340.6 115.6 341.0 115.7Q341.4 115.9 341.7 116.0L341.7 116.0L342.6 116.2Q343.0 116.3 343.4 116.5Q343.8 116.6 344.2 116.9Q344.6 117.2 344.8 117.6Q345.1 118.0 345.1 118.6L345.1 118.6Q345.1 119.3 344.7 119.9Q344.3 120.5 343.6 120.8Q342.9 121.2 341.9 121.2ZM349.9 121.1L349.9 121.1Q349.0 121.1 348.3 120.7Q347.6 120.3 347.3 119.5Q346.9 118.8 346.9 117.8L346.9 117.8Q346.9 116.7 347.3 116.0Q347.6 115.2 348.3 114.8Q349.0 114.4 349.9 114.4L349.9 114.4Q350.3 114.4 350.8 114.5Q351.2 114.6 351.5 114.8Q351.9 115.1 352.1 115.4Q352.4 115.8 352.5 116.2L352.5 116.2L351.5 116.5Q351.4 116.2 351.3 116.0Q351.1 115.8 350.9 115.6Q350.7 115.5 350.5 115.4Q350.2 115.3 349.9 115.3L349.9 115.3Q349.2 115.3 348.8 115.7Q348.4 116.0 348.2 116.6Q348.0 117.1 348.0 117.8L348.0 117.8Q348.0 118.4 348.2 119.0Q348.4 119.5 348.8 119.9Q349.2 120.2 349.9 120.2L349.9 120.2Q350.2 120.2 350.5 120.1Q350.7 120.0 351.0 119.9Q351.2 119.7 351.3 119.5Q351.5 119.3 351.5 119.0L351.5 119.0L352.5 119.3Q352.4 119.7 352.2 120.1Q351.9 120.4 351.5 120.6Q351.2 120.9 350.8 121.0Q350.3 121.1 349.9 121.1ZM355.6 121L354.6 121L354.6 114.4L355.6 114.4L355.6 115.5L355.6 115.5Q355.8 115.0 356.3 114.7Q356.8 114.4 357.3 114.4L357.3 114.4Q357.5 114.4 357.6 114.4Q357.8 114.4 357.9 114.4L357.9 114.4L357.9 115.4Q357.8 115.4 357.6 115.4Q357.5 115.4 357.2 115.4L357.2 115.4Q356.8 115.4 356.4 115.6Q356.0 115.8 355.8 116.1Q355.6 116.5 355.6 116.9L355.6 116.9L355.6 121ZM360.6 121L359.6 121L359.6 114.4L360.6 114.4L360.6 121ZM360.1 113.4L360.1 113.4Q359.8 113.4 359.6 113.2Q359.4 113.0 359.4 112.7L359.4 112.7Q359.4 112.4 359.6 112.2Q359.8 112.0 360.1 112.0L360.1 112.0Q360.4 112.0 360.6 112.2Q360.8 112.4 360.8 112.7L360.8 112.7Q360.8 113.0 360.6 113.2Q360.4 113.4 360.1 113.4ZM364.0 123.4L363.0 123.4L363.0 114.4L364.0 114.4L364.0 115.5L364.1 115.5Q364.2 115.3 364.4 115.1Q364.6 114.8 365.0 114.6Q365.4 114.4 366.0 114.4L366.0 114.4Q366.8 114.4 367.5 114.8Q368.1 115.2 368.4 115.9Q368.8 116.7 368.8 117.7L368.8 117.7Q368.8 118.8 368.4 119.5Q368.1 120.3 367.5 120.7Q366.8 121.1 366.0 121.1L366.0 121.1Q365.4 121.1 365.0 120.9Q364.6 120.7 364.4 120.4Q364.2 120.2 364.1 120.0L364.1 120.0L364.0 120.0L364.0 123.4ZM365.9 120.2L365.9 120.2Q366.5 120.2 366.9 119.9Q367.3 119.5 367.5 119.0Q367.7 118.4 367.7 117.7L367.7 117.7Q367.7 117.1 367.5 116.5Q367.3 116.0 366.9 115.6Q366.5 115.3 365.9 115.3L365.9 115.3Q365.3 115.3 364.8 115.6Q364.4 115.9 364.2 116.5Q364.0 117.0 364.0 117.7L364.0 117.7Q364.0 118.5 364.2 119.0Q364.4 119.6 364.9 119.9Q365.3 120.2 365.9 120.2ZM372.1 114.4L373.4 114.4L373.4 115.4L372.1 115.4L372.1 119.3Q372.1 119.7 372.2 119.9Q372.4 120.1 372.8 120.1L372.8 120.1Q372.9 120.1 373.1 120.1Q373.2 120.1 373.4 120.1L373.4 120.1L373.6 121.0Q373.4 121.0 373.2 121.1Q373.0 121.1 372.8 121.1L372.8 121.1Q371.9 121.1 371.5 120.6Q371.0 120.2 371.0 119.4L371.0 119.4L371.0 115.4L370.0 115.4L370.0 114.4L371.0 114.4L371.0 112.9L372.1 112.9L372.1 114.4Z "/></g><defs><clipPath id="satori_bc-id-2-2" clip-path="url(#satori_cp-id)"><path x="404" y="101" width="81" height="31" d="M419.5,101 h50 a15.5,15.5 0 0 1 15.5,15.5 v0 a15.5,15.5 0 0 1 -15.5,15.5 h-50 a15.5,15.5 0 0 1 -15.5,-15.5 v0 a15.5,15.5 0 0 1 15.5,-15.5"/></clipPath></defs><mask id="satori_om-id-2-2"><rect x="405" y="102" width="79" height="29" fill="#fff" mask="url(#satori_om-id)"/><path width="81" height="31" fill="none" stroke="#000" stroke-width="2" d="M408.54,105.53999999999999 A15.5,15.5 0 0 1 419.5,101 h50 a15.5,15.5 0 0 1 15.5,15.5 v0 a15.5,15.5 0 0 1 -15.5,15.5 h-50 a15.5,15.5 0 0 1 -15.5,-15.5 v0 A15.5,15.5 0 0 1 408.54,105.53999999999999"/></mask><path x="404" y="101" width="81" height="31" fill="rgba(255,255,255,0.04)" d="M419.5,101 h50 a15.5,15.5 0 0 1 15.5,15.5 v0 a15.5,15.5 0 0 1 -15.5,15.5 h-50 a15.5,15.5 0 0 1 -15.5,-15.5 v0 a15.5,15.5 0 0 1 15.5,-15.5" clip-path="url(#satori_cp-id)" mask="url(#satori_om-id)"/><path width="81" height="31" clip-path="url(#satori_bc-id-2-2)" fill="none" stroke="rgba(255,255,255,0.08)" stroke-width="2" d="M408.54,105.53999999999999 A15.5,15.5 0 0 1 419.5,101 h50 a15.5,15.5 0 0 1 15.5,15.5 v0 a15.5,15.5 0 0 1 -15.5,15.5 h-50 a15.5,15.5 0 0 1 -15.5,-15.5 v0 A15.5,15.5 0 0 1 408.54,105.53999999999999"/><g mask="url(#satori_om-id)" clip-path="url(#satori_cp-id)"><path fill="rgba(255,255,255,0.65)" d="M425.2 121L424.1 121L424.1 112.3L427.0 112.3Q428.1 112.3 428.7 112.6Q429.4 113.0 429.7 113.6Q430.0 114.3 430.0 115.0Q430.0 115.8 429.7 116.5Q429.4 117.1 428.7 117.5Q428.1 117.8 427.0 117.8L427.0 117.8L425.2 117.8L425.2 121ZM425.2 113.2L425.2 116.9L427.0 116.9Q427.7 116.9 428.1 116.6Q428.5 116.4 428.7 116.0Q428.9 115.6 428.9 115.0Q428.9 114.5 428.7 114.1Q428.5 113.7 428.1 113.5Q427.7 113.2 427.0 113.2L427.0 113.2L425.2 113.2ZM432.0 123.4L432.0 123.4L432.3 122.5L432.4 122.5Q432.7 122.6 433.0 122.5Q433.2 122.5 433.4 122.3Q433.6 122.0 433.8 121.6L433.8 121.6L434.0 121.0L431.5 114.4L432.6 114.4L434.0 118.3Q434.3 118.9 434.4 119.5L434.4 119.5Q434.5 119.8 434.5 120.0L434.5 120.0Q434.6 119.8 434.7 119.5L434.7 119.5Q434.8 118.9 435.0 118.3L435.0 118.3L436.4 114.4L437.6 114.4L434.7 122.0Q434.5 122.5 434.2 122.8Q434.0 123.2 433.6 123.3Q433.2 123.5 432.8 123.5L432.8 123.5Q432.5 123.5 432.3 123.5Q432.1 123.4 432.0 123.4ZM440.6 114.4L441.9 114.4L441.9 115.4L440.6 115.4L440.6 119.3Q440.6 119.7 440.7 119.9Q440.9 120.1 441.3 120.1L441.3 120.1Q441.4 120.1 441.6 120.1Q441.7 120.1 441.9 120.1L441.9 120.1L442.1 121.0Q441.9 121.0 441.7 121.1Q441.5 121.1 441.3 121.1L441.3 121.1Q440.5 121.1 440.0 120.6Q439.5 120.2 439.5 119.4L439.5 119.4L439.5 115.4L438.5 115.4L438.5 114.4L439.5 114.4L439.5 112.9L440.6 112.9L440.6 114.4ZM444.8 117.1L444.8 117.1L444.8 121L443.8 121L443.8 112.3L444.8 112.3L444.8 115.6Q445.1 115.0 445.5 114.7L445.5 114.7Q446.0 114.4 446.8 114.4L446.8 114.4Q447.4 114.4 447.9 114.6Q448.4 114.9 448.7 115.5Q449.0 116.0 449.0 116.8L449.0 116.8L449.0 121L447.9 121L447.9 116.9Q447.9 116.2 447.5 115.7Q447.2 115.3 446.5 115.3L446.5 115.3Q446.0 115.3 445.6 115.5Q445.2 115.7 445.0 116.1Q444.8 116.5 444.8 117.1ZM454.0 121.1L454.0 121.1Q453.1 121.1 452.5 120.7Q451.8 120.3 451.4 119.5Q451.0 118.8 451.0 117.8L451.0 117.8Q451.0 116.7 451.4 116.0Q451.8 115.2 452.5 114.8Q453.1 114.4 454.0 114.4L454.0 114.4Q454.9 114.4 455.6 114.8Q456.3 115.2 456.6 116.0Q457.0 116.7 457.0 117.8L457.0 117.8Q457.0 118.8 456.6 119.5Q456.3 120.3 455.6 120.7Q454.9 121.1 454.0 121.1ZM454.0 120.2L454.0 120.2Q454.7 120.2 455.1 119.9Q455.5 119.5 455.7 119.0Q455.9 118.4 455.9 117.8L455.9 117.8Q455.9 117.1 455.7 116.6Q455.5 116.0 455.1 115.7Q454.7 115.3 454.0 115.3L454.0 115.3Q453.4 115.3 452.9 115.7Q452.5 116.0 452.3 116.6Q452.1 117.1 452.1 117.8L452.1 117.8Q452.1 118.4 452.3 119.0Q452.5 119.5 452.9 119.9Q453.4 120.2 454.0 120.2ZM460.1 117.1L460.1 117.1L460.1 121L459.1 121L459.1 114.4L460.1 114.4L460.1 115.7Q460.3 115.0 460.8 114.7L460.8 114.7Q461.3 114.4 462.1 114.4L462.1 114.4Q462.7 114.4 463.2 114.6Q463.7 114.9 464.0 115.5Q464.3 116.0 464.3 116.8L464.3 116.8L464.3 121L463.2 121L463.2 116.9Q463.2 116.2 462.8 115.7Q462.4 115.3 461.8 115.3L461.8 115.3Q461.3 115.3 460.9 115.5Q460.5 115.7 460.3 116.1Q460.1 116.5 460.1 117.1Z "/></g><defs><clipPath id="satori_bc-id-2-3" clip-path="url(#satori_cp-id)"><path x="495" y="101" width="66" height="31" d="M510.5,101 h35 a15.5,15.5 0 0 1 15.5,15.5 v0 a15.5,15.5 0 0 1 -15.5,15.5 h-35 a15.5,15.5 0 0 1 -15.5,-15.5 v0 a15.5,15.5 0 0 1 15.5,-15.5"/></clipPath></defs><mask id="satori_om-id-2-3"><rect x="496" y="102" width="64" height="29" fill="#fff" mask="url(#satori_om-id)"/><path width="66" height="31" fill="none" stroke="#000" stroke-width="2" d="M499.54,105.53999999999999 A15.5,15.5 0 0 1 510.5,101 h35 a15.5,15.5 0 0 1 15.5,15.5 v0 a15.5,15.5 0 0 1 -15.5,15.5 h-35 a15.5,15.5 0 0 1 -15.5,-15.5 v0 A15.5,15.5 0 0 1 499.54,105.53999999999999"/></mask><path x="495" y="101" width="66" height="31" fill="rgba(255,255,255,0.04)" d="M510.5,101 h35 a15.5,15.5 0 0 1 15.5,15.5 v0 a15.5,15.5 0 0 1 -15.5,15.5 h-35 a15.5,15.5 0 0 1 -15.5,-15.5 v0 a15.5,15.5 0 0 1 15.5,-15.5" clip-path="url(#satori_cp-id)" mask="url(#satori_om-id)"/><path width="66" height="31" clip-path="url(#satori_bc-id-2-3)" fill="none" stroke="rgba(255,255,255,0.08)" stroke-width="2" d="M499.54,105.53999999999999 A15.5,15.5 0 0 1 510.5,101 h35 a15.5,15.5 0 0 1 15.5,15.5 v0 a15.5,15.5 0 0 1 -15.5,15.5 h-35 a15.5,15.5 0 0 1 -15.5,-15.5 v0 A15.5,15.5 0 0 1 499.54,105.53999999999999"/><g mask="url(#satori_om-id)" clip-path="url(#satori_cp-id)"><path fill="rgba(255,255,255,0.65)" d="M516.2 121L515.1 121L515.1 112.3L518.0 112.3Q519.1 112.3 519.7 112.6Q520.4 113.0 520.7 113.6Q521.0 114.2 521.0 115.0Q521.0 115.7 520.7 116.3Q520.4 116.9 519.7 117.3L519.7 117.3Q519.6 117.4 519.4 117.4L519.4 117.4L521.4 121L520.1 121L518.3 117.6Q518.2 117.6 518.0 117.6L518.0 117.6L516.2 117.6L516.2 121ZM516.2 113.2L516.2 116.6L518.0 116.6Q518.7 116.6 519.1 116.4Q519.5 116.2 519.7 115.8Q519.9 115.5 519.9 115.0L519.9 115.0Q519.9 114.4 519.7 114.1Q519.5 113.7 519.1 113.5Q518.7 113.2 518.0 113.2L518.0 113.2L516.2 113.2ZM525.4 121.1L525.4 121.1Q524.7 121.1 524.2 120.8Q523.7 120.5 523.4 120.0Q523.1 119.4 523.1 118.6L523.1 118.6L523.1 114.4L524.2 114.4L524.2 118.5Q524.2 119.3 524.6 119.7Q525 120.1 525.7 120.1L525.7 120.1Q526.2 120.1 526.5 119.9Q526.9 119.7 527.1 119.3Q527.3 118.9 527.3 118.4L527.3 118.4L527.3 114.4L528.4 114.4L528.4 121L527.4 121L527.4 119.8Q527.1 120.4 526.7 120.7L526.7 120.7Q526.1 121.1 525.4 121.1ZM533.0 121.1L533.0 121.1Q532.3 121.1 531.8 120.9Q531.2 120.7 530.9 120.4Q530.6 120.0 530.5 119.4L530.5 119.4L531.5 119.2Q531.6 119.7 532.0 120.0Q532.4 120.2 533.0 120.2L533.0 120.2Q533.6 120.2 534.1 119.9Q534.5 119.6 534.5 119.2L534.5 119.2Q534.5 118.9 534.2 118.7Q534.0 118.4 533.5 118.3L533.5 118.3L532.4 118.1Q531.5 117.9 531.1 117.4Q530.7 117.0 530.7 116.3L530.7 116.3Q530.7 115.7 531.0 115.3Q531.3 114.9 531.8 114.6Q532.4 114.4 533.1 114.4L533.1 114.4Q533.8 114.4 534.2 114.6Q534.7 114.8 535.0 115.1Q535.3 115.5 535.4 115.9L535.4 115.9L534.5 116.2Q534.3 115.8 534.0 115.6Q533.7 115.3 533.1 115.3L533.1 115.3Q532.5 115.3 532.1 115.5Q531.7 115.8 531.7 116.2L531.7 116.2Q531.7 116.6 532.0 116.8Q532.2 117.0 532.8 117.2L532.8 117.2L533.8 117.4Q534.7 117.6 535.1 118.0Q535.6 118.5 535.6 119.2L535.6 119.2Q535.6 119.7 535.2 120.2Q534.9 120.6 534.3 120.9Q533.7 121.1 533.0 121.1ZM538.8 114.4L540.2 114.4L540.2 115.4L538.8 115.4L538.8 119.3Q538.8 119.7 539.0 119.9Q539.2 120.1 539.6 120.1L539.6 120.1Q539.7 120.1 539.8 120.1Q540.0 120.1 540.1 120.1L540.1 120.1L540.3 121.0Q540.2 121.0 540.0 121.1Q539.8 121.1 539.6 121.1L539.6 121.1Q538.7 121.1 538.2 120.6Q537.8 120.2 537.8 119.4L537.8 119.4L537.8 115.4L536.8 115.4L536.8 114.4L537.8 114.4L537.8 112.9L538.8 112.9L538.8 114.4Z "/></g><defs><clipPath id="satori_bc-id-2-4" clip-path="url(#satori_cp-id)"><path x="571" y="101" width="56" height="31" d="M586.5,101 h25 a15.5,15.5 0 0 1 15.5,15.5 v0 a15.5,15.5 0 0 1 -15.5,15.5 h-25 a15.5,15.5 0 0 1 -15.5,-15.5 v0 a15.5,15.5 0 0 1 15.5,-15.5"/></clipPath></defs><mask id="satori_om-id-2-4"><rect x="572" y="102" width="54" height="29" fill="#fff" mask="url(#satori_om-id)"/><path width="56" height="31" fill="none" stroke="#000" stroke-width="2" d="M575.54,105.53999999999999 A15.5,15.5 0 0 1 586.5,101 h25 a15.5,15.5 0 0 1 15.5,15.5 v0 a15.5,15.5 0 0 1 -15.5,15.5 h-25 a15.5,15.5 0 0 1 -15.5,-15.5 v0 A15.5,15.5 0 0 1 575.54,105.53999999999999"/></mask><path x="571" y="101" width="56" height="31" fill="rgba(255,255,255,0.04)" d="M586.5,101 h25 a15.5,15.5 0 0 1 15.5,15.5 v0 a15.5,15.5 0 0 1 -15.5,15.5 h-25 a15.5,15.5 0 0 1 -15.5,-15.5 v0 a15.5,15.5 0 0 1 15.5,-15.5" clip-path="url(#satori_cp-id)" mask="url(#satori_om-id)"/><path width="56" height="31" clip-path="url(#satori_bc-id-2-4)" fill="none" stroke="rgba(255,255,255,0.08)" stroke-width="2" d="M575.54,105.53999999999999 A15.5,15.5 0 0 1 586.5,101 h25 a15.5,15.5 0 0 1 15.5,15.5 v0 a15.5,15.5 0 0 1 -15.5,15.5 h-25 a15.5,15.5 0 0 1 -15.5,-15.5 v0 A15.5,15.5 0 0 1 575.54,105.53999999999999"/><g mask="url(#satori_om-id)" clip-path="url(#satori_cp-id)"><path fill="rgba(255,255,255,0.65)" d="M594.6 121.1L594.6 121.1Q593.5 121.1 592.6 120.6Q591.7 120.0 591.2 119.0Q590.7 118.0 590.7 116.6L590.7 116.6Q590.7 115.3 591.2 114.2Q591.7 113.2 592.6 112.7Q593.4 112.2 594.6 112.2L594.6 112.2Q595.2 112.2 595.8 112.4Q596.4 112.6 596.9 112.9Q597.4 113.3 597.7 113.8Q598.0 114.4 598.1 115.0L598.1 115.0L597.0 115.0Q596.9 114.6 596.6 114.3Q596.4 113.9 596.1 113.7Q595.8 113.4 595.4 113.3Q595.0 113.2 594.6 113.2L594.6 113.2Q593.8 113.2 593.2 113.6Q592.5 114.0 592.2 114.7Q591.8 115.5 591.8 116.6L591.8 116.6Q591.8 117.8 592.2 118.5Q592.5 119.3 593.2 119.7Q593.8 120.1 594.6 120.1L594.6 120.1Q595.4 120.1 595.9 119.8Q596.5 119.5 596.8 118.9L596.8 118.9Q597.1 118.3 597.1 117.6L597.1 117.6L594.9 117.6L594.9 116.6L598.2 116.6L598.2 117.6Q598.2 118.7 597.7 119.4Q597.3 120.2 596.5 120.7Q595.7 121.1 594.6 121.1ZM603.0 121.1L603.0 121.1Q602.2 121.1 601.5 120.7Q600.8 120.3 600.4 119.5Q600.1 118.8 600.1 117.8L600.1 117.8Q600.1 116.7 600.4 116.0Q600.8 115.2 601.5 114.8Q602.2 114.4 603.0 114.4L603.0 114.4Q603.9 114.4 604.6 114.8Q605.3 115.2 605.7 116.0Q606.0 116.7 606.0 117.8L606.0 117.8Q606.0 118.8 605.7 119.5Q605.3 120.3 604.6 120.7Q603.9 121.1 603.0 121.1ZM603.0 120.2L603.0 120.2Q603.7 120.2 604.1 119.9Q604.6 119.5 604.8 119.0Q605.0 118.4 605.0 117.8L605.0 117.8Q605.0 117.1 604.8 116.6Q604.6 116.0 604.1 115.7Q603.7 115.3 603.0 115.3L603.0 115.3Q602.4 115.3 602.0 115.7Q601.5 116.0 601.3 116.6Q601.1 117.1 601.1 117.8L601.1 117.8Q601.1 118.4 601.3 119.0Q601.5 119.5 602.0 119.9Q602.4 120.2 603.0 120.2Z "/></g></svg>