<!-- Generated by readme-aura https://github.com/collectioneur/readme-aura -->
<svg width="800" height="200" viewBox="0 0 800 200" xmlns="http://www.w3.org/2000/svg"><clipPath id="satori_cp-id"><path x="0" y="0" width="800" height="200" d="M20,0 h760 a20,20 0 0 1 20,20 v160 a20,20 0 0 1 -20,20 h-760 a20,20 0 0 1 -20,-20 v-160 a20,20 0 0 1 20,-20"/></clipPath><mask id="satori_om-id"><rect x="0" y="0" width="800" height="200" fill="#fff"/></mask><path x="0" y="0" width="800" height="200" fill="#08080d" d="M20,0 h760 a20,20 0 0 1 20,20 v160 a20,20 0 0 1 -20,20 h-760 a20,20 0 0 1 -20,-20 v-160 a20,20 0 0 1 20,-20"/><clipPath id="satori_cp-id-0" clip-path="url(#satori_cp-id)"><rect x="0" y="0" width="800" height="200"/></clipPath><mask id="satori_om-id-0"><rect x="0" y="0" width="800" height="200" fill="#fff" mask="url(#satori_om-id)"/></mask><svg x="0" y="0" width="800" height="200" preserveAspectRatio="none" clip-path="url(#satori_cp-id-0)" mask="url(#satori_om-id-0)"><defs><radialGradient id="sg1" cx="50%" cy="50%" r="50%"><stop offset="0%" stop-color="rgba(80,160,220,0.4)"></stop><stop offset="100%" stop-color="rgba(80,160,220,0)"></stop></radialGradient><radialGradient id="sg2" cx="50%" cy="50%" r="50%"><stop offset="0%" stop-color="rgba(108,195,130,0.35)"></stop><stop offset="100%" stop-color="rgba(108,195,130,0)"></stop></radialGradient><radialGradient id="sg3" cx="50%" cy="50%" r="50%"><stop offset="0%" stop-color="rgba(195,155,255,0.3)"></stop><stop offset="100%" stop-color="rgba(195,155,255,0)"></stop></radialGradient><radialGradient id="sg4" cx="50%" cy="50%" r="50%"><stop offset="0%" stop-color="rgba(255,195,110,0.3)"></stop><stop offset="100%" stop-color="rgba(255,195,110,0)"></stop></radialGradient></defs><ellipse id="st-o1" cx="80" cy="160" rx="160" ry="120" fill="url(#sg1)"></ellipse><ellipse id="st-o2" cx="730" cy="50" rx="150" ry="120" fill="url(#sg2)"></ellipse><ellipse id="st-o3" cx="640" cy="170" rx="140" ry="110" fill="url(#sg3)"></ellipse><ellipse id="st-o4" cx="180" cy="40" rx="130" ry="100" fill="url(#sg4)"></ellipse><style>

    @keyframes stack-orb { 0%, 100% { transform: translate(0,0); opacity: 0.45; } 50% { transform: translate(18px,-14px); opacity: 0.7; } }
    @keyframes stack-orb-b { 0%, 100% { transform: translate(0,0); opacity: 0.4; } 50% { transform: translate(-14px,10px); opacity: 0.65; } }
    #st-o1 { animation: stack-orb 10s ease-in-out infinite; }
    #st-o2 { animation: stack-orb-b 12s ease-in-out infinite 1s; }
    #st-o3 { animation: stack-orb 9s ease-in-out infinite 2.5s; }
    #st-o4 { animation: stack-orb-b 11s ease-in-out infinite 0.5s; }
  
</style>
</svg><mask id="satori_om-id-0-0"><rect x="0" y="0" width="0" height="200" fill="#fff" mask="url(#satori_om-id)"/></mask><mask id="satori_om-id-0-0-0"><rect x="0" y="0" width="0" height="200" fill="#fff" mask="url(#satori_om-id)"/></mask><mask id="satori_om-id-0-0-0-0"><rect x="0" y="0" width="0" height="200" fill="#fff" mask="url(#satori_om-id)"/></mask><mask id="satori_om-id-0-0-0-1"><rect x="0" y="0" width="0" height="200" fill="#fff" mask="url(#satori_om-id)"/></mask><mask id="satori_om-id-0-0-1"><rect x="0" y="0" width="0" height="200" fill="#fff" mask="url(#satori_om-id)"/></mask><mask id="satori_om-id-0-0-1-0"><rect x="0" y="0" width="0" height="200" fill="#fff" mask="url(#satori_om-id)"/></mask><mask id="satori_om-id-0-0-1-1"><rect x="0" y="0" width="0" height="200" fill="#fff" mask="url(#satori_om-id)"/></mask><mask id="satori_om-id-0-0-2"><rect x="0" y="0" width="0" height="200" fill="#fff" mask="url(#satori_om-id)"/></mask><mask id="satori_om-id-0-0-2-0"><rect x="0" y="0" width="0" height="200" fill="#fff" mask="url(#satori_om-id)"/></mask><mask id="satori_om-id-0-0-2-1"><rect x="0" y="0" width="0" height="200" fill="#fff" mask="url(#satori_om-id)"/></mask><mask id="satori_om-id-0-0-3"><rect x="0" y="0" width="0" height="200" fill="#fff" mask="url(#satori_om-id)"/></mask><mask id="satori_om-id-0-0-3-0"><rect x="0" y="0" width="0" height="200" fill="#fff" mask="url(#satori_om-id)"/></mask><mask id="satori_om-id-0-0-3-1"><rect x="0" y="0" width="0" height="200" fill="#fff" mask="url(#satori_om-id)"/></mask><mask id="satori_om-id-0-1"><rect x="0" y="0" width="0" height="200" fill="#fff" mask="url(#satori_om-id)"/></mask><mask id="satori_om-id-0-2"><rect x="0" y="0" width="0" height="200" fill="#fff" mask="url(#satori_om-id)"/></mask><mask id="satori_om-id-0-3"><rect x="0" y="0" width="0" height="200" fill="#fff" mask="url(#satori_om-id)"/></mask><mask id="satori_om-id-0-4"><rect x="0" y="0" width="0" height="200" fill="#fff" mask="url(#satori_om-id)"/></mask><mask id="satori_om-id-1"><rect x="371" y="48" width="58" height="13" fill="#fff" mask="url(#satori_om-id)"/></mask><g mask="url(#satori_om-id)" clip-path="url(#satori_cp-id)"><path fill="rgba(255,255,255,0.3)" d="M374.5 59.1L374.5 59.1Q373.7 59.1 373.0 58.9Q372.4 58.6 372.0 58.1Q371.7 57.6 371.6 56.9L371.6 56.9L372.7 56.9Q372.7 57.4 373.0 57.6Q373.2 57.9 373.7 58.1Q374.1 58.2 374.5 58.2L374.5 58.2Q375.1 58.2 375.5 58.0Q375.9 57.9 376.2 57.5Q376.4 57.2 376.4 56.8L376.4 56.8Q376.4 56.4 376.2 56.2Q376.0 55.9 375.6 55.8Q375.3 55.6 374.9 55.5L374.9 55.5L373.9 55.2Q372.9 55.0 372.4 54.4Q371.8 53.9 371.8 53.1L371.8 53.1Q371.8 52.5 372.2 52.0Q372.6 51.4 373.2 51.2Q373.8 50.9 374.6 50.9L374.6 50.9Q375.4 50.9 376.0 51.2Q376.6 51.4 377.0 51.9Q377.3 52.4 377.3 53.0L377.3 53.0L376.3 53.0Q376.3 52.4 375.8 52.1Q375.3 51.8 374.6 51.8L374.6 51.8Q374.1 51.8 373.7 52.0Q373.3 52.1 373.1 52.4Q372.8 52.7 372.8 53.1L372.8 53.1Q372.8 53.5 373.1 53.8Q373.4 54.0 373.7 54.2Q374.1 54.3 374.4 54.4L374.4 54.4L375.2 54.6Q375.5 54.7 375.9 54.8Q376.3 55.0 376.6 55.2Q377.0 55.5 377.2 55.9Q377.4 56.3 377.4 56.8L377.4 56.8Q377.4 57.5 377.1 58.0Q376.8 58.5 376.1 58.8Q375.5 59.1 374.5 59.1ZM385.1 51.9L382.6 51.9L382.6 51.0L388.6 51.0L388.6 51.9L386.1 51.9L386.1 59L385.1 59L385.1 51.9ZM394.5 59L393.4 59L396.3 51.0L397.5 51.0L400.5 59L399.4 59L398.6 56.8L395.3 56.8L394.5 59ZM395.6 55.9L398.3 55.9L397.7 54.3Q397.5 53.8 397.3 53.2L397.3 53.2Q397.2 52.6 396.9 51.8L396.9 51.8Q396.7 52.6 396.5 53.2L396.5 53.2Q396.3 53.8 396.2 54.3L396.2 54.3L395.6 55.9ZM409.0 59.1L409.0 59.1Q407.9 59.1 407.1 58.6Q406.3 58.1 405.9 57.2Q405.4 56.3 405.4 55.0L405.4 55.0Q405.4 53.7 405.9 52.8Q406.3 51.9 407.1 51.4Q407.9 50.9 409.0 50.9L409.0 50.9Q409.6 50.9 410.1 51.1Q410.6 51.2 411.1 51.6Q411.5 51.9 411.8 52.4Q412.1 52.9 412.2 53.5L412.2 53.5L411.2 53.5Q411.1 53.1 410.9 52.8Q410.7 52.5 410.4 52.3Q410.1 52.0 409.7 51.9Q409.3 51.8 409.0 51.8L409.0 51.8Q408.2 51.8 407.7 52.2Q407.1 52.6 406.7 53.3Q406.4 54.0 406.4 55.0L406.4 55.0Q406.4 56.0 406.7 56.7Q407.1 57.4 407.7 57.8Q408.2 58.2 409.0 58.2L409.0 58.2Q409.3 58.2 409.7 58.1Q410.1 57.9 410.4 57.7Q410.7 57.5 410.9 57.2Q411.1 56.9 411.2 56.5L411.2 56.5L412.2 56.5Q412.1 57.1 411.8 57.6Q411.5 58.1 411.1 58.4Q410.6 58.7 410.1 58.9Q409.6 59.1 409.0 59.1ZM418.8 59L417.7 59L417.7 51.0L418.8 51.0L418.8 53.7L418.8 55.2Q418.9 55.1 419.0 54.9L419.0 54.9Q419.3 54.6 419.5 54.2Q419.8 53.9 420.1 53.6L420.1 53.6L422.5 51.0L423.9 51.0L420.6 54.5L423.9 59L422.7 59L419.9 55.2L418.8 56.4L418.8 59Z "/></g><mask id="satori_om-id-2"><rect x="60" y="81" width="680" height="72" fill="#fff" mask="url(#satori_om-id)"/></mask><defs><clipPath id="satori_bc-id-2-0" clip-path="url(#satori_cp-id)"><path x="64" y="81" width="81" height="31" d="M79.5,81 h50 a15.5,15.5 0 0 1 15.5,15.5 v0 a15.5,15.5 0 0 1 -15.5,15.5 h-50 a15.5,15.5 0 0 1 -15.5,-15.5 v0 a15.5,15.5 0 0 1 15.5,-15.5"/></clipPath></defs><mask id="satori_om-id-2-0"><rect x="65" y="82" width="79" height="29" fill="#fff" mask="url(#satori_om-id)"/><path width="81" height="31" fill="none" stroke="#000" stroke-width="2" d="M68.53999999999999,85.53999999999999 A15.5,15.5 0 0 1 79.5,81 h50 a15.5,15.5 0 0 1 15.5,15.5 v0 a15.5,15.5 0 0 1 -15.5,15.5 h-50 a15.5,15.5 0 0 1 -15.5,-15.5 v0 A15.5,15.5 0 0 1 68.53999999999999,85.53999999999999"/></mask><path x="64" y="81" width="81" height="31" fill="rgba(255,255,255,0.04)" d="M79.5,81 h50 a15.5,15.5 0 0 1 15.5,15.5 v0 a15.5,15.5 0 0 1 -15.5,15.5 h-50 a15.5,15.5 0 0 1 -15.5,-15.5 v0 a15.5,15.5 0 0 1 15.5,-15.5" clip-path="url(#satori_cp-id)" mask="url(#satori_om-id)"/><path width="81" height="31" clip-path="url(#satori_bc-id-2-0)" fill="none" stroke="rgba(255,255,255,0.08)" stroke-width="2" d="M68.53999999999999,85.53999999999999 A15.5,15.5 0 0 1 79.5,81 h50 a15.5,15.5 0 0 1 15.5,15.5 v0 a15.5,15.5 0 0 1 -15.5,15.5 h-50 a15.5,15.5 0 0 1 -15.5,-15.5 v0 A15.5,15.5 0 0 1 68.53999999999999,85.53999999999999"/><g mask="url(#satori_om-id)" clip-path="url(#satori_cp-id)"><path fill="rgba(255,255,255,0.65)" d="M85.2 101L84.1 101L84.1 92.3L87.0 92.3Q88.1 92.3 88.7 92.6Q89.4 93.0 89.7 93.6Q90.0 94.3 90.0 95.0Q90.0 95.8 89.7 96.5Q89.4 97.1 88.7 97.5Q88.1 97.8 87.0 97.8L87.0 97.8L85.2 97.8L85.2 101ZM85.2 93.2L85.2 96.9L87.0 96.9Q87.7 96.9 88.1 96.6Q88.5 96.4 88.7 96.0Q88.9 95.6 88.9 95.0Q88.9 94.5 88.7 94.1Q88.5 93.7 88.1 93.5Q87.7 93.2 87.0 93.2L87.0 93.2L85.2 93.2ZM92.0 103.4L92.0 103.4L92.3 102.5L92.4 102.5Q92.7 102.6 93.0 102.5Q93.2 102.5 93.4 102.3Q93.6 102.0 93.8 101.6L93.8 101.6L94.0 101.0L91.5 94.4L92.6 94.4L94.0 98.3Q94.3 98.9 94.4 99.5L94.4 99.5Q94.5 99.8 94.5 100.0L94.5 100.0Q94.6 99.8 94.7 99.5L94.7 99.5Q94.8 98.9 95.0 98.3L95.0 98.3L96.4 94.4L97.6 94.4L94.7 102.0Q94.5 102.5 94.2 102.8Q94.0 103.2 93.6 103.3Q93.2 103.5 92.8 103.5L92.8 103.5Q92.5 103.5 92.3 103.5Q92.1 103.4 92.0 103.4ZM100.6 94.4L101.9 94.4L101.9 95.4L100.6 95.4L100.6 99.3Q100.6 99.7 100.7 99.9Q100.9 100.1 101.3 100.1L101.3 100.1Q101.4 100.1 101.6 100.1Q101.7 100.1 101.9 100.1L101.9 100.1L102.1 101.0Q101.9 101.0 101.7 101.1Q101.5 101.1 101.3 101.1L101.3 101.1Q100.5 101.1 100.0 100.6Q99.5 100.2 99.5 99.4L99.5 99.4L99.5 95.4L98.5 95.4L98.5 94.4L99.5 94.4L99.5 92.9L100.6 92.9L100.6 94.4ZM104.8 97.1L104.8 97.1L104.8 101L103.8 101L103.8 92.3L104.8 92.3L104.8 95.6Q105.1 95.0 105.5 94.7L105.5 94.7Q106.0 94.4 106.8 94.4L106.8 94.4Q107.4 94.4 107.9 94.6Q108.4 94.9 108.7 95.5Q109.0 96.0 109.0 96.8L109.0 96.8L109.0 101L107.9 101L107.9 96.9Q107.9 96.2 107.5 95.7Q107.2 95.3 106.5 95.3L106.5 95.3Q106.0 95.3 105.6 95.5Q105.2 95.7 105.0 96.1Q104.8 96.5 104.8 97.1ZM114.0 101.1L114.0 101.1Q113.1 101.1 112.5 100.7Q111.8 100.3 111.4 99.5Q111.0 98.8 111.0 97.8L111.0 97.8Q111.0 96.7 111.4 96.0Q111.8 95.2 112.5 94.8Q113.1 94.4 114.0 94.4L114.0 94.4Q114.9 94.4 115.6 94.8Q116.3 95.2 116.6 96.0Q117.0 96.7 117.0 97.8L117.0 97.8Q117.0 98.8 116.6 99.5Q116.3 100.3 115.6 100.7Q114.9 101.1 114.0 101.1ZM114.0 100.2L114.0 100.2Q114.7 100.2 115.1 99.9Q115.5 99.5 115.7 99.0Q115.9 98.4 115.9 97.8L115.9 97.8Q115.9 97.1 115.7 96.6Q115.5 96.0 115.1 95.7Q114.7 95.3 114.0 95.3L114.0 95.3Q113.4 95.3 112.9 95.7Q112.5 96.0 112.3 96.6Q112.1 97.1 112.1 97.8L112.1 97.8Q112.1 98.4 112.3 99.0Q112.5 99.5 112.9 99.9Q113.4 100.2 114.0 100.2ZM120.1 97.1L120.1 97.1L120.1 101L119.1 101L119.1 94.4L120.1 94.4L120.1 95.7Q120.3 95.0 120.8 94.7L120.8 94.7Q121.3 94.4 122.1 94.4L122.1 94.4Q122.7 94.4 123.2 94.6Q123.7 94.9 124.0 95.5Q124.3 96.0 124.3 96.8L124.3 96.8L124.3 101L123.2 101L123.2 96.9Q123.2 96.2 122.8 95.7Q122.4 95.3 121.8 95.3L121.8 95.3Q121.3 95.3 120.9 95.5Q120.5 95.7 120.3 96.1Q120.1 96.5 120.1 97.1Z "/></g><defs><clipPath id="satori_bc-id-2-1" clip-path="url(#satori_cp-id)"><path x="155" y="81" width="106" height="31" d="M170.5,81 h75 a15.5,15.5 0 0 1 15.5,15.5 v0 a15.5,15.5 0 0 1 -15.5,15.5 h-75 a15.5,15.5 0 0 1 -15.5,-15.5 v0 a15.5,15.5 0 0 1 15.5,-15.5"/></clipPath></defs><mask id="satori_om-id-2-1"><rect x="156" y="82" width="104" height="29" fill="#fff" mask="url(#satori_om-id)"/><path width="106" height="31" fill="none" stroke="#000" stroke-width="2" d="M159.54,85.53999999999999 A15.5,15.5 0 0 1 170.5,81 h75 a15.5,15.5 0 0 1 15.5,15.5 v0 a15.5,15.5 0 0 1 -15.5,15.5 h-75 a15.5,15.5 0 0 1 -15.5,-15.5 v0 A15.5,15.5 0 0 1 159.54,85.53999999999999"/></mask><path x="155" y="81" width="106" height="31" fill="rgba(255,255,255,0.04)" d="M170.5,81 h75 a15.5,15.5 0 0 1 15.5,15.5 v0 a15.5,15.5 0 0 1 -15.5,15.5 h-75 a15.5,15.5 0 0 1 -15.5,-15.5 v0 a15.5,15.5 0 0 1 15.5,-15.5" clip-path="url(#satori_cp-id)" mask="url(#satori_om-id)"/><path width="106" height="31" clip-path="url(#satori_bc-id-2-1)" fill="none" stroke="rgba(255,255,255,0.08)" stroke-width="2" d="M159.54,85.53999999999999 A15.5,15.5 0 0 1 170.5,81 h75 a15.5,15.5 0 0 1 15.5,15.5 v0 a15.5,15.5 0 0 1 -15.5,15.5 h-75 a15.5,15.5 0 0 1 -15.5,-15.5 v0 A15.5,15.5 0 0 1 159.54,85.53999999999999"/><g mask="url(#satori_om-id)" clip-path="url(#satori_cp-id)"><path fill="rgba(255,255,255,0.65)" d="M177.3 93.3L174.6 93.3L174.6 92.3L181.2 92.3L181.2 93.3L178.4 93.3L178.4 101L177.3 101L177.3 93.3ZM183.1 103.4L183.1 103.4L183.3 102.5L183.4 102.5Q183.8 102.6 184.0 102.5Q184.3 102.5 184.5 102.3Q184.7 102.0 184.9 101.6L184.9 101.6L185.1 101.0L182.6 94.4L183.7 94.4L185.1 98.3Q185.3 98.9 185.5 99.5L185.5 99.5Q185.6 99.8 185.6 100.0L185.6 100.0Q185.7 99.8 185.8 99.5L185.8 99.5Q185.9 98.9 186.1 98.3L186.1 98.3L187.5 94.4L188.7 94.4L185.8 102.0Q185.6 102.5 185.3 102.8Q185.0 103.2 184.7 103.3Q184.3 103.5 183.8 103.5L183.8 103.5Q183.6 103.5 183.4 103.5Q183.1 103.4 183.1 103.4ZM191.5 103.4L190.4 103.4L190.4 94.4L191.4 94.4L191.4 95.5L191.6 95.5Q191.7 95.3 191.9 95.1Q192.1 94.8 192.4 94.6Q192.8 94.4 193.5 94.4L193.5 94.4Q194.3 94.4 194.9 94.8Q195.5 95.2 195.9 95.9Q196.2 96.7 196.2 97.7L196.2 97.7Q196.2 98.8 195.9 99.5Q195.5 100.3 194.9 100.7Q194.3 101.1 193.5 101.1L193.5 101.1Q192.8 101.1 192.5 100.9Q192.1 100.7 191.9 100.4Q191.7 100.2 191.6 100.0L191.6 100.0L191.5 100.0L191.5 103.4ZM193.3 100.2L193.3 100.2Q193.9 100.2 194.3 99.9Q194.7 99.5 194.9 99.0Q195.2 98.4 195.2 97.7L195.2 97.7Q195.2 97.1 195.0 96.5Q194.7 96.0 194.3 95.6Q193.9 95.3 193.3 95.3L193.3 95.3Q192.7 95.3 192.3 95.6Q191.9 95.9 191.7 96.5Q191.5 97.0 191.5 97.7L191.5 97.7Q191.5 98.5 191.7 99.0Q191.9 99.6 192.3 99.9Q192.7 100.2 193.3 100.2ZM201.0 101.1L201.0 101.1Q200.1 101.1 199.4 100.7Q198.7 100.3 198.3 99.5Q197.9 98.8 197.9 97.8Q197.9 96.8 198.3 96.0Q198.7 95.2 199.3 94.8Q200.0 94.4 200.9 94.4L200.9 94.4Q201.4 94.4 201.9 94.5Q202.4 94.7 202.8 95.1Q203.3 95.5 203.5 96.1Q203.7 96.7 203.7 97.6L203.7 97.6L203.7 98.1L199.0 98.1Q199.0 98.7 199.3 99.2L199.3 99.2Q199.5 99.7 200.0 99.9Q200.4 100.2 201.0 100.2L201.0 100.2Q201.4 100.2 201.7 100.1Q202.0 100.0 202.3 99.8Q202.5 99.5 202.6 99.2L202.6 99.2L203.6 99.5Q203.5 100.0 203.1 100.3Q202.8 100.7 202.2 100.9Q201.7 101.1 201.0 101.1ZM199.0 97.2L199.0 97.2L202.7 97.2Q202.6 96.7 202.5 96.4L202.5 96.4Q202.3 95.9 201.9 95.6Q201.5 95.3 200.9 95.3Q200.3 95.3 199.9 95.6Q199.5 95.9 199.2 96.3L199.2 96.3Q199.0 96.7 199.0 97.2ZM208.7 101.2L208.7 101.2Q207.7 101.2 207.0 100.8Q206.4 100.5 206.0 100.0Q205.6 99.4 205.5 98.7L205.5 98.7L206.7 98.7Q206.7 99.2 207.0 99.5Q207.3 99.8 207.7 100.0Q208.2 100.2 208.7 100.2L208.7 100.2Q209.3 100.2 209.7 100.0Q210.2 99.8 210.5 99.4Q210.8 99.1 210.8 98.6L210.8 98.6Q210.8 98.2 210.5 97.9Q210.3 97.7 209.9 97.5Q209.5 97.3 209.0 97.2L209.0 97.2L208.0 96.9Q206.9 96.6 206.3 96.0Q205.8 95.5 205.8 94.6L205.8 94.6Q205.8 93.9 206.2 93.3Q206.6 92.8 207.2 92.5Q207.9 92.2 208.8 92.2L208.8 92.2Q209.6 92.2 210.3 92.5Q210.9 92.8 211.3 93.3Q211.7 93.8 211.7 94.5L211.7 94.5L210.6 94.5Q210.6 93.8 210.0 93.5Q209.5 93.1 208.7 93.1L208.7 93.1Q208.2 93.1 207.7 93.3Q207.3 93.5 207.1 93.8Q206.8 94.1 206.8 94.6L206.8 94.6Q206.8 95.0 207.1 95.3Q207.4 95.6 207.8 95.7Q208.2 95.9 208.5 96.0L208.5 96.0L209.4 96.2Q209.7 96.3 210.2 96.5Q210.6 96.6 211.0 96.9Q211.4 97.2 211.6 97.6Q211.9 98.0 211.9 98.6L211.9 98.6Q211.9 99.3 211.5 99.9Q211.1 100.5 210.4 100.8Q209.7 101.2 208.7 101.2ZM216.6 101.1L216.6 101.1Q215.7 101.1 215.1 100.7Q214.4 100.3 214.0 99.5Q213.6 98.8 213.6 97.8L213.6 97.8Q213.6 96.7 214.0 96.0Q214.4 95.2 215.1 94.8Q215.7 94.4 216.6 94.4L216.6 94.4Q217.1 94.4 217.5 94.5Q217.9 94.6 218.3 94.8Q218.6 95.1 218.9 95.4Q219.1 95.8 219.3 96.2L219.3 96.2L218.3 96.5Q218.2 96.2 218.0 96.0Q217.9 95.8 217.7 95.6Q217.5 95.5 217.2 95.4Q216.9 95.3 216.6 95.3L216.6 95.3Q216.0 95.3 215.5 95.7Q215.1 96.0 214.9 96.6Q214.7 97.1 214.7 97.8L214.7 97.8Q214.7 98.4 214.9 99.0Q215.1 99.5 215.5 99.9Q216.0 100.2 216.6 100.2L216.6 100.2Q217.0 100.2 217.2 100.1Q217.5 100.0 217.7 99.9Q217.9 99.7 218.1 99.5Q218.2 99.3 218.3 99.0L218.3 99.0L219.3 99.3Q219.2 99.7 218.9 100.1Q218.7 100.4 218.3 100.6Q218.0 100.9 217.5 101.0Q217.1 101.1 216.6 101.1ZM222.4 101L221.3 101L221.3 94.4L222.3 94.4L222.3 95.5L222.4 95.5Q222.6 95.0 223.1 94.7Q223.5 94.4 224.1 94.4L224.1 94.4Q224.2 94.4 224.4 94.4Q224.5 94.4 224.6 94.4L224.6 94.4L224.6 95.4Q224.6 95.4 224.4 95.4Q224.2 95.4 224.0 95.4L224.0 95.4Q223.5 95.4 223.2 95.6Q222.8 95.8 222.6 96.1Q222.4 96.5 222.4 96.9L222.4 96.9L222.4 101ZM227.4 101L226.3 101L226.3 94.4L227.4 94.4L227.4 101ZM226.9 93.4L226.9 93.4Q226.6 93.4 226.3 93.2Q226.1 93.0 226.1 92.7L226.1 92.7Q226.1 92.4 226.3 92.2Q226.6 92.0 226.9 92.0L226.9 92.0Q227.2 92.0 227.4 92.2Q227.6 92.4 227.6 92.7L227.6 92.7Q227.6 93.0 227.4 93.2Q227.2 93.4 226.9 93.4ZM230.8 103.4L229.7 103.4L229.7 94.4L230.8 94.4L230.8 95.5L230.9 95.5Q231.0 95.3 231.2 95.1Q231.4 94.8 231.8 94.6Q232.1 94.4 232.8 94.4L232.8 94.4Q233.6 94.4 234.2 94.8Q234.8 95.2 235.2 95.9Q235.6 96.7 235.6 97.7L235.6 97.7Q235.6 98.8 235.2 99.5Q234.8 100.3 234.2 100.7Q233.6 101.1 232.8 101.1L232.8 101.1Q232.2 101.1 231.8 100.9Q231.4 100.7 231.2 100.4Q231.0 100.2 230.9 100.0L230.9 100.0L230.8 100.0L230.8 103.4ZM232.6 100.2L232.6 100.2Q233.2 100.2 233.6 99.9Q234.1 99.5 234.3 99.0Q234.5 98.4 234.5 97.7L234.5 97.7Q234.5 97.1 234.3 96.5Q234.1 96.0 233.7 95.6Q233.2 95.3 232.6 95.3L232.6 95.3Q232.0 95.3 231.6 95.6Q231.2 95.9 231.0 96.5Q230.8 97.0 230.8 97.7L230.8 97.7Q230.8 98.5 231.0 99.0Q231.2 99.6 231.6 99.9Q232.0 100.2 232.6 100.2ZM238.8 94.4L240.2 94.4L240.2 95.4L238.8 95.4L238.8 99.3Q238.8 99.7 239.0 99.9Q239.2 100.1 239.6 100.1L239.6 100.1Q239.7 100.1 239.8 100.1Q240 100.1 240.1 100.1L240.1 100.1L240.3 101.0Q240.2 101.0 240.0 101.1Q239.8 101.1 239.6 101.1L239.6 101.1Q238.7 101.1 238.2 100.6Q237.8 100.2 237.8 99.4L237.8 99.4L237.8 95.4L236.8 95.4L236.8 94.4L237.8 94.4L237.8 92.9L238.8 92.9L238.8 94.4Z "/></g><defs><clipPath id="satori_bc-id-2-2" clip-path="url(#satori_cp-id)"><path x="271" y="81" width="85" height="31" d="M286.5,81 h54 a15.5,15.5 0 0 1 15.5,15.5 v0 a15.5,15.5 0 0 1 -15.5,15.5 h-54 a15.5,15.5 0 0 1 -15.5,-15.5 v0 a15.5,15.5 0 0 1 15.5,-15.5"/></clipPath></defs><mask id="satori_om-id-2-2"><rect x="272" y="82" width="83" height="29" fill="#fff" mask="url(#satori_om-id)"/><path width="85" height="31" fill="none" stroke="#000" stroke-width="2" d="M275.54,85.53999999999999 A15.5,15.5 0 0 1 286.5,81 h54 a15.5,15.5 0 0 1 15.5,15.5 v0 a15.5,15.5 0 0 1 -15.5,15.5 h-54 a15.5,15.5 0 0 1 -15.5,-15.5 v0 A15.5,15.5 0 0 1 275.54,85.53999999999999"/></mask><path x="271" y="81" width="85" height="31" fill="rgba(255,255,255,0.04)" d="M286.5,81 h54 a15.5,15.5 0 0 1 15.5,15.5 v0 a15.5,15.5 0 0 1 -15.5,15.5 h-54 a15.5,15.5 0 0 1 -15.5,-15.5 v0 a15.5,15.5 0 0 1 15.5,-15.5" clip-path="url(#satori_cp-id)" mask="url(#satori_om-id)"/><path width="85" height="31" clip-path="url(#satori_bc-id-2-2)" fill="none" stroke="rgba(255,255,255,0.08)" stroke-width="2" d="M275.54,85.53999999999999 A15.5,15.5 0 0 1 286.5,81 h54 a15.5,15.5 0 0 1 15.5,15.5 v0 a15.5,15.5 0 0 1 -15.5,15.5 h-54 a15.5,15.5 0 0 1 -15.5,-15.5 v0 A15.5,15.5 0 0 1 275.54,85.53999999999999"/><g mask="url(#satori_om-id)" clip-path="url(#satori_cp-id)"><path fill="rgba(255,255,255,0.65)" d="M292.2 101L291.1 101L291.1 92.3L292.4 92.3L295.9 97.9Q296.1 98.1 296.3 98.4Q296.5 98.8 296.7 99.2L296.7 99.2Q296.8 99.4 296.9 99.7L296.9 99.7Q296.9 99.4 296.9 99.1L296.9 99.1Q296.9 98.7 296.9 98.3Q296.9 97.9 296.9 97.6L296.9 97.6L296.9 92.3L298.0 92.3L298.0 101L296.7 101L293.5 96.0Q293.3 95.7 293.1 95.3Q292.8 95.0 292.6 94.4L292.6 94.4Q292.4 94.1 292.1 93.6L292.1 93.6Q292.1 94.0 292.1 94.4L292.1 94.4Q292.1 95.0 292.2 95.4Q292.2 95.8 292.2 96.0L292.2 96.0L292.2 101ZM303.1 101.1L303.1 101.1Q302.2 101.1 301.6 100.7Q300.9 100.3 300.5 99.5Q300.2 98.8 300.2 97.8L300.2 97.8Q300.2 96.7 300.5 96.0Q300.9 95.2 301.6 94.8Q302.2 94.4 303.1 94.4L303.1 94.4Q304.0 94.4 304.7 94.8Q305.4 95.2 305.8 96.0Q306.1 96.7 306.1 97.8L306.1 97.8Q306.1 98.8 305.8 99.5Q305.4 100.3 304.7 100.7Q304.0 101.1 303.1 101.1ZM303.1 100.2L303.1 100.2Q303.8 100.2 304.2 99.9Q304.7 99.5 304.9 99.0Q305.1 98.4 305.1 97.8L305.1 97.8Q305.1 97.1 304.9 96.6Q304.7 96.0 304.2 95.7Q303.8 95.3 303.1 95.3L303.1 95.3Q302.5 95.3 302.1 95.7Q301.6 96.0 301.4 96.6Q301.2 97.1 301.2 97.8L301.2 97.8Q301.2 98.4 301.4 99.0Q301.6 99.5 302.1 99.9Q302.5 100.2 303.1 100.2ZM310.6 101.1L310.6 101.1Q309.8 101.1 309.2 100.7Q308.5 100.3 308.2 99.5Q307.8 98.8 307.8 97.7L307.8 97.7Q307.8 96.7 308.2 95.9Q308.6 95.2 309.2 94.8Q309.8 94.4 310.6 94.4L310.6 94.4Q311.3 94.4 311.6 94.6Q312.0 94.8 312.2 95.1Q312.4 95.3 312.5 95.5L312.5 95.5L312.6 95.5L312.6 92.3L313.7 92.3L313.7 101L312.6 101L312.6 100.0L312.5 100.0Q312.4 100.2 312.2 100.4Q312 100.7 311.6 100.9Q311.2 101.1 310.6 101.1ZM310.8 100.2L310.8 100.2Q311.4 100.2 311.8 99.9Q312.2 99.6 312.4 99.0Q312.6 98.5 312.6 97.7L312.6 97.7Q312.6 97.0 312.4 96.5Q312.2 95.9 311.8 95.6Q311.4 95.3 310.8 95.3L310.8 95.3Q310.2 95.3 309.7 95.6Q309.3 96.0 309.1 96.5Q308.9 97.1 308.9 97.7L308.9 97.7Q308.9 98.4 309.1 99.0Q309.3 99.5 309.8 99.9Q310.2 100.2 310.8 100.2ZM318.8 101.1L318.8 101.1Q317.8 101.1 317.1 100.7Q316.4 100.3 316.1 99.5Q315.7 98.8 315.7 97.8Q315.7 96.8 316.1 96.0Q316.4 95.2 317.1 94.8Q317.8 94.4 318.6 94.4L318.6 94.4Q319.2 94.4 319.7 94.5Q320.2 94.7 320.6 95.1Q321.0 95.5 321.2 96.1Q321.5 96.7 321.5 97.6L321.5 97.6L321.5 98.1L316.8 98.1Q316.8 98.7 317.0 99.2L317.0 99.2Q317.3 99.7 317.7 99.9Q318.2 100.2 318.8 100.2L318.8 100.2Q319.2 100.2 319.5 100.1Q319.8 100.0 320.0 99.8Q320.2 99.5 320.4 99.2L320.4 99.2L321.4 99.5Q321.2 100.0 320.9 100.3Q320.5 100.7 320.0 100.9Q319.4 101.1 318.8 101.1ZM316.8 97.2L316.8 97.2L320.4 97.2Q320.4 96.7 320.2 96.4L320.2 96.4Q320.0 95.9 319.6 95.6Q319.2 95.3 318.6 95.3Q318.0 95.3 317.6 95.6Q317.2 95.9 317.0 96.3L317.0 96.3Q316.8 96.7 316.8 97.2ZM324.3 101.1L324.3 101.1Q324.0 101.1 323.7 100.8Q323.5 100.6 323.5 100.3L323.5 100.3Q323.5 100.0 323.7 99.7Q324.0 99.5 324.3 99.5L324.3 99.5Q324.6 99.5 324.9 99.7Q325.1 100.0 325.1 100.3L325.1 100.3Q325.1 100.6 324.9 100.8Q324.6 101.1 324.3 101.1ZM327.5 101.5L327.5 94.4L328.5 94.4L328.5 101.5Q328.5 102.1 328.3 102.5Q328.1 103.0 327.7 103.2Q327.2 103.4 326.6 103.4L326.6 103.4L326.4 103.4L326.4 102.5L326.6 102.5Q327.0 102.5 327.2 102.2Q327.5 102.0 327.5 101.5L327.5 101.5ZM328.0 93.4L328.0 93.4Q327.7 93.4 327.5 93.2Q327.3 93.0 327.3 92.7L327.3 92.7Q327.3 92.4 327.5 92.2Q327.7 92.0 328.0 92.0L328.0 92.0Q328.3 92.0 328.5 92.2Q328.7 92.4 328.7 92.7L328.7 92.7Q328.7 93.0 328.5 93.2Q328.3 93.4 328.0 93.4ZM333.1 101.1L333.1 101.1Q332.4 101.1 331.9 100.9Q331.4 100.7 331.0 100.4Q330.7 100.0 330.6 99.4L330.6 99.4L331.6 99.2Q331.7 99.7 332.1 100.0Q332.5 100.2 333.1 100.2L333.1 100.2Q333.8 100.2 334.2 99.9Q334.6 99.6 334.6 99.2L334.6 99.2Q334.6 98.9 334.3 98.7Q334.1 98.4 333.6 98.3L333.6 98.3L332.5 98.1Q331.6 97.9 331.2 97.4Q330.8 97.0 330.8 96.3L330.8 96.3Q330.8 95.7 331.1 95.3Q331.4 94.9 332.0 94.6Q332.5 94.4 333.2 94.4L333.2 94.4Q333.9 94.4 334.3 94.6Q334.8 94.8 335.1 95.1Q335.4 95.5 335.6 95.9L335.6 95.9L334.6 96.2Q334.5 95.8 334.2 95.6Q333.8 95.3 333.2 95.3L333.2 95.3Q332.6 95.3 332.2 95.5Q331.8 95.8 331.8 96.2L331.8 96.2Q331.8 96.6 332.1 96.8Q332.4 97.0 332.9 97.2L332.9 97.2L333.9 97.4Q334.8 97.6 335.3 98.0Q335.7 98.5 335.7 99.2L335.7 99.2Q335.7 99.7 335.4 100.2Q335.0 100.6 334.4 100.9Q333.9 101.1 333.1 101.1Z "/></g><defs><clipPath id="satori_bc-id-2-3" clip-path="url(#satori_cp-id)"><path x="366" y="81" width="98" height="31" d="M381.5,81 h67 a15.5,15.5 0 0 1 15.5,15.5 v0 a15.5,15.5 0 0 1 -15.5,15.5 h-67 a15.5,15.5 0 0 1 -15.5,-15.5 v0 a15.5,15.5 0 0 1 15.5,-15.5"/></clipPath></defs><mask id="satori_om-id-2-3"><rect x="367" y="82" width="96" height="29" fill="#fff" mask="url(#satori_om-id)"/><path width="98" height="31" fill="none" stroke="#000" stroke-width="2" d="M370.54,85.53999999999999 A15.5,15.5 0 0 1 381.5,81 h67 a15.5,15.5 0 0 1 15.5,15.5 v0 a15.5,15.5 0 0 1 -15.5,15.5 h-67 a15.5,15.5 0 0 1 -15.5,-15.5 v0 A15.5,15.5 0 0 1 370.54,85.53999999999999"/></mask><path x="366" y="81" width="98" height="31" fill="rgba(255,255,255,0.04)" d="M381.5,81 h67 a15.5,15.5 0 0 1 15.5,15.5 v0 a15.5,15.5 0 0 1 -15.5,15.5 h-67 a15.5,15.5 0 0 1 -15.5,-15.5 v0 a15.5,15.5 0 0 1 15.5,-15.5" clip-path="url(#satori_cp-id)" mask="url(#satori_om-id)"/><path width="98" height="31" clip-path="url(#satori_bc-id-2-3)" fill="none" stroke="rgba(255,255,255,0.08)" stroke-width="2" d="M370.54,85.53999999999999 A15.5,15.5 0 0 1 381.5,81 h67 a15.5,15.5 0 0 1 15.5,15.5 v0 a15.5,15.5 0 0 1 -15.5,15.5 h-67 a15.5,15.5 0 0 1 -15.5,-15.5 v0 A15.5,15.5 0 0 1 370.54,85.53999999999999"/><g mask="url(#satori_om-id)" clip-path="url(#satori_cp-id)"><path fill="rgba(255,255,255,0.65)" d="M387.1 101L386.1 101L386.1 92.3L387.6 92.3L389.8 97.8Q389.9 98.0 390.0 98.3Q390.1 98.6 390.2 98.9Q390.3 99.2 390.4 99.6L390.4 99.6Q390.4 99.7 390.4 99.8L390.4 99.8Q390.5 99.7 390.5 99.6L390.5 99.6Q390.6 99.3 390.7 98.9Q390.8 98.6 390.9 98.3Q391 98.0 391.1 97.8L391.1 97.8L393.2 92.3L394.8 92.3L394.8 101L393.7 101L393.7 96.0Q393.7 95.7 393.7 95.4Q393.7 95.1 393.7 94.7Q393.7 94.3 393.7 93.9L393.7 93.9Q393.7 93.7 393.7 93.5L393.7 93.5Q393.7 93.7 393.6 94.0L393.6 94.0Q393.4 94.4 393.3 94.8Q393.2 95.2 393.1 95.5Q392.9 95.8 392.9 96.0L392.9 96.0L390.9 101L389.9 101L388.0 96.0Q387.9 95.8 387.8 95.5Q387.6 95.2 387.5 94.8Q387.4 94.4 387.2 94.0L387.2 94.0Q387.2 93.7 387.1 93.5L387.1 93.5Q387.1 93.7 387.1 93.8L387.1 93.8Q387.1 94.2 387.1 94.6Q387.1 95.0 387.1 95.4Q387.1 95.7 387.1 96.0L387.1 96.0L387.1 101ZM399.9 101.1L399.9 101.1Q399.0 101.1 398.4 100.7Q397.7 100.3 397.3 99.5Q396.9 98.8 396.9 97.8L396.9 97.8Q396.9 96.7 397.3 96.0Q397.7 95.2 398.4 94.8Q399.0 94.4 399.9 94.4L399.9 94.4Q400.8 94.4 401.5 94.8Q402.2 95.2 402.6 96.0Q402.9 96.7 402.9 97.8L402.9 97.8Q402.9 98.8 402.6 99.5Q402.2 100.3 401.5 100.7Q400.8 101.1 399.9 101.1ZM399.9 100.2L399.9 100.2Q400.6 100.2 401.0 99.9Q401.4 99.5 401.7 99.0Q401.9 98.4 401.9 97.8L401.9 97.8Q401.9 97.1 401.7 96.6Q401.4 96.0 401.0 95.7Q400.6 95.3 399.9 95.3L399.9 95.3Q399.3 95.3 398.9 95.7Q398.4 96.0 398.2 96.6Q398.0 97.1 398.0 97.8L398.0 97.8Q398.0 98.4 398.2 99.0Q398.4 99.5 398.9 99.9Q399.3 100.2 399.9 100.2ZM406.0 97.1L406.0 97.1L406.0 101L405.0 101L405.0 94.4L406.0 94.4L406.0 95.7Q406.3 95.0 406.7 94.7L406.7 94.7Q407.2 94.4 408.0 94.4L408.0 94.4Q408.6 94.4 409.1 94.6Q409.6 94.9 409.9 95.5Q410.2 96.0 410.2 96.8L410.2 96.8L410.2 101L409.1 101L409.1 96.9Q409.1 96.2 408.7 95.7Q408.4 95.3 407.7 95.3L407.7 95.3Q407.2 95.3 406.8 95.5Q406.4 95.7 406.2 96.1Q406.0 96.5 406.0 97.1ZM415.2 103.6L415.2 103.6Q414.5 103.6 413.9 103.4Q413.4 103.2 413.1 102.9Q412.7 102.6 412.5 102.3L412.5 102.3L413.4 101.7Q413.5 101.9 413.7 102.1Q413.9 102.3 414.3 102.5Q414.6 102.7 415.2 102.7L415.2 102.7Q416.0 102.7 416.5 102.3Q417.0 101.9 417.0 101.1L417.0 101.1L417.0 99.8L416.9 99.8Q416.8 100.0 416.6 100.2Q416.4 100.5 416.0 100.7Q415.6 100.9 415 100.9L415 100.9Q414.2 100.9 413.6 100.5Q413.0 100.2 412.6 99.4Q412.2 98.7 412.2 97.7L412.2 97.7Q412.2 96.7 412.6 95.9Q412.9 95.2 413.6 94.8Q414.2 94.4 415.0 94.4L415.0 94.4Q415.7 94.4 416.0 94.6Q416.4 94.8 416.6 95.1Q416.8 95.3 416.9 95.5L416.9 95.5L417.0 95.5L417.0 94.4L418.1 94.4L418.1 101.2Q418.1 102.0 417.7 102.5Q417.3 103.1 416.6 103.3Q416.0 103.6 415.2 103.6ZM415.2 100.0L415.2 100.0Q415.8 100.0 416.2 99.7Q416.6 99.4 416.8 98.9Q417.0 98.4 417.0 97.7L417.0 97.7Q417.0 97.0 416.8 96.4Q416.6 95.9 416.2 95.6Q415.8 95.3 415.2 95.3L415.2 95.3Q414.6 95.3 414.1 95.6Q413.7 95.9 413.5 96.5Q413.3 97.0 413.3 97.7L413.3 97.7Q413.3 98.3 413.5 98.9Q413.7 99.4 414.1 99.7Q414.6 100.0 415.2 100.0ZM423.1 101.1L423.1 101.1Q422.2 101.1 421.5 100.7Q420.8 100.3 420.5 99.5Q420.1 98.8 420.1 97.8L420.1 97.8Q420.1 96.7 420.5 96.0Q420.8 95.2 421.5 94.8Q422.2 94.4 423.1 94.4L423.1 94.4Q424.0 94.4 424.6 94.8Q425.3 95.2 425.7 96.0Q426.1 96.7 426.1 97.8L426.1 97.8Q426.1 98.8 425.7 99.5Q425.3 100.3 424.6 100.7Q424.0 101.1 423.1 101.1ZM423.1 100.2L423.1 100.2Q423.7 100.2 424.2 99.9Q424.6 99.5 424.8 99.0Q425.0 98.4 425.0 97.8L425.0 97.8Q425.0 97.1 424.8 96.6Q424.6 96.0 424.2 95.7Q423.7 95.3 423.1 95.3L423.1 95.3Q422.4 95.3 422.0 95.7Q421.6 96.0 421.4 96.6Q421.2 97.1 421.2 97.8L421.2 97.8Q421.2 98.4 421.4 99.0Q421.6 99.5 422.0 99.9Q422.4 100.2 423.1 100.2ZM431.0 101L431.0 101L428.2 101L428.2 92.3L431.1 92.3Q432.3 92.3 433.3 92.8Q434.2 93.3 434.6 94.3Q435.1 95.3 435.1 96.6L435.1 96.6Q435.1 98.0 434.6 99.0Q434.2 99.9 433.2 100.5Q432.3 101 431.0 101ZM429.3 93.3L429.3 100.0L430.9 100.0Q432.0 100.0 432.7 99.6Q433.4 99.2 433.7 98.4Q434.0 97.7 434.0 96.6L434.0 96.6Q434.0 95.6 433.7 94.8Q433.4 94.1 432.7 93.7Q432.0 93.3 431.0 93.3L431.0 93.3L429.3 93.3ZM440.6 101L437.4 101L437.4 92.3L440.5 92.3Q441.4 92.3 442.0 92.6Q442.6 92.9 442.9 93.4Q443.2 93.9 443.2 94.6L443.2 94.6Q443.2 95.1 443.0 95.5Q442.8 95.9 442.4 96.1Q442.1 96.3 441.7 96.4L441.7 96.4L441.7 96.5Q442.2 96.5 442.6 96.8Q443.0 97.0 443.2 97.5Q443.5 98.0 443.5 98.7L443.5 98.7Q443.5 99.3 443.2 99.9Q442.9 100.4 442.3 100.7Q441.6 101 440.6 101L440.6 101ZM438.5 97.0L438.5 100.0L440.6 100.0Q441.6 100.0 442.0 99.6Q442.4 99.2 442.4 98.7L442.4 98.7Q442.4 98.2 442.2 97.9Q442.0 97.5 441.6 97.3Q441.2 97.0 440.6 97.0L440.6 97.0L438.5 97.0ZM438.5 93.3L438.5 96.1L440.4 96.1Q440.9 96.1 441.3 95.9Q441.7 95.7 441.9 95.4Q442.1 95.1 442.1 94.6L442.1 94.6Q442.1 94.0 441.7 93.6Q441.3 93.3 440.5 93.3L440.5 93.3L438.5 93.3Z "/></g><defs><clipPath id="satori_bc-id-2-4" clip-path="url(#satori_cp-id)"><path x="474" y="81" width="82" height="31" d="M489.5,81 h51 a15.5,15.5 0 0 1 15.5,15.5 v0 a15.5,15.5 0 0 1 -15.5,15.5 h-51 a15.5,15.5 0 0 1 -15.5,-15.5 v0 a15.5,15.5 0 0 1 15.5,-15.5"/></clipPath></defs><mask id="satori_om-id-2-4"><rect x="475" y="82" width="80" height="29" fill="#fff" mask="url(#satori_om-id)"/><path width="82" height="31" fill="none" stroke="#000" stroke-width="2" d="M478.54,85.53999999999999 A15.5,15.5 0 0 1 489.5,81 h51 a15.5,15.5 0 0 1 15.5,15.5 v0 a15.5,15.5 0 0 1 -15.5,15.5 h-51 a15.5,15.5 0 0 1 -15.5,-15.5 v0 A15.5,15.5 0 0 1 478.54,85.53999999999999"/></mask><path x="474" y="81" width="82" height="31" fill="rgba(255,255,255,0.04)" d="M489.5,81 h51 a15.5,15.5 0 0 1 15.5,15.5 v0 a15.5,15.5 0 0 1 -15.5,15.5 h-51 a15.5,15.5 0 0 1 -15.5,-15.5 v0 a15.5,15.5 0 0 1 15.5,-15.5" clip-path="url(#satori_cp-id)" mask="url(#satori_om-id)"/><path width="82" height="31" clip-path="url(#satori_bc-id-2-4)" fill="none" stroke="rgba(255,255,255,0.08)" stroke-width="2" d="M478.54,85.53999999999999 A15.5,15.5 0 0 1 489.5,81 h51 a15.5,15.5 0 0 1 15.5,15.5 v0 a15.5,15.5 0 0 1 -15.5,15.5 h-51 a15.5,15.5 0 0 1 -15.5,-15.5 v0 A15.5,15.5 0 0 1 478.54,85.53999999999999"/><g mask="url(#satori_om-id)" clip-path="url(#satori_cp-id)"><path fill="rgba(255,255,255,0.65)" d="M495.2 101L494.1 101L494.1 92.3L495.4 92.3L498.9 97.9Q499.1 98.1 499.3 98.4Q499.5 98.8 499.7 99.2L499.7 99.2Q499.8 99.4 499.9 99.7L499.9 99.7Q499.9 99.4 499.9 99.1L499.9 99.1Q499.9 98.7 499.9 98.3Q499.9 97.9 499.9 97.6L499.9 97.6L499.9 92.3L501.0 92.3L501.0 101L499.7 101L496.5 96.0Q496.3 95.7 496.1 95.3Q495.8 95.0 495.6 94.4L495.6 94.4Q495.4 94.1 495.1 93.6L495.1 93.6Q495.1 94.0 495.1 94.4L495.1 94.4Q495.1 95.0 495.2 95.4Q495.2 95.8 495.2 96.0L495.2 96.0L495.2 101ZM506.2 101.1L506.2 101.1Q505.3 101.1 504.6 100.7Q503.9 100.3 503.5 99.5Q503.2 98.8 503.2 97.8Q503.2 96.8 503.5 96.0Q503.9 95.2 504.5 94.8Q505.2 94.4 506.1 94.4L506.1 94.4Q506.6 94.4 507.1 94.5Q507.6 94.7 508.0 95.1Q508.5 95.5 508.7 96.1Q509.0 96.7 509.0 97.6L509.0 97.6L509.0 98.1L504.2 98.1Q504.2 98.7 504.5 99.2L504.5 99.2Q504.7 99.7 505.2 99.9Q505.6 100.2 506.2 100.2L506.2 100.2Q506.6 100.2 506.9 100.1Q507.2 100.0 507.5 99.8Q507.7 99.5 507.8 99.2L507.8 99.2L508.8 99.5Q508.7 100.0 508.3 100.3Q508.0 100.7 507.4 100.9Q506.9 101.1 506.2 101.1ZM504.2 97.2L504.2 97.2L507.9 97.2Q507.8 96.7 507.7 96.4L507.7 96.4Q507.5 95.9 507.1 95.6Q506.7 95.3 506.1 95.3Q505.5 95.3 505.1 95.6Q504.7 95.9 504.4 96.3L504.4 96.3Q504.3 96.7 504.2 97.2ZM513.2 101.1L513.2 101.1Q512.5 101.1 512.0 100.9Q511.5 100.7 511.1 100.4Q510.8 100.0 510.7 99.4L510.7 99.4L511.7 99.2Q511.8 99.7 512.2 100.0Q512.6 100.2 513.2 100.2L513.2 100.2Q513.9 100.2 514.3 99.9Q514.7 99.6 514.7 99.2L514.7 99.2Q514.7 98.9 514.4 98.7Q514.2 98.4 513.7 98.3L513.7 98.3L512.6 98.1Q511.7 97.9 511.3 97.4Q510.9 97.0 510.9 96.3L510.9 96.3Q510.9 95.7 511.2 95.3Q511.5 94.9 512.0 94.6Q512.6 94.4 513.3 94.4L513.3 94.4Q514.0 94.4 514.4 94.6Q514.9 94.8 515.2 95.1Q515.5 95.5 515.7 95.9L515.7 95.9L514.7 96.2Q514.6 95.8 514.2 95.6Q513.9 95.3 513.3 95.3L513.3 95.3Q512.7 95.3 512.3 95.5Q511.9 95.8 511.9 96.2L511.9 96.2Q511.9 96.6 512.2 96.8Q512.5 97.0 513.0 97.2L513.0 97.2L514.0 97.4Q514.9 97.6 515.3 98.0Q515.8 98.5 515.8 99.2L515.8 99.2Q515.8 99.7 515.4 100.2Q515.1 100.6 514.5 100.9Q514.0 101.1 513.2 101.1ZM519.0 94.4L520.4 94.4L520.4 95.4L519.0 95.4L519.0 99.3Q519.0 99.7 519.2 99.9Q519.4 100.1 519.8 100.1L519.8 100.1Q519.9 100.1 520.1 100.1Q520.2 100.1 520.3 100.1L520.3 100.1L520.6 101.0Q520.4 101.0 520.2 101.1Q520.0 101.1 519.8 101.1L519.8 101.1Q518.9 101.1 518.4 100.6Q518.0 100.2 518.0 99.4L518.0 99.4L518.0 95.4L517.0 95.4L517.0 94.4L518.0 94.4L518.0 92.9L519.0 92.9L519.0 94.4ZM524.5 101.1L524.5 101.1Q523.3 101.1 522.6 100.4Q521.9 99.8 521.9 98.5L521.9 98.5L521.9 98.0L523.0 98.0L523.0 98.5Q523.0 99.3 523.4 99.7Q523.8 100.1 524.5 100.1L524.5 100.1Q525.2 100.1 525.6 99.7Q526.0 99.3 526.0 98.5L526.0 98.5L526.0 92.3L527.1 92.3L527.1 98.5Q527.1 99.8 526.4 100.4Q525.6 101.1 524.5 101.1ZM532.5 101.2L532.5 101.2Q531.6 101.2 530.9 100.8Q530.2 100.5 529.8 100.0Q529.4 99.4 529.3 98.7L529.3 98.7L530.5 98.7Q530.5 99.2 530.8 99.5Q531.1 99.8 531.5 100.0Q532.0 100.2 532.5 100.2L532.5 100.2Q533.1 100.2 533.6 100.0Q534.0 99.8 534.3 99.4Q534.6 99.1 534.6 98.6L534.6 98.6Q534.6 98.2 534.3 97.9Q534.1 97.7 533.7 97.5Q533.3 97.3 532.9 97.2L532.9 97.2L531.8 96.9Q530.7 96.6 530.2 96.0Q529.6 95.5 529.6 94.6L529.6 94.6Q529.6 93.9 530.0 93.3Q530.4 92.8 531.0 92.5Q531.7 92.2 532.6 92.2L532.6 92.2Q533.4 92.2 534.1 92.5Q534.8 92.8 535.1 93.3Q535.5 93.8 535.5 94.5L535.5 94.5L534.5 94.5Q534.4 93.8 533.8 93.5Q533.3 93.1 532.5 93.1L532.5 93.1Q532.0 93.1 531.5 93.3Q531.1 93.5 530.9 93.8Q530.7 94.1 530.7 94.6L530.7 94.6Q530.7 95.0 530.9 95.3Q531.2 95.6 531.6 95.7Q532.0 95.9 532.3 96.0L532.3 96.0L533.2 96.2Q533.5 96.3 534.0 96.5Q534.4 96.6 534.8 96.9Q535.2 97.2 535.4 97.6Q535.7 98.0 535.7 98.6L535.7 98.6Q535.7 99.3 535.3 99.9Q534.9 100.5 534.2 100.8Q533.5 101.2 532.5 101.2Z "/></g><defs><clipPath id="satori_bc-id-2-5" clip-path="url(#satori_cp-id)"><path x="566" y="81" width="73" height="31" d="M581.5,81 h42 a15.5,15.5 0 0 1 15.5,15.5 v0 a15.5,15.5 0 0 1 -15.5,15.5 h-42 a15.5,15.5 0 0 1 -15.5,-15.5 v0 a15.5,15.5 0 0 1 15.5,-15.5"/></clipPath></defs><mask id="satori_om-id-2-5"><rect x="567" y="82" width="71" height="29" fill="#fff" mask="url(#satori_om-id)"/><path width="73" height="31" fill="none" stroke="#000" stroke-width="2" d="M570.54,85.53999999999999 A15.5,15.5 0 0 1 581.5,81 h42 a15.5,15.5 0 0 1 15.5,15.5 v0 a15.5,15.5 0 0 1 -15.5,15.5 h-42 a15.5,15.5 0 0 1 -15.5,-15.5 v0 A15.5,15.5 0 0 1 570.54,85.53999999999999"/></mask><path x="566" y="81" width="73" height="31" fill="rgba(255,255,255,0.04)" d="M581.5,81 h42 a15.5,15.5 0 0 1 15.5,15.5 v0 a15.5,15.5 0 0 1 -15.5,15.5 h-42 a15.5,15.5 0 0 1 -15.5,-15.5 v0 a15.5,15.5 0 0 1 15.5,-15.5" clip-path="url(#satori_cp-id)" mask="url(#satori_om-id)"/><path width="73" height="31" clip-path="url(#satori_bc-id-2-5)" fill="none" stroke="rgba(255,255,255,0.08)" stroke-width="2" d="M570.54,85.53999999999999 A15.5,15.5 0 0 1 581.5,81 h42 a15.5,15.5 0 0 1 15.5,15.5 v0 a15.5,15.5 0 0 1 -15.5,15.5 h-42 a15.5,15.5 0 0 1 -15.5,-15.5 v0 A15.5,15.5 0 0 1 570.54,85.53999999999999"/><g mask="url(#satori_om-id)" clip-path="url(#satori_cp-id)"><path fill="rgba(255,255,255,0.65)" d="M587.2 101L586.1 101L586.1 92.3L589.0 92.3Q590.1 92.3 590.7 92.6Q591.4 93.0 591.7 93.6Q592.0 94.2 592.0 95.0Q592.0 95.7 591.7 96.3Q591.4 96.9 590.7 97.3L590.7 97.3Q590.6 97.4 590.4 97.4L590.4 97.4L592.4 101L591.1 101L589.3 97.6Q589.2 97.6 589.0 97.6L589.0 97.6L587.2 97.6L587.2 101ZM587.2 93.2L587.2 96.6L589.0 96.6Q589.7 96.6 590.1 96.4Q590.5 96.2 590.7 95.8Q590.9 95.5 590.9 95.0L590.9 95.0Q590.9 94.4 590.7 94.1Q590.5 93.7 590.1 93.5Q589.7 93.2 589.0 93.2L589.0 93.2L587.2 93.2ZM596.9 101.1L596.9 101.1Q596.0 101.1 595.3 100.7Q594.6 100.3 594.2 99.5Q593.8 98.8 593.8 97.8Q593.8 96.8 594.2 96.0Q594.6 95.2 595.2 94.8Q595.9 94.4 596.8 94.4L596.8 94.4Q597.3 94.4 597.8 94.5Q598.3 94.7 598.7 95.1Q599.1 95.5 599.4 96.1Q599.6 96.7 599.6 97.6L599.6 97.6L599.6 98.1L594.9 98.1Q594.9 98.7 595.2 99.2L595.2 99.2Q595.4 99.7 595.9 99.9Q596.3 100.2 596.9 100.2L596.9 100.2Q597.3 100.2 597.6 100.1Q597.9 100.0 598.2 99.8Q598.4 99.5 598.5 99.2L598.5 99.2L599.5 99.5Q599.4 100.0 599.0 100.3Q598.6 100.7 598.1 100.9Q597.6 101.1 596.9 101.1ZM594.9 97.2L594.9 97.2L598.6 97.2Q598.5 96.7 598.4 96.4L598.4 96.4Q598.2 95.9 597.8 95.6Q597.4 95.3 596.8 95.3Q596.2 95.3 595.8 95.6Q595.3 95.9 595.1 96.3L595.1 96.3Q594.9 96.7 594.9 97.2ZM603.5 101.2L603.5 101.2Q602.9 101.2 602.4 100.9Q601.8 100.7 601.5 100.2Q601.2 99.8 601.2 99.1L601.2 99.1Q601.2 98.6 601.5 98.2Q601.7 97.9 602.1 97.7Q602.4 97.5 602.9 97.4Q603.3 97.3 603.8 97.2L603.8 97.2Q604.4 97.1 604.8 97.1Q605.1 97.1 605.3 97.0Q605.5 96.9 605.5 96.6L605.5 96.6L605.5 96.6Q605.5 96.2 605.3 95.9Q605.2 95.6 604.9 95.4Q604.6 95.3 604.1 95.3L604.1 95.3Q603.6 95.3 603.3 95.4Q603.0 95.6 602.8 95.8Q602.6 96.0 602.4 96.3L602.4 96.3L601.4 95.9Q601.7 95.3 602.1 95.0Q602.5 94.6 603.1 94.5Q603.6 94.4 604.1 94.4L604.1 94.4Q604.4 94.4 604.8 94.4Q605.2 94.5 605.6 94.8Q606.0 95.0 606.3 95.5Q606.5 95.9 606.5 96.7L606.5 96.7L606.5 101L605.5 101L605.5 100.1L605.4 100.1Q605.3 100.3 605.1 100.6Q604.8 100.8 604.4 101.0Q604.0 101.2 603.5 101.2ZM603.7 100.2L603.7 100.2Q604.2 100.2 604.7 100.0Q605.1 99.8 605.3 99.4Q605.5 99.0 605.5 98.6L605.5 98.6L605.5 97.7Q605.4 97.8 605.2 97.9Q605.0 97.9 604.7 98.0Q604.4 98.0 604.2 98.0Q603.9 98.1 603.7 98.1L603.7 98.1Q603.4 98.1 603.0 98.3Q602.7 98.4 602.5 98.6Q602.3 98.8 602.3 99.2L602.3 99.2Q602.3 99.5 602.5 99.8Q602.7 100.0 603.0 100.1Q603.3 100.2 603.7 100.2ZM611.5 101.1L611.5 101.1Q610.7 101.1 610.0 100.7Q609.3 100.3 608.9 99.5Q608.6 98.8 608.6 97.8L608.6 97.8Q608.6 96.7 608.9 96.0Q609.3 95.2 610.0 94.8Q610.7 94.4 611.5 94.4L611.5 94.4Q612.0 94.4 612.4 94.5Q612.9 94.6 613.2 94.8Q613.6 95.1 613.8 95.4Q614.1 95.8 614.2 96.2L614.2 96.2L613.2 96.5Q613.1 96.2 613.0 96.0Q612.8 95.8 612.6 95.6Q612.4 95.5 612.1 95.4Q611.9 95.3 611.5 95.3L611.5 95.3Q610.9 95.3 610.5 95.7Q610.0 96.0 609.8 96.6Q609.6 97.1 609.6 97.8L609.6 97.8Q609.6 98.4 609.8 99.0Q610.0 99.5 610.5 99.9Q610.9 100.2 611.5 100.2L611.5 100.2Q611.9 100.2 612.2 100.1Q612.4 100.0 612.6 99.9Q612.9 99.7 613.0 99.5Q613.1 99.3 613.2 99.0L613.2 99.0L614.2 99.3Q614.1 99.7 613.8 100.1Q613.6 100.4 613.2 100.6Q612.9 100.9 612.5 101.0Q612.0 101.1 611.5 101.1ZM617.5 94.4L618.8 94.4L618.8 95.4L617.5 95.4L617.5 99.3Q617.5 99.7 617.6 99.9Q617.8 100.1 618.2 100.1L618.2 100.1Q618.3 100.1 618.5 100.1Q618.7 100.1 618.8 100.1L618.8 100.1L619.0 101.0Q618.8 101.0 618.6 101.1Q618.4 101.1 618.2 101.1L618.2 101.1Q617.4 101.1 616.9 100.6Q616.4 100.2 616.4 99.4L616.4 99.4L616.4 95.4L615.4 95.4L615.4 94.4L616.4 94.4L616.4 92.9L617.5 92.9L617.5 94.4Z "/></g><defs><clipPath id="satori_bc-id-2-6" clip-path="url(#satori_cp-id)"><path x="649" y="81" width="87" height="31" d="M664.5,81 h56 a15.5,15.5 0 0 1 15.5,15.5 v0 a15.5,15.5 0 0 1 -15.5,15.5 h-56 a15.5,15.5 0 0 1 -15.5,-15.5 v0 a15.5,15.5 0 0 1 15.5,-15.5"/></clipPath></defs><mask id="satori_om-id-2-6"><rect x="650" y="82" width="85" height="29" fill="#fff" mask="url(#satori_om-id)"/><path width="87" height="31" fill="none" stroke="#000" stroke-width="2" d="M653.54,85.53999999999999 A15.5,15.5 0 0 1 664.5,81 h56 a15.5,15.5 0 0 1 15.5,15.5 v0 a15.5,15.5 0 0 1 -15.5,15.5 h-56 a15.5,15.5 0 0 1 -15.5,-15.5 v0 A15.5,15.5 0 0 1 653.54,85.53999999999999"/></mask><path x="649" y="81" width="87" height="31" fill="rgba(255,255,255,0.04)" d="M664.5,81 h56 a15.5,15.5 0 0 1 15.5,15.5 v0 a15.5,15.5 0 0 1 -15.5,15.5 h-56 a15.5,15.5 0 0 1 -15.5,-15.5 v0 a15.5,15.5 0 0 1 15.5,-15.5" clip-path="url(#satori_cp-id)" mask="url(#satori_om-id)"/><path width="87" height="31" clip-path="url(#satori_bc-id-2-6)" fill="none" stroke="rgba(255,255,255,0.08)" stroke-width="2" d="M653.54,85.53999999999999 A15.5,15.5 0 0 1 664.5,81 h56 a15.5,15.5 0 0 1 15.5,15.5 v0 a15.5,15.5 0 0 1 -15.5,15.5 h-56 a15.5,15.5 0 0 1 -15.5,-15.5 v0 A15.5,15.5 0 0 1 653.54,85.53999999999999"/><g mask="url(#satori_om-id)" clip-path="url(#satori_cp-id)"><path fill="rgba(255,255,255,0.65)" d="M674.4 101L669.1 101L669.1 92.3L674.4 92.3L674.4 93.3L670.2 93.3L670.2 96.1L674.1 96.1L674.1 97.1L670.2 97.1L670.2 100.0L674.4 100.0L674.4 101ZM677.3 101L676.1 101L678.4 97.6L676.2 94.4L677.5 94.4L678.3 95.7Q678.6 96.2 678.8 96.6L678.8 96.6Q678.9 96.8 679.0 97.0L679.0 97.0Q679.1 96.8 679.2 96.6L679.2 96.6Q679.4 96.2 679.7 95.7L679.7 95.7L680.6 94.4L681.8 94.4L679.6 97.7L681.9 101L680.7 101L679.7 99.5Q679.4 99.0 679.2 98.6L679.2 98.6Q679.1 98.5 679.0 98.3L679.0 98.3Q678.9 98.5 678.8 98.6L678.8 98.6Q678.6 99.0 678.3 99.5L678.3 99.5L677.3 101ZM684.7 103.4L683.7 103.4L683.7 94.4L684.7 94.4L684.7 95.5L684.8 95.5Q684.9 95.3 685.1 95.1Q685.3 94.8 685.7 94.6Q686.1 94.4 686.7 94.4L686.7 94.4Q687.5 94.4 688.2 94.8Q688.8 95.2 689.1 95.9Q689.5 96.7 689.5 97.7L689.5 97.7Q689.5 98.8 689.2 99.5Q688.8 100.3 688.2 100.7Q687.6 101.1 686.7 101.1L686.7 101.1Q686.1 101.1 685.7 100.9Q685.3 100.7 685.1 100.4Q684.9 100.2 684.8 100.0L684.8 100.0L684.7 100.0L684.7 103.4ZM686.6 100.2L686.6 100.2Q687.2 100.2 687.6 99.9Q688.0 99.5 688.2 99.0Q688.4 98.4 688.4 97.7L688.4 97.7Q688.4 97.1 688.2 96.5Q688.0 96.0 687.6 95.6Q687.2 95.3 686.6 95.3L686.6 95.3Q686.0 95.3 685.6 95.6Q685.1 95.9 684.9 96.5Q684.7 97.0 684.7 97.7L684.7 97.7Q684.7 98.5 684.9 99.0Q685.2 99.6 685.6 99.9Q686.0 100.2 686.6 100.2ZM692.6 101L691.5 101L691.5 94.4L692.6 94.4L692.6 95.5L692.6 95.5Q692.8 95.0 693.3 94.7Q693.7 94.4 694.3 94.4L694.3 94.4Q694.4 94.4 694.6 94.4Q694.8 94.4 694.9 94.4L694.9 94.4L694.9 95.4Q694.8 95.4 694.6 95.4Q694.4 95.4 694.2 95.4L694.2 95.4Q693.8 95.4 693.4 95.6Q693.0 95.8 692.8 96.1Q692.6 96.5 692.6 96.9L692.6 96.9L692.6 101ZM699.3 101.1L699.3 101.1Q698.4 101.1 697.7 100.7Q697.0 100.3 696.6 99.5Q696.2 98.8 696.2 97.8Q696.2 96.8 696.6 96.0Q697.0 95.2 697.6 94.8Q698.3 94.4 699.2 94.4L699.2 94.4Q699.7 94.4 700.2 94.5Q700.7 94.7 701.1 95.1Q701.5 95.5 701.8 96.1Q702.0 96.7 702.0 97.6L702.0 97.6L702.0 98.1L697.3 98.1Q697.3 98.7 697.6 99.2L697.6 99.2Q697.8 99.7 698.3 99.9Q698.7 100.2 699.3 100.2L699.3 100.2Q699.7 100.2 700.0 100.1Q700.3 100.0 700.6 99.8Q700.8 99.5 700.9 99.2L700.9 99.2L701.9 99.5Q701.8 100.0 701.4 100.3Q701.1 100.7 700.5 100.9Q700.0 101.1 699.3 101.1ZM697.3 97.2L697.3 97.2L701.0 97.2Q700.9 96.7 700.8 96.4L700.8 96.4Q700.6 95.9 700.2 95.6Q699.8 95.3 699.2 95.3Q698.6 95.3 698.2 95.6Q697.8 95.9 697.5 96.3L697.5 96.3Q697.3 96.7 697.3 97.2ZM706.3 101.1L706.3 101.1Q705.6 101.1 705.1 100.9Q704.6 100.7 704.2 100.4Q703.9 100.0 703.8 99.4L703.8 99.4L704.8 99.2Q704.9 99.7 705.3 100.0Q705.7 100.2 706.3 100.2L706.3 100.2Q707.0 100.2 707.4 99.9Q707.8 99.6 707.8 99.2L707.8 99.2Q707.8 98.9 707.5 98.7Q707.3 98.4 706.8 98.3L706.8 98.3L705.7 98.1Q704.8 97.9 704.4 97.4Q704.0 97.0 704.0 96.3L704.0 96.3Q704.0 95.7 704.3 95.3Q704.6 94.9 705.1 94.6Q705.7 94.4 706.4 94.4L706.4 94.4Q707.1 94.4 707.5 94.6Q708 94.8 708.3 95.1Q708.6 95.5 708.7 95.9L708.7 95.9L707.8 96.2Q707.6 95.8 707.3 95.6Q707.0 95.3 706.4 95.3L706.4 95.3Q705.8 95.3 705.4 95.5Q705.0 95.8 705.0 96.2L705.0 96.2Q705.0 96.6 705.3 96.8Q705.6 97.0 706.1 97.2L706.1 97.2L707.1 97.4Q708.0 97.6 708.4 98.0Q708.9 98.5 708.9 99.2L708.9 99.2Q708.9 99.7 708.5 100.2Q708.2 100.6 707.6 100.9Q707.0 101.1 706.3 101.1ZM713.1 101.1L713.1 101.1Q712.4 101.1 711.9 100.9Q711.4 100.7 711.0 100.4Q710.7 100.0 710.6 99.4L710.6 99.4L711.6 99.2Q711.7 99.7 712.1 100.0Q712.5 100.2 713.1 100.2L713.1 100.2Q713.8 100.2 714.2 99.9Q714.6 99.6 714.6 99.2L714.6 99.2Q714.6 98.9 714.4 98.7Q714.1 98.4 713.6 98.3L713.6 98.3L712.5 98.1Q711.7 97.9 711.2 97.4Q710.8 97.0 710.8 96.3L710.8 96.3Q710.8 95.7 711.1 95.3Q711.4 94.9 712.0 94.6Q712.5 94.4 713.2 94.4L713.2 94.4Q713.9 94.4 714.4 94.6Q714.8 94.8 715.1 95.1Q715.4 95.5 715.6 95.9L715.6 95.9L714.6 96.2Q714.5 95.8 714.2 95.6Q713.9 95.3 713.2 95.3L713.2 95.3Q712.6 95.3 712.2 95.5Q711.9 95.8 711.9 96.2L711.9 96.2Q711.9 96.6 712.1 96.8Q712.4 97.0 713.0 97.2L713.0 97.2L713.9 97.4Q714.8 97.6 715.3 98.0Q715.7 98.5 715.7 99.2L715.7 99.2Q715.7 99.7 715.4 100.2Q715.0 100.6 714.5 100.9Q713.9 101.1 713.1 101.1Z "/></g><defs><clipPath id="satori_bc-id-2-7" clip-path="url(#satori_cp-id)"><path x="236" y="122" width="102" height="31" d="M251.5,122 h71 a15.5,15.5 0 0 1 15.5,15.5 v0 a15.5,15.5 0 0 1 -15.5,15.5 h-71 a15.5,15.5 0 0 1 -15.5,-15.5 v0 a15.5,15.5 0 0 1 15.5,-15.5"/></clipPath></defs><mask id="satori_om-id-2-7"><rect x="237" y="123" width="100" height="29" fill="#fff" mask="url(#satori_om-id)"/><path width="102" height="31" fill="none" stroke="#000" stroke-width="2" d="M240.54,126.53999999999999 A15.5,15.5 0 0 1 251.5,122 h71 a15.5,15.5 0 0 1 15.5,15.5 v0 a15.5,15.5 0 0 1 -15.5,15.5 h-71 a15.5,15.5 0 0 1 -15.5,-15.5 v0 A15.5,15.5 0 0 1 240.54,126.53999999999999"/></mask><path x="236" y="122" width="102" height="31" fill="rgba(255,255,255,0.04)" d="M251.5,122 h71 a15.5,15.5 0 0 1 15.5,15.5 v0 a15.5,15.5 0 0 1 -15.5,15.5 h-71 a15.5,15.5 0 0 1 -15.5,-15.5 v0 a15.5,15.5 0 0 1 15.5,-15.5" clip-path="url(#satori_cp-id)" mask="url(#satori_om-id)"/><path width="102" height="31" clip-path="url(#satori_bc-id-2-7)" fill="none" stroke="rgba(255,255,255,0.08)" stroke-width="2" d="M240.54,126.53999999999999 A15.5,15.5 0 0 1 251.5,122 h71 a15.5,15.5 0 0 1 15.5,15.5 v0 a15.5,15.5 0 0 1 -15.5,15.5 h-71 a15.5,15.5 0 0 1 -15.5,-15.5 v0 A15.5,15.5 0 0 1 240.54,126.53999999999999"/><g mask="url(#satori_om-id)" clip-path="url(#satori_cp-id)"><path fill="rgba(255,255,255,0.65)" d="M257.2 142L256.1 142L256.1 133.3L259.0 133.3Q260.1 133.3 260.7 133.6Q261.4 134.0 261.7 134.6Q262.0 135.2 262.0 136.0Q262.0 136.7 261.7 137.3Q261.4 137.9 260.7 138.3L260.7 138.3Q260.6 138.4 260.4 138.4L260.4 138.4L262.4 142L261.1 142L259.3 138.6Q259.2 138.6 259.0 138.6L259.0 138.6L257.2 138.6L257.2 142ZM257.2 134.2L257.2 137.6L259.0 137.6Q259.7 137.6 260.1 137.4Q260.5 137.2 260.7 136.8Q260.9 136.5 260.9 136.0L260.9 136.0Q260.9 135.4 260.7 135.1Q260.5 134.7 260.1 134.5Q259.7 134.2 259.0 134.2L259.0 134.2L257.2 134.2ZM269.7 142L264.3 142L264.3 133.3L269.6 133.3L269.6 134.3L265.4 134.3L265.4 137.1L269.3 137.1L269.3 138.1L265.4 138.1L265.4 141.0L269.7 141.0L269.7 142ZM274.8 142.2L274.8 142.2Q273.8 142.2 273.1 141.8Q272.5 141.5 272.1 141.0Q271.7 140.4 271.6 139.7L271.6 139.7L272.8 139.7Q272.8 140.2 273.1 140.5Q273.4 140.8 273.8 141.0Q274.3 141.2 274.8 141.2L274.8 141.2Q275.4 141.2 275.8 141.0Q276.3 140.8 276.6 140.4Q276.9 140.1 276.9 139.6L276.9 139.6Q276.9 139.2 276.6 138.9Q276.4 138.7 276.0 138.5Q275.6 138.3 275.1 138.2L275.1 138.2L274.1 137.9Q273.0 137.6 272.4 137.0Q271.9 136.5 271.9 135.6L271.9 135.6Q271.9 134.9 272.3 134.3Q272.7 133.8 273.3 133.5Q274.0 133.2 274.9 133.2L274.9 133.2Q275.7 133.2 276.4 133.5Q277.0 133.8 277.4 134.3Q277.8 134.8 277.8 135.5L277.8 135.5L276.7 135.5Q276.7 134.8 276.1 134.5Q275.6 134.1 274.8 134.1L274.8 134.1Q274.3 134.1 273.8 134.3Q273.4 134.5 273.2 134.8Q272.9 135.1 272.9 135.6L272.9 135.6Q272.9 136.0 273.2 136.3Q273.5 136.6 273.9 136.7Q274.3 136.9 274.6 137.0L274.6 137.0L275.5 137.2Q275.8 137.3 276.3 137.5Q276.7 137.6 277.1 137.9Q277.5 138.2 277.7 138.6Q278.0 139.0 278.0 139.6L278.0 139.6Q278.0 140.3 277.6 140.9Q277.2 141.5 276.5 141.8Q275.8 142.2 274.8 142.2ZM282.5 134.3L279.7 134.3L279.7 133.3L286.3 133.3L286.3 134.3L283.6 134.3L283.6 142L282.5 142L282.5 134.3Z M292.7 142L291.6 142L294.7 133.3L296.0 133.3L299.2 142L298.1 142L297.2 139.6L293.6 139.6L292.7 142ZM293.9 138.6L296.8 138.6L296.2 136.8Q296.0 136.3 295.8 135.6L295.8 135.6Q295.6 135.0 295.4 134.2L295.4 134.2Q295.1 135.0 294.9 135.6L294.9 135.6Q294.7 136.4 294.5 136.8L294.5 136.8L293.9 138.6ZM302.2 142L301.1 142L301.1 133.3L304.1 133.3Q305.1 133.3 305.8 133.6Q306.4 134.0 306.7 134.6Q307.1 135.3 307.1 136.0Q307.1 136.8 306.7 137.5Q306.4 138.1 305.8 138.5Q305.1 138.8 304.1 138.8L304.1 138.8L302.2 138.8L302.2 142ZM302.2 134.2L302.2 137.9L304.0 137.9Q304.7 137.9 305.1 137.6Q305.6 137.4 305.8 137.0Q305.9 136.6 305.9 136.0Q305.9 135.5 305.8 135.1Q305.6 134.7 305.1 134.5Q304.7 134.2 304.0 134.2L304.0 134.2L302.2 134.2ZM309.3 133.3L310.4 133.3L310.4 142L309.3 142L309.3 133.3ZM315.1 142.1L315.1 142.1Q314.4 142.1 313.9 141.9Q313.4 141.7 313.0 141.4Q312.7 141.0 312.6 140.4L312.6 140.4L313.6 140.2Q313.7 140.7 314.1 141.0Q314.5 141.2 315.1 141.2L315.1 141.2Q315.7 141.2 316.2 140.9Q316.6 140.6 316.6 140.2L316.6 140.2Q316.6 139.9 316.3 139.7Q316.1 139.4 315.6 139.3L315.6 139.3L314.5 139.1Q313.6 138.9 313.2 138.4Q312.8 138.0 312.8 137.3L312.8 137.3Q312.8 136.7 313.1 136.3Q313.4 135.9 313.9 135.6Q314.5 135.4 315.2 135.4L315.2 135.4Q315.9 135.4 316.3 135.6Q316.8 135.8 317.1 136.1Q317.4 136.5 317.5 136.9L317.5 136.9L316.6 137.2Q316.4 136.8 316.1 136.6Q315.8 136.3 315.2 136.3L315.2 136.3Q314.6 136.3 314.2 136.5Q313.8 136.8 313.8 137.2L313.8 137.2Q313.8 137.6 314.1 137.8Q314.3 138.0 314.9 138.2L314.9 138.2L315.9 138.4Q316.8 138.6 317.2 139.0Q317.7 139.5 317.7 140.2L317.7 140.2Q317.7 140.7 317.3 141.2Q317.0 141.6 316.4 141.9Q315.8 142.1 315.1 142.1Z "/></g><defs><clipPath id="satori_bc-id-2-8" clip-path="url(#satori_cp-id)"><path x="348" y="122" width="125" height="31" d="M363.5,122 h94 a15.5,15.5 0 0 1 15.5,15.5 v0 a15.5,15.5 0 0 1 -15.5,15.5 h-94 a15.5,15.5 0 0 1 -15.5,-15.5 v0 a15.5,15.5 0 0 1 15.5,-15.5"/></clipPath></defs><mask id="satori_om-id-2-8"><rect x="349" y="123" width="123" height="29" fill="#fff" mask="url(#satori_om-id)"/><path width="125" height="31" fill="none" stroke="#000" stroke-width="2" d="M352.54,126.53999999999999 A15.5,15.5 0 0 1 363.5,122 h94 a15.5,15.5 0 0 1 15.5,15.5 v0 a15.5,15.5 0 0 1 -15.5,15.5 h-94 a15.5,15.5 0 0 1 -15.5,-15.5 v0 A15.5,15.5 0 0 1 352.54,126.53999999999999"/></mask><path x="348" y="122" width="125" height="31" fill="rgba(255,255,255,0.04)" d="M363.5,122 h94 a15.5,15.5 0 0 1 15.5,15.5 v0 a15.5,15.5 0 0 1 -15.5,15.5 h-94 a15.5,15.5 0 0 1 -15.5,-15.5 v0 a15.5,15.5 0 0 1 15.5,-15.5" clip-path="url(#satori_cp-id)" mask="url(#satori_om-id)"/><path width="125" height="31" clip-path="url(#satori_bc-id-2-8)" fill="none" stroke="rgba(255,255,255,0.08)" stroke-width="2" d="M352.54,126.53999999999999 A15.5,15.5 0 0 1 363.5,122 h94 a15.5,15.5 0 0 1 15.5,15.5 v0 a15.5,15.5 0 0 1 -15.5,15.5 h-94 a15.5,15.5 0 0 1 -15.5,-15.5 v0 A15.5,15.5 0 0 1 352.54,126.53999999999999"/><g mask="url(#satori_om-id)" clip-path="url(#satori_cp-id)"><path fill="rgba(255,255,255,0.65)" d="M371.0 142L369.7 142L367.3 133.3L368.4 133.3L369.8 138.6Q369.9 139.1 370.0 139.5Q370.1 139.9 370.2 140.4L370.2 140.4Q370.3 140.7 370.3 141.0L370.3 141.0Q370.4 140.7 370.5 140.4L370.5 140.4Q370.5 139.9 370.7 139.5Q370.8 139.1 370.9 138.6L370.9 138.6L372.3 133.3L373.5 133.3L374.9 138.6Q375.1 139.1 375.2 139.5Q375.3 139.9 375.4 140.4L375.4 140.4Q375.4 140.7 375.5 140.9L375.5 140.9Q375.5 140.7 375.6 140.4L375.6 140.4Q375.7 139.9 375.8 139.5Q375.9 139.1 376.0 138.6L376.0 138.6L377.4 133.3L378.5 133.3L376.1 142L374.8 142L373.3 136.5Q373.2 135.9 373.1 135.3L373.1 135.3Q373.0 134.9 372.9 134.5L372.9 134.5Q372.8 134.9 372.8 135.2L372.8 135.2Q372.6 135.8 372.5 136.5L372.5 136.5L371.0 142ZM383.0 142.1L383.0 142.1Q382.1 142.1 381.4 141.7Q380.7 141.3 380.3 140.5Q379.9 139.8 379.9 138.8Q379.9 137.8 380.3 137.0Q380.7 136.2 381.3 135.8Q382.0 135.4 382.9 135.4L382.9 135.4Q383.4 135.4 383.9 135.5Q384.4 135.7 384.8 136.1Q385.2 136.5 385.5 137.1Q385.7 137.7 385.7 138.6L385.7 138.6L385.7 139.1L381 139.1Q381.0 139.7 381.3 140.2L381.3 140.2Q381.5 140.7 382.0 140.9Q382.4 141.2 383.0 141.2L383.0 141.2Q383.4 141.2 383.7 141.1Q384.0 141.0 384.3 140.8Q384.5 140.5 384.6 140.2L384.6 140.2L385.6 140.5Q385.5 141.0 385.1 141.3Q384.8 141.7 384.2 141.9Q383.7 142.1 383.0 142.1ZM381.0 138.2L381.0 138.2L384.7 138.2Q384.6 137.7 384.5 137.4L384.5 137.4Q384.3 136.9 383.9 136.6Q383.5 136.3 382.9 136.3Q382.3 136.3 381.9 136.6Q381.4 136.9 381.2 137.3L381.2 137.3Q381.0 137.7 381.0 138.2ZM390.8 142.1L390.8 142.1Q390.2 142.1 389.8 141.9Q389.4 141.7 389.2 141.4Q389.0 141.2 388.9 141.0L388.9 141.0L388.8 141.0L388.8 142L387.7 142L387.7 133.3L388.8 133.3L388.8 136.5L388.9 136.5Q389.0 136.3 389.2 136.1Q389.4 135.8 389.8 135.6Q390.1 135.4 390.8 135.4L390.8 135.4Q391.6 135.4 392.2 135.8Q392.8 136.2 393.2 136.9Q393.6 137.7 393.6 138.7L393.6 138.7Q393.6 139.8 393.2 140.5Q392.9 141.3 392.2 141.7Q391.6 142.1 390.8 142.1ZM390.6 141.2L390.6 141.2Q391.2 141.2 391.7 140.9Q392.1 140.5 392.3 140.0Q392.5 139.4 392.5 138.7L392.5 138.7Q392.5 138.1 392.3 137.5Q392.1 137.0 391.7 136.6Q391.3 136.3 390.6 136.3L390.6 136.3Q390.0 136.3 389.6 136.6Q389.2 136.9 389.0 137.5Q388.8 138.0 388.8 138.7L388.8 138.7Q388.8 139.5 389 140.0Q389.2 140.6 389.6 140.9Q390.0 141.2 390.6 141.2Z M402.4 142.2L402.4 142.2Q401.4 142.2 400.8 141.8Q400.1 141.5 399.7 141.0Q399.3 140.4 399.2 139.7L399.2 139.7L400.4 139.7Q400.4 140.2 400.7 140.5Q401.0 140.8 401.4 141.0Q401.9 141.2 402.4 141.2L402.4 141.2Q403.0 141.2 403.5 141.0Q403.9 140.8 404.2 140.4Q404.5 140.1 404.5 139.6L404.5 139.6Q404.5 139.2 404.2 138.9Q404.0 138.7 403.6 138.5Q403.2 138.3 402.8 138.2L402.8 138.2L401.7 137.9Q400.6 137.6 400.1 137.0Q399.5 136.5 399.5 135.6L399.5 135.6Q399.5 134.9 399.9 134.3Q400.3 133.8 400.9 133.5Q401.6 133.2 402.5 133.2L402.5 133.2Q403.3 133.2 404.0 133.5Q404.7 133.8 405.0 134.3Q405.4 134.8 405.4 135.5L405.4 135.5L404.4 135.5Q404.3 134.8 403.7 134.5Q403.2 134.1 402.4 134.1L402.4 134.1Q401.9 134.1 401.4 134.3Q401.0 134.5 400.8 134.8Q400.6 135.1 400.6 135.6L400.6 135.6Q400.6 136.0 400.8 136.3Q401.1 136.6 401.5 136.7Q401.9 136.9 402.2 137.0L402.2 137.0L403.1 137.2Q403.4 137.3 403.9 137.5Q404.3 137.6 404.7 137.9Q405.1 138.2 405.3 138.6Q405.6 139.0 405.6 139.6L405.6 139.6Q405.6 140.3 405.2 140.9Q404.8 141.5 404.1 141.8Q403.4 142.2 402.4 142.2ZM410.3 142.1L410.3 142.1Q409.4 142.1 408.8 141.7Q408.1 141.3 407.7 140.5Q407.4 139.8 407.4 138.8L407.4 138.8Q407.4 137.7 407.7 137.0Q408.1 136.2 408.8 135.8Q409.4 135.4 410.3 135.4L410.3 135.4Q410.8 135.4 411.2 135.5Q411.7 135.6 412.0 135.8Q412.3 136.1 412.6 136.4Q412.9 136.8 413.0 137.2L413.0 137.2L412.0 137.5Q411.9 137.2 411.8 137.0Q411.6 136.8 411.4 136.6Q411.2 136.5 410.9 136.4Q410.7 136.3 410.3 136.3L410.3 136.3Q409.7 136.3 409.3 136.7Q408.8 137.0 408.6 137.6Q408.4 138.1 408.4 138.8L408.4 138.8Q408.4 139.4 408.6 140.0Q408.8 140.5 409.3 140.9Q409.7 141.2 410.3 141.2L410.3 141.2Q410.7 141.2 410.9 141.1Q411.2 141.0 411.4 140.9Q411.6 140.7 411.8 140.5Q411.9 140.3 412.0 140.0L412.0 140.0L413.0 140.3Q412.9 140.7 412.6 141.1Q412.4 141.4 412.0 141.6Q411.7 141.9 411.2 142.0Q410.8 142.1 410.3 142.1ZM416.1 142L415.0 142L415.0 135.4L416.0 135.4L416.0 136.5L416.1 136.5Q416.3 136.0 416.8 135.7Q417.2 135.4 417.8 135.4L417.8 135.4Q417.9 135.4 418.1 135.4Q418.3 135.4 418.3 135.4L418.3 135.4L418.3 136.4Q418.3 136.4 418.1 136.4Q417.9 136.4 417.7 136.4L417.7 136.4Q417.2 136.4 416.9 136.6Q416.5 136.8 416.3 137.1Q416.1 137.5 416.1 137.9L416.1 137.9L416.1 142ZM421.9 142.2L421.9 142.2Q421.3 142.2 420.7 141.9Q420.2 141.7 419.9 141.2Q419.6 140.8 419.6 140.1L419.6 140.1Q419.6 139.6 419.9 139.2Q420.1 138.9 420.5 138.7Q420.8 138.5 421.3 138.4Q421.7 138.3 422.2 138.2L422.2 138.2Q422.8 138.1 423.1 138.1Q423.5 138.1 423.7 138.0Q423.9 137.9 423.9 137.6L423.9 137.6L423.9 137.6Q423.9 137.2 423.7 136.9Q423.6 136.6 423.3 136.4Q423.0 136.3 422.5 136.3L422.5 136.3Q422.0 136.3 421.7 136.4Q421.4 136.6 421.2 136.8Q420.9 137.0 420.8 137.3L420.8 137.3L419.8 136.9Q420.1 136.3 420.5 136.0Q420.9 135.6 421.5 135.5Q422.0 135.4 422.5 135.4L422.5 135.4Q422.8 135.4 423.2 135.4Q423.6 135.5 424.0 135.8Q424.4 136.0 424.7 136.5Q424.9 136.9 424.9 137.7L424.9 137.7L424.9 142L423.9 142L423.9 141.1L423.8 141.1Q423.7 141.3 423.5 141.6Q423.2 141.8 422.8 142.0Q422.4 142.2 421.9 142.2ZM422.1 141.2L422.1 141.2Q422.6 141.2 423.0 141.0Q423.5 140.8 423.7 140.4Q423.9 140.0 423.9 139.6L423.9 139.6L423.9 138.7Q423.8 138.8 423.6 138.9Q423.4 138.9 423.1 139.0Q422.8 139.0 422.6 139.0Q422.3 139.1 422.1 139.1L422.1 139.1Q421.8 139.1 421.4 139.3Q421.1 139.4 420.9 139.6Q420.7 139.8 420.7 140.2L420.7 140.2Q420.7 140.5 420.9 140.8Q421.1 141.0 421.4 141.1Q421.7 141.2 422.1 141.2ZM428.3 144.4L427.3 144.4L427.3 135.4L428.3 135.4L428.3 136.5L428.4 136.5Q428.5 136.3 428.7 136.1Q428.9 135.8 429.3 135.6Q429.7 135.4 430.3 135.4L430.3 135.4Q431.1 135.4 431.8 135.8Q432.4 136.2 432.7 136.9Q433.1 137.7 433.1 138.7L433.1 138.7Q433.1 139.8 432.7 140.5Q432.4 141.3 431.8 141.7Q431.1 142.1 430.3 142.1L430.3 142.1Q429.7 142.1 429.3 141.9Q428.9 141.7 428.7 141.4Q428.5 141.2 428.4 141.0L428.4 141.0L428.3 141.0L428.3 144.4ZM430.2 141.2L430.2 141.2Q430.8 141.2 431.2 140.9Q431.6 140.5 431.8 140.0Q432.0 139.4 432.0 138.7L432.0 138.7Q432.0 138.1 431.8 137.5Q431.6 137.0 431.2 136.6Q430.8 136.3 430.2 136.3L430.2 136.3Q429.6 136.3 429.1 136.6Q428.7 136.9 428.5 137.5Q428.3 138.0 428.3 138.7L428.3 138.7Q428.3 139.5 428.5 140.0Q428.7 140.6 429.2 140.9Q429.6 141.2 430.2 141.2ZM436.2 142L435.1 142L435.1 135.4L436.2 135.4L436.2 142ZM435.7 134.4L435.7 134.4Q435.4 134.4 435.1 134.2Q434.9 134.0 434.9 133.7L434.9 133.7Q434.9 133.4 435.1 133.2Q435.4 133.0 435.7 133.0L435.7 133.0Q436.0 133.0 436.2 133.2Q436.4 133.4 436.4 133.7L436.4 133.7Q436.4 134.0 436.2 134.2Q436.0 134.4 435.7 134.4ZM439.6 138.1L439.6 138.1L439.6 142L438.5 142L438.5 135.4L439.5 135.4L439.6 136.7Q439.8 136.0 440.3 135.7L440.3 135.7Q440.8 135.4 441.6 135.4L441.6 135.4Q442.2 135.4 442.7 135.6Q443.2 135.9 443.5 136.5Q443.8 137.0 443.8 137.8L443.8 137.8L443.8 142L442.7 142L442.7 137.9Q442.7 137.2 442.3 136.7Q441.9 136.3 441.2 136.3L441.2 136.3Q440.8 136.3 440.4 136.5Q440.0 136.7 439.8 137.1Q439.6 137.5 439.6 138.1ZM448.8 144.6L448.8 144.6Q448.1 144.6 447.5 144.4Q447.0 144.2 446.6 143.9Q446.3 143.6 446.1 143.3L446.1 143.3L446.9 142.7Q447.1 142.9 447.3 143.1Q447.5 143.3 447.8 143.5Q448.2 143.7 448.8 143.7L448.8 143.7Q449.6 143.7 450.1 143.3Q450.6 142.9 450.6 142.1L450.6 142.1L450.6 140.8L450.5 140.8Q450.4 141.0 450.2 141.2Q450.0 141.5 449.6 141.7Q449.2 141.9 448.6 141.9L448.6 141.9Q447.8 141.9 447.2 141.5Q446.5 141.2 446.2 140.4Q445.8 139.7 445.8 138.7L445.8 138.7Q445.8 137.7 446.2 136.9Q446.5 136.2 447.2 135.8Q447.8 135.4 448.6 135.4L448.6 135.4Q449.2 135.4 449.6 135.6Q450.0 135.8 450.2 136.1Q450.4 136.3 450.5 136.5L450.5 136.5L450.6 136.5L450.6 135.4L451.6 135.4L451.6 142.2Q451.6 143.0 451.3 143.5Q450.9 144.1 450.2 144.3Q449.6 144.6 448.8 144.6ZM448.7 141.0L448.7 141.0Q449.3 141.0 449.8 140.7Q450.2 140.4 450.4 139.9Q450.6 139.4 450.6 138.7L450.6 138.7Q450.6 138.0 450.4 137.4Q450.2 136.9 449.8 136.6Q449.4 136.3 448.7 136.3L448.7 136.3Q448.1 136.3 447.7 136.6Q447.3 136.9 447.1 137.5Q446.9 138.0 446.9 138.7L446.9 138.7Q446.9 139.3 447.1 139.9Q447.3 140.4 447.7 140.7Q448.1 141.0 448.7 141.0Z "/></g><defs><clipPath id="satori_bc-id-2-9" clip-path="url(#satori_cp-id)"><path x="483" y="122" width="82" height="31" d="M498.5,122 h51 a15.5,15.5 0 0 1 15.5,15.5 v0 a15.5,15.5 0 0 1 -15.5,15.5 h-51 a15.5,15.5 0 0 1 -15.5,-15.5 v0 a15.5,15.5 0 0 1 15.5,-15.5"/></clipPath></defs><mask id="satori_om-id-2-9"><rect x="484" y="123" width="80" height="29" fill="#fff" mask="url(#satori_om-id)"/><path width="82" height="31" fill="none" stroke="#000" stroke-width="2" d="M487.54,126.53999999999999 A15.5,15.5 0 0 1 498.5,122 h51 a15.5,15.5 0 0 1 15.5,15.5 v0 a15.5,15.5 0 0 1 -15.5,15.5 h-51 a15.5,15.5 0 0 1 -15.5,-15.5 v0 A15.5,15.5 0 0 1 487.54,126.53999999999999"/></mask><path x="483" y="122" width="82" height="31" fill="rgba(255,255,255,0.04)" d="M498.5,122 h51 a15.5,15.5 0 0 1 15.5,15.5 v0 a15.5,15.5 0 0 1 -15.5,15.5 h-51 a15.5,15.5 0 0 1 -15.5,-15.5 v0 a15.5,15.5 0 0 1 15.5,-15.5" clip-path="url(#satori_cp-id)" mask="url(#satori_om-id)"/><path width="82" height="31" clip-path="url(#satori_bc-id-2-9)" fill="none" stroke="rgba(255,255,255,0.08)" stroke-width="2" d="M487.54,126.53999999999999 A15.5,15.5 0 0 1 498.5,122 h51 a15.5,15.5 0 0 1 15.5,15.5 v0 a15.5,15.5 0 0 1 -15.5,15.5 h-51 a15.5,15.5 0 0 1 -15.5,-15.5 v0 A15.5,15.5 0 0 1 487.54,126.53999999999999"/><g mask="url(#satori_om-id)" clip-path="url(#satori_cp-id)"><path fill="rgba(255,255,255,0.65)" d="M505.8 142L505.8 142L503.1 142L503.1 133.3L505.9 133.3Q507.2 133.3 508.1 133.8Q509.0 134.3 509.5 135.3Q509.9 136.3 509.9 137.6L509.9 137.6Q509.9 139.0 509.5 140.0Q509.0 140.9 508.0 141.5Q507.1 142 505.8 142ZM504.2 134.3L504.2 141.0L505.7 141.0Q506.8 141.0 507.5 140.6Q508.2 140.2 508.5 139.4Q508.9 138.7 508.9 137.6L508.9 137.6Q508.9 136.6 508.5 135.8Q508.2 135.1 507.5 134.7Q506.8 134.3 505.8 134.3L505.8 134.3L504.2 134.3ZM514.8 142.1L514.8 142.1Q513.9 142.1 513.2 141.7Q512.5 141.3 512.1 140.5Q511.8 139.8 511.8 138.8L511.8 138.8Q511.8 137.7 512.1 137.0Q512.5 136.2 513.2 135.8Q513.9 135.4 514.8 135.4L514.8 135.4Q515.6 135.4 516.3 135.8Q517.0 136.2 517.4 137.0Q517.7 137.7 517.7 138.8L517.7 138.8Q517.7 139.8 517.4 140.5Q517.0 141.3 516.3 141.7Q515.6 142.1 514.8 142.1ZM514.8 141.2L514.8 141.2Q515.4 141.2 515.8 140.9Q516.3 140.5 516.5 140.0Q516.7 139.4 516.7 138.8L516.7 138.8Q516.7 138.1 516.5 137.6Q516.3 137.0 515.8 136.7Q515.4 136.3 514.8 136.3L514.8 136.3Q514.1 136.3 513.7 136.7Q513.3 137.0 513.0 137.6Q512.8 138.1 512.8 138.8L512.8 138.8Q512.8 139.4 513.0 140.0Q513.3 140.5 513.7 140.9Q514.1 141.2 514.8 141.2ZM522.4 142.1L522.4 142.1Q521.6 142.1 520.9 141.7Q520.2 141.3 519.8 140.5Q519.5 139.8 519.5 138.8L519.5 138.8Q519.5 137.7 519.8 137.0Q520.2 136.2 520.9 135.8Q521.6 135.4 522.4 135.4L522.4 135.4Q522.9 135.4 523.3 135.5Q523.8 135.6 524.1 135.8Q524.5 136.1 524.7 136.4Q525.0 136.8 525.1 137.2L525.1 137.2L524.1 137.5Q524.0 137.2 523.9 137.0Q523.7 136.8 523.5 136.6Q523.3 136.5 523.0 136.4Q522.8 136.3 522.4 136.3L522.4 136.3Q521.8 136.3 521.4 136.7Q520.9 137.0 520.7 137.6Q520.5 138.1 520.5 138.8L520.5 138.8Q520.5 139.4 520.7 140.0Q520.9 140.5 521.4 140.9Q521.8 141.2 522.4 141.2L522.4 141.2Q522.8 141.2 523.1 141.1Q523.3 141.0 523.5 140.9Q523.8 140.7 523.9 140.5Q524.0 140.3 524.1 140.0L524.1 140.0L525.1 140.3Q525.0 140.7 524.7 141.1Q524.5 141.4 524.1 141.6Q523.8 141.9 523.4 142.0Q522.9 142.1 522.4 142.1ZM528.2 142L527.1 142L527.1 133.3L528.2 133.3L528.2 138.3L528.3 138.3L531.1 135.4L532.4 135.4L529.7 138.3L532.6 142L531.3 142L528.9 138.9L528.2 139.6L528.2 142ZM537.0 142.1L537.0 142.1Q536.0 142.1 535.3 141.7Q534.7 141.3 534.3 140.5Q533.9 139.8 533.9 138.8Q533.9 137.8 534.3 137.0Q534.6 136.2 535.3 135.8Q536.0 135.4 536.9 135.4L536.9 135.4Q537.4 135.4 537.9 135.5Q538.4 135.7 538.8 136.1Q539.2 136.5 539.5 137.1Q539.7 137.7 539.7 138.6L539.7 138.6L539.7 139.1L535.0 139.1Q535.0 139.7 535.2 140.2L535.2 140.2Q535.5 140.7 535.9 140.9Q536.4 141.2 537.0 141.2L537.0 141.2Q537.4 141.2 537.7 141.1Q538.0 141.0 538.2 140.8Q538.5 140.5 538.6 140.2L538.6 140.2L539.6 140.5Q539.4 141.0 539.1 141.3Q538.7 141.7 538.2 141.9Q537.7 142.1 537.0 142.1ZM535.0 138.2L535.0 138.2L538.6 138.2Q538.6 137.7 538.4 137.4L538.4 137.4Q538.2 136.9 537.8 136.6Q537.4 136.3 536.9 136.3Q536.3 136.3 535.8 136.6Q535.4 136.9 535.2 137.3L535.2 137.3Q535.0 137.7 535.0 138.2ZM542.8 142L541.7 142L541.7 135.4L542.7 135.4L542.7 136.5L542.8 136.5Q543.0 136.0 543.5 135.7Q543.9 135.4 544.5 135.4L544.5 135.4Q544.6 135.4 544.8 135.4Q544.9 135.4 545.0 135.4L545.0 135.4L545.0 136.4Q545.0 136.4 544.8 136.4Q544.6 136.4 544.4 136.4L544.4 136.4Q543.9 136.4 543.6 136.6Q543.2 136.8 543.0 137.1Q542.8 137.5 542.8 137.9L542.8 137.9L542.8 142Z "/></g></svg>