<!-- Generated by readme-aura https://github.com/collectioneur/readme-aura -->
<svg width="800" height="360" viewBox="0 0 800 360" xmlns="http://www.w3.org/2000/svg"><clipPath id="satori_cp-id"><path x="0" y="0" width="800" height="360" d="M20,0 h760 a20,20 0 0 1 20,20 v320 a20,20 0 0 1 -20,20 h-760 a20,20 0 0 1 -20,-20 v-320 a20,20 0 0 1 20,-20"/></clipPath><mask id="satori_om-id"><rect x="0" y="0" width="800" height="360" fill="#fff"/></mask><path x="0" y="0" width="800" height="360" fill="#08080d" d="M20,0 h760 a20,20 0 0 1 20,20 v320 a20,20 0 0 1 -20,20 h-760 a20,20 0 0 1 -20,-20 v-320 a20,20 0 0 1 20,-20"/><clipPath id="satori_cp-id-0" clip-path="url(#satori_cp-id)"><rect x="0" y="0" width="800" height="360"/></clipPath><mask id="satori_om-id-0"><rect x="0" y="0" width="800" height="360" fill="#fff" mask="url(#satori_om-id)"/></mask><svg x="0" y="0" width="800" height="360" preserveAspectRatio="none" clip-path="url(#satori_cp-id-0)" mask="url(#satori_om-id-0)"><defs><radialGradient id="hg1" cx="50%" cy="50%" r="50%"><stop offset="0%" stop-color="rgba(80,160,220,0.55)"></stop><stop offset="100%" stop-color="rgba(80,160,220,0)"></stop></radialGradient><radialGradient id="hg2" cx="50%" cy="50%" r="50%"><stop offset="0%" stop-color="rgba(108,195,130,0.5)"></stop><stop offset="100%" stop-color="rgba(108,195,130,0)"></stop></radialGradient><radialGradient id="hg3" cx="50%" cy="50%" r="50%"><stop offset="0%" stop-color="rgba(195,155,255,0.35)"></stop><stop offset="100%" stop-color="rgba(195,155,255,0)"></stop></radialGradient><radialGradient id="hg4" cx="50%" cy="50%" r="50%"><stop offset="0%" stop-color="rgba(255,195,110,0.28)"></stop><stop offset="100%" stop-color="rgba(255,195,110,0)"></stop></radialGradient><radialGradient id="hg5" cx="50%" cy="50%" r="50%"><stop offset="0%" stop-color="rgba(230,100,115,0.3)"></stop><stop offset="100%" stop-color="rgba(230,100,115,0)"></stop></radialGradient></defs><ellipse id="hero-o1" cx="110" cy="310" rx="260" ry="200" fill="url(#hg1)"></ellipse><ellipse id="hero-o2" cx="710" cy="70" rx="230" ry="190" fill="url(#hg2)"></ellipse><ellipse id="hero-o3" cx="620" cy="330" rx="200" ry="160" fill="url(#hg3)"></ellipse><ellipse id="hero-o4" cx="200" cy="55" rx="190" ry="150" fill="url(#hg4)"></ellipse><ellipse id="hero-o5" cx="400" cy="340" rx="170" ry="130" fill="url(#hg5)"></ellipse><circle id="hr1" cx="400" cy="178" r="52" fill="none" stroke="rgba(255,255,255,0.9)" stroke-width="0.7"></circle><circle id="hr2" cx="400" cy="178" r="92" fill="none" stroke="rgba(255,255,255,0.9)" stroke-width="0.7"></circle><circle id="hr3" cx="400" cy="178" r="138" fill="none" stroke="rgba(255,255,255,0.9)" stroke-width="0.7"></circle><circle id="hr4" cx="400" cy="178" r="192" fill="none" stroke="rgba(255,255,255,0.9)" stroke-width="0.7"></circle><circle id="hr5" cx="400" cy="178" r="256" fill="none" stroke="rgba(255,255,255,0.9)" stroke-width="0.7"></circle><g id="hero-dot"><circle cx="400" cy="126" r="2.5" fill="rgba(255,255,255,0.5)"></circle></g><style>

    @keyframes orb-a { 0%, 100% { transform: translate(0, 0); opacity: 0.6; } 50% { transform: translate(28px, -22px); opacity: 0.9; } }
    @keyframes orb-b { 0%, 100% { transform: translate(0, 0); opacity: 0.5; } 50% { transform: translate(-22px, 18px); opacity: 0.75; } }
    @keyframes orb-c { 0%, 100% { transform: translate(0, 0); opacity: 0.35; } 50% { transform: translate(16px, -28px); opacity: 0.6; } }
    @keyframes ring-blink { 0%, 100% { opacity: 0.06; } 50% { opacity: 0.18; } }
    @keyframes ring-blink-b { 0%, 100% { opacity: 0.04; } 50% { opacity: 0.12; } }
    @keyframes dot-spin { 0% { transform: rotate(0deg); } 100% { transform: rotate(360deg); } }
    #hero-o1 { animation: orb-a 9s ease-in-out infinite; }
    #hero-o2 { animation: orb-b 11s ease-in-out infinite 0.8s; }
    #hero-o3 { animation: orb-a 8s ease-in-out infinite 2s; }
    #hero-o4 { animation: orb-b 13s ease-in-out infinite 0.4s; }
    #hero-o5 { animation: orb-c 7s ease-in-out infinite 1.2s; }
    #hr1 { animation: ring-blink 8s ease-in-out infinite; }
    #hr2 { animation: ring-blink 8s ease-in-out infinite 1.4s; }
    #hr3 { animation: ring-blink-b 8s ease-in-out infinite 2.8s; }
    #hr4 { animation: ring-blink-b 8s ease-in-out infinite 4.2s; }
    #hr5 { animation: ring-blink-b 10s ease-in-out infinite 5.6s; }
    #hero-dot { animation: dot-spin 20s linear infinite; }
  
</style>
</svg><mask id="satori_om-id-0-0"><rect x="0" y="0" width="0" height="360" fill="#fff" mask="url(#satori_om-id)"/></mask><mask id="satori_om-id-0-0-0"><rect x="0" y="0" width="0" height="360" fill="#fff" mask="url(#satori_om-id)"/></mask><mask id="satori_om-id-0-0-0-0"><rect x="0" y="0" width="0" height="360" fill="#fff" mask="url(#satori_om-id)"/></mask><mask id="satori_om-id-0-0-0-1"><rect x="0" y="0" width="0" height="360" fill="#fff" mask="url(#satori_om-id)"/></mask><mask id="satori_om-id-0-0-1"><rect x="0" y="0" width="0" height="360" fill="#fff" mask="url(#satori_om-id)"/></mask><mask id="satori_om-id-0-0-1-0"><rect x="0" y="0" width="0" height="360" fill="#fff" mask="url(#satori_om-id)"/></mask><mask id="satori_om-id-0-0-1-1"><rect x="0" y="0" width="0" height="360" fill="#fff" mask="url(#satori_om-id)"/></mask><mask id="satori_om-id-0-0-2"><rect x="0" y="0" width="0" height="360" fill="#fff" mask="url(#satori_om-id)"/></mask><mask id="satori_om-id-0-0-2-0"><rect x="0" y="0" width="0" height="360" fill="#fff" mask="url(#satori_om-id)"/></mask><mask id="satori_om-id-0-0-2-1"><rect x="0" y="0" width="0" height="360" fill="#fff" mask="url(#satori_om-id)"/></mask><mask id="satori_om-id-0-0-3"><rect x="0" y="0" width="0" height="360" fill="#fff" mask="url(#satori_om-id)"/></mask><mask id="satori_om-id-0-0-3-0"><rect x="0" y="0" width="0" height="360" fill="#fff" mask="url(#satori_om-id)"/></mask><mask id="satori_om-id-0-0-3-1"><rect x="0" y="0" width="0" height="360" fill="#fff" mask="url(#satori_om-id)"/></mask><mask id="satori_om-id-0-0-4"><rect x="0" y="0" width="0" height="360" fill="#fff" mask="url(#satori_om-id)"/></mask><mask id="satori_om-id-0-0-4-0"><rect x="0" y="0" width="0" height="360" fill="#fff" mask="url(#satori_om-id)"/></mask><mask id="satori_om-id-0-0-4-1"><rect x="0" y="0" width="0" height="360" fill="#fff" mask="url(#satori_om-id)"/></mask><mask id="satori_om-id-0-1"><rect x="0" y="0" width="0" height="360" fill="#fff" mask="url(#satori_om-id)"/></mask><mask id="satori_om-id-0-2"><rect x="0" y="0" width="0" height="360" fill="#fff" mask="url(#satori_om-id)"/></mask><mask id="satori_om-id-0-3"><rect x="0" y="0" width="0" height="360" fill="#fff" mask="url(#satori_om-id)"/></mask><mask id="satori_om-id-0-4"><rect x="0" y="0" width="0" height="360" fill="#fff" mask="url(#satori_om-id)"/></mask><mask id="satori_om-id-0-5"><rect x="0" y="0" width="0" height="360" fill="#fff" mask="url(#satori_om-id)"/></mask><mask id="satori_om-id-0-6"><rect x="0" y="0" width="0" height="360" fill="#fff" mask="url(#satori_om-id)"/></mask><mask id="satori_om-id-0-7"><rect x="0" y="0" width="0" height="360" fill="#fff" mask="url(#satori_om-id)"/></mask><mask id="satori_om-id-0-8"><rect x="0" y="0" width="0" height="360" fill="#fff" mask="url(#satori_om-id)"/></mask><mask id="satori_om-id-0-9"><rect x="0" y="0" width="0" height="360" fill="#fff" mask="url(#satori_om-id)"/></mask><mask id="satori_om-id-0-10"><rect x="0" y="0" width="0" height="360" fill="#fff" mask="url(#satori_om-id)"/></mask><mask id="satori_om-id-0-11"><rect x="0" y="0" width="0" height="360" fill="#fff" mask="url(#satori_om-id)"/></mask><mask id="satori_om-id-0-11-0"><rect x="0" y="0" width="0" height="360" fill="#fff" mask="url(#satori_om-id)"/></mask><mask id="satori_om-id-1"><rect x="115" y="107" width="570" height="147" fill="#fff" mask="url(#satori_om-id)"/></mask><mask id="satori_om-id-1-0"><rect x="255" y="107" width="290" height="60" fill="#fff" mask="url(#satori_om-id)"/></mask><g mask="url(#satori_om-id)" clip-path="url(#satori_cp-id)"><path fill="#ffffff" d="M288.2 159L259.0 159L259.0 115.3L288.2 115.3L288.2 122.8L267.9 122.8L267.9 133.3L286.6 133.3L286.6 140.6L267.9 140.6L267.9 151.6L288.2 151.6L288.2 159ZM311.5 159.6L311.5 159.6Q308.9 159.6 307.0 158.6Q305.2 157.7 304.0 156.4Q302.9 155.1 302.2 153.8L302.2 153.8L301.8 153.8L301.8 159L293.2 159L293.2 115.3L302.0 115.3L302.0 131.8L302.2 131.8Q302.9 130.5 304.0 129.1Q305.1 127.7 307.0 126.8Q308.8 125.8 311.6 125.8L311.6 125.8Q315.2 125.8 318.2 127.7Q321.3 129.6 323.1 133.3Q324.9 137.1 324.9 142.7L324.9 142.7Q324.9 148.1 323.1 151.9Q321.3 155.7 318.3 157.6Q315.3 159.6 311.5 159.6ZM308.8 152.5L308.8 152.5Q311.1 152.5 312.7 151.2Q314.3 150.0 315.1 147.8Q315.9 145.5 315.9 142.7L315.9 142.7Q315.9 139.8 315.1 137.6Q314.3 135.4 312.7 134.1Q311.2 132.9 308.8 132.9L308.8 132.9Q306.6 132.9 305.0 134.1Q303.4 135.3 302.6 137.5Q301.8 139.7 301.8 142.7L301.8 142.7Q301.8 145.6 302.6 147.8Q303.4 150.0 305.0 151.3Q306.6 152.5 308.8 152.5ZM337.8 159L329.0 159L329.0 126.2L337.8 126.2L337.8 159ZM333.4 122.0L333.4 122.0Q331.4 122.0 330.0 120.7Q328.6 119.3 328.6 117.5L328.6 117.5Q328.6 115.6 330.0 114.3Q331.4 112.9 333.4 112.9L333.4 112.9Q335.4 112.9 336.8 114.2Q338.2 115.6 338.2 117.5L338.2 117.5Q338.2 119.3 336.8 120.7Q335.4 122.0 333.4 122.0ZM352.1 140.0L352.1 140.0L352.1 159L343.3 159L343.3 126.2L351.6 126.2L351.7 133.0Q352.9 129.9 355.1 128.1L355.1 128.1Q357.7 125.8 361.9 125.8L361.9 125.8Q365.3 125.8 367.8 127.3Q370.3 128.8 371.7 131.6Q373.1 134.3 373.1 138.2L373.1 138.2L373.1 159L364.3 159L364.3 139.7Q364.3 136.6 362.8 134.9Q361.2 133.2 358.4 133.2L358.4 133.2Q356.6 133.2 355.1 134.0Q353.7 134.8 352.9 136.3Q352.1 137.8 352.1 140.0Z M409.5 159L391.0 159L391.0 115.3L408.4 115.3Q413.2 115.3 416.4 116.8Q419.6 118.2 421.2 120.8Q422.8 123.3 422.8 126.6L422.8 126.6Q422.8 129.1 421.7 131.1Q420.7 133.0 419.0 134.2Q417.2 135.4 414.9 135.9L414.9 135.9L414.9 136.4Q417.4 136.5 419.6 137.8Q421.7 139.1 423.1 141.4Q424.5 143.7 424.5 147.0L424.5 147.0Q424.5 150.4 422.8 153.1Q421.1 155.9 417.7 157.4Q414.4 159 409.5 159L409.5 159ZM400.0 139.8L400.0 151.6L407.7 151.6Q411.6 151.6 413.5 150.1Q415.3 148.6 415.3 146.1L415.3 146.1Q415.3 144.3 414.4 142.8Q413.5 141.4 411.8 140.6Q410.2 139.8 407.9 139.8L407.9 139.8L400.0 139.8ZM400.0 122.6L400.0 133.7L407.0 133.7Q408.9 133.7 410.5 133.0Q412.0 132.3 412.9 131.0Q413.7 129.8 413.7 128.0L413.7 128.0Q413.7 125.6 412.0 124.1Q410.4 122.6 407.2 122.6L407.2 122.6L400.0 122.6ZM443.3 159.6L443.3 159.6Q438.3 159.6 434.7 157.6Q431.1 155.5 429.1 151.8Q427.2 148.0 427.2 142.8L427.2 142.8Q427.2 137.7 429.1 133.9Q431.0 130.1 434.6 128.0Q438.1 125.8 442.9 125.8L442.9 125.8Q446.1 125.8 448.9 126.9Q451.7 127.9 453.8 130.0Q455.9 132.0 457.1 135.1Q458.3 138.2 458.3 142.4L458.3 142.4L458.3 144.9L435.9 144.9Q435.9 147.4 436.8 149.2L436.8 149.2Q437.8 151.1 439.5 152.1Q441.2 153.0 443.5 153.0L443.5 153.0Q445.0 153.0 446.3 152.6Q447.6 152.1 448.4 151.3Q449.3 150.4 449.8 149.2L449.8 149.2L457.8 150.7Q457.0 153.3 455.0 155.4Q453.1 157.4 450.1 158.5Q447.2 159.6 443.3 159.6ZM435.9 139.4L435.9 139.4L449.8 139.4Q449.6 137.8 449.1 136.4L449.1 136.4Q448.3 134.5 446.8 133.5Q445.2 132.5 443.0 132.5L443.0 132.5Q440.7 132.5 439.1 133.5Q437.5 134.6 436.7 136.4L436.7 136.4Q436.1 137.7 435.9 139.4ZM471.1 159L462.3 159L462.3 126.2L470.8 126.2L470.8 132.0L471.1 132.0Q472.0 128.9 474.2 127.4Q476.3 125.8 479.0 125.8L479.0 125.8Q479.7 125.8 480.5 125.9Q481.3 126.0 481.9 126.1L481.9 126.1L481.9 134.0Q481.3 133.7 480.2 133.6Q479.1 133.5 478.1 133.5L478.1 133.5Q476.1 133.5 474.5 134.4Q472.9 135.2 472.0 136.8Q471.1 138.3 471.1 140.4L471.1 140.4L471.1 159ZM484.7 115.3L493.5 115.3L493.5 159L484.7 159L484.7 115.3ZM507.8 159L499.0 159L499.0 126.2L507.8 126.2L507.8 159ZM503.4 122.0L503.4 122.0Q501.4 122.0 500.0 120.7Q498.6 119.3 498.6 117.5L498.6 117.5Q498.6 115.6 500.0 114.3Q501.4 112.9 503.4 112.9L503.4 112.9Q505.4 112.9 506.8 114.2Q508.2 115.6 508.2 117.5L508.2 117.5Q508.2 119.3 506.8 120.7Q505.4 122.0 503.4 122.0ZM522.0 140.0L522.0 140.0L522.0 159L513.2 159L513.2 126.2L521.5 126.2L521.6 133.0Q522.9 129.9 525.1 128.1L525.1 128.1Q527.7 125.8 531.8 125.8L531.8 125.8Q535.2 125.8 537.8 127.3Q540.3 128.8 541.7 131.6Q543.1 134.3 543.1 138.2L543.1 138.2L543.1 159L534.3 159L534.3 139.7Q534.3 136.6 532.7 134.9Q531.2 133.2 528.4 133.2L528.4 133.2Q526.5 133.2 525.1 134.0Q523.6 134.8 522.8 136.3Q522.0 137.8 522.0 140.0Z "/></g><mask id="satori_om-id-1-1"><rect x="115" y="183" width="570" height="16" fill="#fff" mask="url(#satori_om-id)"/></mask><g mask="url(#satori_om-id)" clip-path="url(#satori_cp-id)"><path fill="rgba(255,255,255,0.4)" d="M119.2 196.2L119.2 196.2Q118.1 196.2 117.4 195.8Q116.6 195.5 116.2 194.9Q115.8 194.3 115.7 193.5L115.7 193.5L117.0 193.5Q117.0 194.1 117.3 194.4Q117.6 194.7 118.1 194.9Q118.6 195.1 119.2 195.1L119.2 195.1Q119.8 195.1 120.3 194.9Q120.8 194.7 121.1 194.3Q121.4 193.9 121.4 193.4L121.4 193.4Q121.4 192.9 121.2 192.7Q120.9 192.4 120.5 192.2Q120.1 192.0 119.6 191.9L119.6 191.9L118.4 191.5Q117.3 191.2 116.6 190.6Q116.0 190.0 116.0 189.1L116.0 189.1Q116.0 188.3 116.4 187.7Q116.9 187.1 117.6 186.7Q118.3 186.4 119.3 186.4L119.3 186.4Q120.2 186.4 120.9 186.7Q121.6 187.1 122.0 187.6Q122.5 188.2 122.5 188.9L122.5 188.9L121.3 188.9Q121.2 188.2 120.6 187.9Q120.1 187.5 119.2 187.5L119.2 187.5Q118.6 187.5 118.1 187.7Q117.7 187.9 117.4 188.2Q117.2 188.6 117.2 189.0L117.2 189.0Q117.2 189.5 117.5 189.8Q117.8 190.1 118.2 190.3Q118.6 190.5 119.0 190.5L119.0 190.5L119.9 190.8Q120.3 190.9 120.8 191.1Q121.2 191.3 121.6 191.6Q122.1 191.9 122.3 192.3Q122.6 192.8 122.6 193.4L122.6 193.4Q122.6 194.2 122.2 194.8Q121.8 195.4 121.0 195.8Q120.3 196.2 119.2 196.2ZM133.3 196.1L133.3 196.1Q132.1 196.1 131.2 195.5Q130.2 195.0 129.7 193.9Q129.1 192.8 129.1 191.3L129.1 191.3Q129.1 189.8 129.7 188.7Q130.2 187.6 131.2 187.0Q132.1 186.4 133.3 186.4L133.3 186.4Q134.5 186.4 135.5 187.0Q136.4 187.6 137.0 188.7Q137.5 189.8 137.5 191.3L137.5 191.3Q137.5 192.8 137.0 193.9Q136.4 195.0 135.5 195.5Q134.5 196.1 133.3 196.1ZM133.3 195.0L133.3 195.0Q134.2 195.0 134.8 194.6Q135.5 194.2 135.9 193.3Q136.3 192.5 136.3 191.3L136.3 191.3Q136.3 190.1 135.9 189.2Q135.5 188.4 134.8 188.0Q134.2 187.5 133.3 187.5L133.3 187.5Q132.5 187.5 131.8 188.0Q131.1 188.4 130.7 189.2Q130.3 190.1 130.3 191.3L130.3 191.3Q130.3 192.5 130.7 193.3Q131.1 194.1 131.8 194.6Q132.5 195.0 133.3 195.0ZM145.6 196L144.4 196L144.4 186.5L150.1 186.5L150.1 187.6L145.6 187.6L145.6 190.8L149.7 190.8L149.7 191.9L145.6 191.9L145.6 196ZM159.6 187.6L156.6 187.6L156.6 186.5L163.7 186.5L163.7 187.6L160.8 187.6L160.8 196L159.6 196L159.6 187.6ZM173.7 196L172.3 196L169.7 186.5L170.9 186.5L172.4 192.3Q172.5 192.8 172.6 193.3Q172.7 193.8 172.8 194.3L172.8 194.3Q172.9 194.6 173.0 194.9L173.0 194.9Q173.0 194.6 173.1 194.3L173.1 194.3Q173.2 193.8 173.3 193.3Q173.4 192.8 173.5 192.3L173.5 192.3L175.1 186.5L176.4 186.5L178.0 192.3Q178.1 192.8 178.2 193.3Q178.3 193.8 178.4 194.3L178.4 194.3Q178.5 194.5 178.5 194.8L178.5 194.8Q178.6 194.5 178.6 194.3L178.6 194.3Q178.7 193.8 178.9 193.3Q179.0 192.8 179.1 192.3L179.1 192.3L180.6 186.5L181.8 186.5L179.2 196L177.8 196L176.2 190.0Q176.1 189.4 175.9 188.7L175.9 188.7Q175.8 188.4 175.7 187.9L175.7 187.9Q175.7 188.3 175.6 188.7L175.6 188.7Q175.5 189.3 175.3 190.0L175.3 190.0L173.7 196ZM188.8 196L187.5 196L190.9 186.5L192.3 186.5L195.8 196L194.5 196L193.6 193.4L189.7 193.4L188.8 196ZM190.1 192.3L193.2 192.3L192.5 190.4Q192.3 189.9 192.1 189.1L192.1 189.1Q191.9 188.4 191.6 187.5L191.6 187.5Q191.3 188.5 191.1 189.1L191.1 189.1Q190.9 189.9 190.7 190.4L190.7 190.4L190.1 192.3ZM203.5 196L202.3 196L202.3 186.5L205.5 186.5Q206.6 186.5 207.3 186.9Q208.0 187.3 208.4 188.0Q208.7 188.6 208.7 189.5Q208.7 190.3 208.4 191.0Q208.0 191.6 207.3 192.0L207.3 192.0Q207.2 192.1 207.0 192.1L207.0 192.1L209.1 196L207.7 196L205.7 192.3Q205.6 192.3 205.5 192.3L205.5 192.3L203.5 192.3L203.5 196ZM203.5 187.6L203.5 191.3L205.5 191.3Q206.2 191.3 206.7 191.0Q207.1 190.8 207.3 190.4Q207.5 190.0 207.5 189.5L207.5 189.5Q207.5 188.9 207.3 188.5Q207.1 188.1 206.7 187.8Q206.2 187.6 205.4 187.6L205.4 187.6L203.5 187.6ZM221.5 196L215.6 196L215.6 186.5L221.4 186.5L221.4 187.6L216.8 187.6L216.8 190.7L221.1 190.7L221.1 191.8L216.8 191.8L216.8 194.9L221.5 194.9L221.5 196Z M240.1 196L240.1 196L237.1 196L237.1 186.5L240.2 186.5Q241.6 186.5 242.5 187.1Q243.5 187.7 244.0 188.7Q244.6 189.8 244.6 191.3L244.6 191.3Q244.6 192.7 244.0 193.8Q243.5 194.9 242.5 195.4Q241.5 196 240.1 196ZM238.3 187.6L238.3 194.9L240.0 194.9Q241.1 194.9 241.9 194.5Q242.7 194.1 243.0 193.2Q243.4 192.4 243.4 191.3L243.4 191.3Q243.4 190.1 243.0 189.3Q242.7 188.5 241.9 188.0Q241.2 187.6 240.1 187.6L240.1 187.6L238.3 187.6ZM257.3 196L251.5 196L251.5 186.5L257.3 186.5L257.3 187.6L252.7 187.6L252.7 190.7L256.9 190.7L256.9 191.8L252.7 191.8L252.7 194.9L257.3 194.9L257.3 196ZM268.4 196L267.0 196L263.5 186.5L264.8 186.5L266.8 192.2Q266.9 192.6 267.2 193.4L267.2 193.4Q267.4 194.1 267.7 195.0L267.7 195.0Q267.9 194.1 268.1 193.4L268.1 193.4Q268.4 192.6 268.6 192.2L268.6 192.2L270.5 186.5L271.8 186.5L268.4 196ZM284.1 196L278.3 196L278.3 186.5L284.0 186.5L284.0 187.6L279.5 187.6L279.5 190.7L283.7 190.7L283.7 191.8L279.5 191.8L279.5 194.9L284.1 194.9L284.1 196ZM296.7 196L291.1 196L291.1 186.5L292.3 186.5L292.3 194.9L296.7 194.9L296.7 196ZM307.3 196.1L307.3 196.1Q306.1 196.1 305.1 195.5Q304.2 195.0 303.6 193.9Q303.1 192.8 303.1 191.3L303.1 191.3Q303.1 189.8 303.6 188.7Q304.2 187.6 305.1 187.0Q306.1 186.4 307.3 186.4L307.3 186.4Q308.5 186.4 309.4 187.0Q310.4 187.6 310.9 188.7Q311.5 189.8 311.5 191.3L311.5 191.3Q311.5 192.8 310.9 193.9Q310.4 195.0 309.4 195.5Q308.5 196.1 307.3 196.1ZM307.3 195.0L307.3 195.0Q308.1 195.0 308.8 194.6Q309.5 194.2 309.9 193.3Q310.3 192.5 310.3 191.3L310.3 191.3Q310.3 190.1 309.9 189.2Q309.5 188.4 308.8 188.0Q308.1 187.5 307.3 187.5L307.3 187.5Q306.4 187.5 305.7 188.0Q305.0 188.4 304.6 189.2Q304.2 190.1 304.2 191.3L304.2 191.3Q304.2 192.5 304.6 193.3Q305.0 194.1 305.7 194.6Q306.4 195.0 307.3 195.0ZM319.6 196L318.4 196L318.4 186.5L321.6 186.5Q322.7 186.5 323.4 186.9Q324.1 187.3 324.5 188.0Q324.8 188.7 324.8 189.6Q324.8 190.4 324.5 191.1Q324.1 191.8 323.4 192.2Q322.7 192.6 321.6 192.6L321.6 192.6L319.6 192.6L319.6 196ZM319.6 187.6L319.6 191.5L321.6 191.5Q322.3 191.5 322.8 191.3Q323.2 191.0 323.4 190.6Q323.6 190.1 323.6 189.6Q323.6 189.0 323.4 188.6Q323.2 188.1 322.8 187.9Q322.3 187.6 321.5 187.6L321.5 187.6L319.6 187.6ZM337.5 196L331.7 196L331.7 186.5L337.4 186.5L337.4 187.6L332.9 187.6L332.9 190.7L337.1 190.7L337.1 191.8L332.9 191.8L332.9 194.9L337.5 194.9L337.5 196ZM345.7 196L344.5 196L344.5 186.5L347.7 186.5Q348.8 186.5 349.5 186.9Q350.3 187.3 350.6 188.0Q351.0 188.6 351.0 189.5Q351.0 190.3 350.6 191.0Q350.3 191.6 349.6 192.0L349.6 192.0Q349.4 192.1 349.2 192.1L349.2 192.1L351.3 196L349.9 196L348.0 192.3Q347.8 192.3 347.7 192.3L347.7 192.3L345.7 192.3L345.7 196ZM345.7 187.6L345.7 191.3L347.7 191.3Q348.4 191.3 348.9 191.0Q349.3 190.8 349.5 190.4Q349.8 190.0 349.8 189.5L349.8 189.5Q349.8 188.9 349.5 188.5Q349.3 188.1 348.9 187.8Q348.4 187.6 347.7 187.6L347.7 187.6L345.7 187.6Z M367.2 192.4L367.2 192.4Q366.9 192.4 366.6 192.1Q366.4 191.9 366.4 191.5L366.4 191.5Q366.4 191.2 366.6 190.9Q366.9 190.6 367.2 190.6L367.2 190.6Q367.6 190.6 367.9 190.9Q368.1 191.2 368.1 191.5L368.1 191.5Q368.1 191.9 367.9 192.1Q367.6 192.4 367.2 192.4Z M387.4 196L383.9 196L383.9 186.5L387.3 186.5Q388.3 186.5 388.9 186.9Q389.5 187.2 389.9 187.8Q390.2 188.4 390.2 189.0L390.2 189.0Q390.2 189.7 390.0 190.1Q389.7 190.5 389.4 190.7Q389.0 190.9 388.6 191.0L388.6 191.0L388.6 191.1Q389.1 191.2 389.5 191.4Q390.0 191.7 390.2 192.2Q390.5 192.7 390.5 193.5L390.5 193.5Q390.5 194.2 390.2 194.8Q389.9 195.3 389.2 195.7Q388.5 196 387.4 196L387.4 196ZM385.1 191.7L385.1 194.9L387.3 194.9Q388.4 194.9 388.9 194.5Q389.4 194.1 389.4 193.5L389.4 193.5Q389.4 193.0 389.1 192.6Q388.9 192.2 388.5 192.0Q388.0 191.7 387.4 191.7L387.4 191.7L385.1 191.7ZM385.1 187.6L385.1 190.7L387.2 190.7Q387.7 190.7 388.1 190.5Q388.5 190.3 388.8 189.9Q389.0 189.6 389.0 189.1L389.0 189.1Q389.0 188.5 388.6 188.0Q388.2 187.6 387.2 187.6L387.2 187.6L385.1 187.6ZM401.1 196.2L401.1 196.2Q400.0 196.2 399.2 195.7Q398.3 195.3 397.9 194.5Q397.4 193.8 397.4 192.8L397.4 192.8L397.4 186.5L398.6 186.5L398.6 192.7Q398.6 193.4 398.9 193.9Q399.2 194.4 399.8 194.7Q400.3 195.0 401.1 195.0L401.1 195.0Q401.9 195.0 402.5 194.7Q403.0 194.4 403.3 193.9Q403.6 193.4 403.6 192.7L403.6 192.7L403.6 186.5L404.8 186.5L404.8 192.8Q404.8 193.8 404.4 194.5Q403.9 195.3 403.1 195.7Q402.2 196.2 401.1 196.2ZM412.1 186.5L413.3 186.5L413.3 196L412.1 196L412.1 186.5ZM426.2 196L420.6 196L420.6 186.5L421.8 186.5L421.8 194.9L426.2 194.9L426.2 196ZM435.9 196L435.9 196L432.9 196L432.9 186.5L436.0 186.5Q437.4 186.5 438.4 187.1Q439.4 187.7 439.9 188.7Q440.4 189.8 440.4 191.3L440.4 191.3Q440.4 192.7 439.9 193.8Q439.3 194.9 438.3 195.4Q437.3 196 435.9 196ZM434.1 187.6L434.1 194.9L435.8 194.9Q437.0 194.9 437.7 194.5Q438.5 194.1 438.9 193.2Q439.2 192.4 439.2 191.3L439.2 191.3Q439.2 190.1 438.9 189.3Q438.5 188.5 437.8 188.0Q437.0 187.6 435.9 187.6L435.9 187.6L434.1 187.6ZM453.1 196L447.3 196L447.3 186.5L453.1 186.5L453.1 187.6L448.5 187.6L448.5 190.7L452.8 190.7L452.8 191.8L448.5 191.8L448.5 194.9L453.1 194.9L453.1 196ZM461.3 196L460.1 196L460.1 186.5L463.4 186.5Q464.5 186.5 465.2 186.9Q465.9 187.3 466.2 188.0Q466.6 188.6 466.6 189.5Q466.6 190.3 466.2 191.0Q465.9 191.6 465.2 192.0L465.2 192.0Q465.0 192.1 464.8 192.1L464.8 192.1L467.0 196L465.6 196L463.6 192.3Q463.5 192.3 463.4 192.3L463.4 192.3L461.3 192.3L461.3 196ZM461.3 187.6L461.3 191.3L463.3 191.3Q464.1 191.3 464.5 191.0Q465.0 190.8 465.2 190.4Q465.4 190.0 465.4 189.5L465.4 189.5Q465.4 188.9 465.2 188.5Q465.0 188.1 464.5 187.8Q464.1 187.6 463.3 187.6L463.3 187.6L461.3 187.6Z M482.9 192.4L482.9 192.4Q482.5 192.4 482.3 192.1Q482.0 191.9 482.0 191.5L482.0 191.5Q482.0 191.2 482.3 190.9Q482.5 190.6 482.9 190.6L482.9 190.6Q483.2 190.6 483.5 190.9Q483.7 191.2 483.7 191.5L483.7 191.5Q483.7 191.9 483.5 192.1Q483.2 192.4 482.9 192.4Z M500.8 196L499.6 196L499.6 186.5L502.8 186.5Q503.9 186.5 504.6 186.9Q505.3 187.3 505.7 188.0Q506.0 188.7 506.0 189.6Q506.0 190.4 505.7 191.1Q505.3 191.8 504.6 192.2Q503.9 192.6 502.8 192.6L502.8 192.6L500.8 192.6L500.8 196ZM500.8 187.6L500.8 191.5L502.7 191.5Q503.5 191.5 503.9 191.3Q504.4 191.0 504.6 190.6Q504.8 190.1 504.8 189.6Q504.8 189.0 504.6 188.6Q504.4 188.1 503.9 187.9Q503.5 187.6 502.7 187.6L502.7 187.6L500.8 187.6ZM514.1 196L512.9 196L512.9 186.5L516.1 186.5Q517.2 186.5 517.9 186.9Q518.6 187.3 519.0 188.0Q519.3 188.6 519.3 189.5Q519.3 190.3 519.0 191.0Q518.6 191.6 517.9 192.0L517.9 192.0Q517.8 192.1 517.6 192.1L517.6 192.1L519.7 196L518.3 196L516.3 192.3Q516.2 192.3 516.1 192.3L516.1 192.3L514.1 192.3L514.1 196ZM514.1 187.6L514.1 191.3L516.0 191.3Q516.8 191.3 517.2 191.0Q517.7 190.8 517.9 190.4Q518.1 190.0 518.1 189.5L518.1 189.5Q518.1 188.9 517.9 188.5Q517.7 188.1 517.2 187.8Q516.8 187.6 516.0 187.6L516.0 187.6L514.1 187.6ZM530.1 196.1L530.1 196.1Q528.8 196.1 527.9 195.5Q526.9 195.0 526.4 193.9Q525.9 192.8 525.9 191.3L525.9 191.3Q525.9 189.8 526.4 188.7Q526.9 187.6 527.9 187.0Q528.8 186.4 530.1 186.4L530.1 186.4Q531.3 186.4 532.2 187.0Q533.2 187.6 533.7 188.7Q534.2 189.8 534.2 191.3L534.2 191.3Q534.2 192.8 533.7 193.9Q533.2 195.0 532.2 195.5Q531.3 196.1 530.1 196.1ZM530.1 195.0L530.1 195.0Q530.9 195.0 531.6 194.6Q532.3 194.2 532.7 193.3Q533.1 192.5 533.1 191.3L533.1 191.3Q533.1 190.1 532.7 189.2Q532.3 188.4 531.6 188.0Q530.9 187.5 530.1 187.5L530.1 187.5Q529.2 187.5 528.5 188.0Q527.8 188.4 527.4 189.2Q527.0 190.1 527.0 191.3L527.0 191.3Q527.0 192.5 527.4 193.3Q527.8 194.1 528.5 194.6Q529.2 195.0 530.1 195.0ZM544.6 196L541.2 196L541.2 186.5L544.5 186.5Q545.5 186.5 546.2 186.9Q546.8 187.2 547.1 187.8Q547.4 188.4 547.4 189.0L547.4 189.0Q547.4 189.7 547.2 190.1Q547.0 190.5 546.6 190.7Q546.3 190.9 545.9 191.0L545.9 191.0L545.9 191.1Q546.3 191.2 546.8 191.4Q547.2 191.7 547.5 192.2Q547.8 192.7 547.8 193.5L547.8 193.5Q547.8 194.2 547.5 194.8Q547.1 195.3 546.4 195.7Q545.7 196 544.6 196L544.6 196ZM542.4 191.7L542.4 194.9L544.6 194.9Q545.7 194.9 546.2 194.5Q546.6 194.1 546.6 193.5L546.6 193.5Q546.6 193.0 546.4 192.6Q546.1 192.2 545.7 192.0Q545.3 191.7 544.7 191.7L544.7 191.7L542.4 191.7ZM542.4 187.6L542.4 190.7L544.5 190.7Q545.0 190.7 545.4 190.5Q545.8 190.3 546.0 189.9Q546.3 189.6 546.3 189.1L546.3 189.1Q546.3 188.5 545.8 188.0Q545.4 187.6 544.5 187.6L544.5 187.6L542.4 187.6ZM560.3 196L554.7 196L554.7 186.5L555.9 186.5L555.9 194.9L560.3 194.9L560.3 196ZM572.8 196L567.0 196L567.0 186.5L572.8 186.5L572.8 187.6L568.2 187.6L568.2 190.7L572.5 190.7L572.5 191.8L568.2 191.8L568.2 194.9L572.8 194.9L572.8 196ZM581.0 196L579.8 196L579.8 186.5L581.6 186.5L583.9 192.5Q584.0 192.7 584.1 193.0Q584.2 193.3 584.3 193.7Q584.4 194.1 584.5 194.4L584.5 194.4Q584.5 194.6 584.6 194.7L584.6 194.7Q584.6 194.6 584.6 194.5L584.6 194.5Q584.7 194.1 584.9 193.7Q585.0 193.4 585.1 193.0Q585.2 192.7 585.3 192.5L585.3 192.5L587.6 186.5L589.3 186.5L589.3 196L588.1 196L588.1 190.6Q588.1 190.3 588.1 189.9Q588.1 189.6 588.1 189.1Q588.1 188.7 588.1 188.3L588.1 188.3Q588.1 188.1 588.2 187.8L588.2 187.8Q588.1 188.1 588.0 188.4L588.0 188.4Q587.8 188.8 587.7 189.2Q587.5 189.7 587.4 190.0Q587.3 190.4 587.2 190.6L587.2 190.6L585.1 196L584.0 196L581.9 190.6Q581.8 190.4 581.7 190.0Q581.6 189.7 581.4 189.3Q581.3 188.9 581.1 188.4L581.1 188.4Q581.0 188.1 580.9 187.8L580.9 187.8Q580.9 188.0 581.0 188.2L581.0 188.2Q581.0 188.7 581.0 189.1Q581.0 189.5 581.0 189.9Q581.0 190.3 581.0 190.6L581.0 190.6L581.0 196Z M608.3 196.2L608.3 196.2Q607.2 196.2 606.5 195.8Q605.7 195.5 605.3 194.9Q604.9 194.3 604.8 193.5L604.8 193.5L606.1 193.5Q606.1 194.1 606.4 194.4Q606.7 194.7 607.2 194.9Q607.7 195.1 608.3 195.1L608.3 195.1Q608.9 195.1 609.4 194.9Q609.9 194.7 610.2 194.3Q610.5 193.9 610.5 193.4L610.5 193.4Q610.5 192.9 610.3 192.7Q610.0 192.4 609.6 192.2Q609.2 192.0 608.7 191.9L608.7 191.9L607.5 191.5Q606.4 191.2 605.7 190.6Q605.1 190.0 605.1 189.1L605.1 189.1Q605.1 188.3 605.5 187.7Q606.0 187.1 606.7 186.7Q607.4 186.4 608.3 186.4L608.3 186.4Q609.3 186.4 610.0 186.7Q610.7 187.1 611.1 187.6Q611.5 188.2 611.6 188.9L611.6 188.9L610.4 188.9Q610.3 188.2 609.7 187.9Q609.2 187.5 608.3 187.5L608.3 187.5Q607.7 187.5 607.2 187.7Q606.8 187.9 606.5 188.2Q606.3 188.6 606.3 189.0L606.3 189.0Q606.3 189.5 606.6 189.8Q606.9 190.1 607.3 190.3Q607.7 190.5 608.1 190.5L608.1 190.5L609.0 190.8Q609.4 190.9 609.9 191.1Q610.3 191.3 610.7 191.6Q611.2 191.9 611.4 192.3Q611.7 192.8 611.7 193.4L611.7 193.4Q611.7 194.2 611.3 194.8Q610.9 195.4 610.1 195.8Q609.4 196.2 608.3 196.2ZM622.4 196.1L622.4 196.1Q621.2 196.1 620.2 195.5Q619.3 195.0 618.8 193.9Q618.2 192.8 618.2 191.3L618.2 191.3Q618.2 189.8 618.8 188.7Q619.3 187.6 620.2 187.0Q621.2 186.4 622.4 186.4L622.4 186.4Q623.6 186.4 624.6 187.0Q625.5 187.6 626.1 188.7Q626.6 189.8 626.6 191.3L626.6 191.3Q626.6 192.8 626.1 193.9Q625.5 195.0 624.6 195.5Q623.6 196.1 622.4 196.1ZM622.4 195.0L622.4 195.0Q623.3 195.0 623.9 194.6Q624.6 194.2 625.0 193.3Q625.4 192.5 625.4 191.3L625.4 191.3Q625.4 190.1 625.0 189.2Q624.6 188.4 623.9 188.0Q623.3 187.5 622.4 187.5L622.4 187.5Q621.6 187.5 620.9 188.0Q620.2 188.4 619.8 189.2Q619.4 190.1 619.4 191.3L619.4 191.3Q619.4 192.5 619.8 193.3Q620.2 194.1 620.9 194.6Q621.6 195.0 622.4 195.0ZM639.1 196L633.5 196L633.5 186.5L634.7 186.5L634.7 194.9L639.1 194.9L639.1 196ZM649.9 196L648.5 196L645.1 186.5L646.3 186.5L648.3 192.2Q648.5 192.6 648.8 193.4L648.8 193.4Q649.0 194.1 649.2 195.0L649.2 195.0Q649.5 194.1 649.7 193.4L649.7 193.4Q650.0 192.6 650.1 192.2L650.1 192.2L652.1 186.5L653.4 186.5L649.9 196ZM665.7 196L659.8 196L659.8 186.5L665.6 186.5L665.6 187.6L661.0 187.6L661.0 190.7L665.3 190.7L665.3 191.8L661.0 191.8L661.0 194.9L665.7 194.9L665.7 196ZM673.9 196L672.7 196L672.7 186.5L675.9 186.5Q677.0 186.5 677.7 186.9Q678.4 187.3 678.8 188.0Q679.1 188.6 679.1 189.5Q679.1 190.3 678.8 191.0Q678.4 191.6 677.7 192.0L677.7 192.0Q677.5 192.1 677.4 192.1L677.4 192.1L679.5 196L678.1 196L676.1 192.3Q676.0 192.3 675.9 192.3L675.9 192.3L673.9 192.3L673.9 196ZM673.9 187.6L673.9 191.3L675.8 191.3Q676.6 191.3 677.0 191.0Q677.5 190.8 677.7 190.4Q677.9 190.0 677.9 189.5L677.9 189.5Q677.9 188.9 677.7 188.5Q677.5 188.1 677.0 187.8Q676.6 187.6 675.8 187.6L675.8 187.6L673.9 187.6Z "/></g><mask id="satori_om-id-1-2"><rect x="250" y="229" width="301" height="25" fill="#fff" mask="url(#satori_om-id)"/></mask><defs><clipPath id="satori_bc-id-1-2-0" clip-path="url(#satori_cp-id)"><path x="250" y="229" width="77" height="25" d="M262.5,229 h52 a12.5,12.5 0 0 1 12.5,12.5 v0 a12.5,12.5 0 0 1 -12.5,12.5 h-52 a12.5,12.5 0 0 1 -12.5,-12.5 v0 a12.5,12.5 0 0 1 12.5,-12.5"/></clipPath></defs><mask id="satori_om-id-1-2-0"><rect x="251" y="230" width="75" height="23" fill="#fff" mask="url(#satori_om-id)"/><path width="77" height="25" fill="none" stroke="#000" stroke-width="2" d="M253.661,232.661 A12.5,12.5 0 0 1 262.5,229 h52 a12.5,12.5 0 0 1 12.5,12.5 v0 a12.5,12.5 0 0 1 -12.5,12.5 h-52 a12.5,12.5 0 0 1 -12.5,-12.5 v0 A12.5,12.5 0 0 1 253.661,232.661"/></mask><path x="250" y="229" width="77" height="25" fill="rgba(255,255,255,0.04)" d="M262.5,229 h52 a12.5,12.5 0 0 1 12.5,12.5 v0 a12.5,12.5 0 0 1 -12.5,12.5 h-52 a12.5,12.5 0 0 1 -12.5,-12.5 v0 a12.5,12.5 0 0 1 12.5,-12.5" clip-path="url(#satori_cp-id)" mask="url(#satori_om-id)"/><path width="77" height="25" clip-path="url(#satori_bc-id-1-2-0)" fill="none" stroke="rgba(255,255,255,0.09)" stroke-width="2" d="M253.661,232.661 A12.5,12.5 0 0 1 262.5,229 h52 a12.5,12.5 0 0 1 12.5,12.5 v0 a12.5,12.5 0 0 1 -12.5,12.5 h-52 a12.5,12.5 0 0 1 -12.5,-12.5 v0 A12.5,12.5 0 0 1 253.661,232.661"/><g mask="url(#satori_om-id)" clip-path="url(#satori_cp-id)"><path fill="rgba(255,255,255,0.55)" d="M268.8 248.2L267.8 248.2L267.8 240.0L268.8 240.0L268.8 241.0L268.9 241.0Q269.0 240.8 269.2 240.6Q269.4 240.3 269.7 240.1Q270.0 239.9 270.6 239.9L270.6 239.9Q271.4 239.9 272.0 240.3Q272.5 240.7 272.9 241.4Q273.2 242.1 273.2 243.0L273.2 243.0Q273.2 244.0 272.9 244.7Q272.5 245.4 272.0 245.7Q271.4 246.1 270.6 246.1L270.6 246.1Q270.1 246.1 269.7 245.9Q269.4 245.7 269.2 245.5Q269.0 245.2 268.9 245.1L268.9 245.1L268.8 245.1L268.8 248.2ZM270.5 245.3L270.5 245.3Q271.1 245.3 271.4 245.0Q271.8 244.7 272.0 244.1Q272.2 243.6 272.2 243.0L272.2 243.0Q272.2 242.4 272.0 241.9Q271.8 241.4 271.4 241.1Q271.1 240.8 270.5 240.8L270.5 240.8Q269.9 240.8 269.6 241.1Q269.2 241.3 269.0 241.8Q268.8 242.3 268.8 243.0L268.8 243.0Q268.8 243.7 269.0 244.2Q269.2 244.7 269.6 245.0Q269.9 245.3 270.5 245.3ZM275.5 248.2L275.5 248.2L275.7 247.3L275.8 247.4Q276.1 247.4 276.4 247.4Q276.6 247.4 276.8 247.2Q277.0 247.0 277.1 246.5L277.1 246.5L277.3 246.0L275.0 240.0L276.1 240.0L277.4 243.6Q277.6 244.1 277.7 244.7L277.7 244.7Q277.8 244.9 277.8 245.1L277.8 245.1Q277.9 244.9 277.9 244.7L277.9 244.7Q278.1 244.1 278.3 243.6L278.3 243.6L279.6 240.0L280.6 240.0L278.0 246.9Q277.8 247.4 277.6 247.7Q277.3 248.0 277.0 248.1Q276.6 248.3 276.2 248.3L276.2 248.3Q275.9 248.3 275.8 248.3Q275.6 248.2 275.5 248.2ZM283.9 240.0L285.1 240.0L285.1 240.8L283.9 240.8L283.9 244.4Q283.9 244.8 284.1 245.0Q284.2 245.2 284.6 245.2L284.6 245.2Q284.7 245.2 284.8 245.2Q285.0 245.2 285.1 245.2L285.1 245.2L285.3 246.0Q285.1 246.0 285.0 246.0Q284.8 246.1 284.6 246.1L284.6 246.1Q283.8 246.1 283.4 245.7Q282.9 245.3 282.9 244.5L282.9 244.5L282.9 240.8L282.0 240.8L282.0 240.0L282.9 240.0L282.9 238.6L283.9 238.6L283.9 240.0ZM288.3 242.4L288.3 242.4L288.3 246L287.4 246L287.4 238.0L288.3 238.0L288.3 241.0Q288.6 240.5 288.9 240.3L288.9 240.3Q289.5 239.9 290.1 239.9L290.1 239.9Q290.7 239.9 291.2 240.2Q291.7 240.4 291.9 240.9Q292.2 241.4 292.2 242.2L292.2 242.2L292.2 246L291.2 246L291.2 242.3Q291.2 241.6 290.8 241.2Q290.5 240.8 289.8 240.8L289.8 240.8Q289.4 240.8 289.1 241.0Q288.7 241.2 288.5 241.5Q288.3 241.9 288.3 242.4ZM297.3 246.1L297.3 246.1Q296.5 246.1 295.9 245.7Q295.3 245.4 294.9 244.7Q294.6 244.0 294.6 243.0L294.6 243.0Q294.6 242.1 294.9 241.4Q295.3 240.7 295.9 240.3Q296.5 239.9 297.3 239.9L297.3 239.9Q298.1 239.9 298.8 240.3Q299.4 240.7 299.7 241.4Q300.1 242.1 300.1 243.0L300.1 243.0Q300.1 244.0 299.7 244.7Q299.4 245.4 298.8 245.7Q298.1 246.1 297.3 246.1ZM297.3 245.3L297.3 245.3Q297.9 245.3 298.3 245.0Q298.7 244.6 298.9 244.1Q299.1 243.6 299.1 243.0L299.1 243.0Q299.1 242.4 298.9 241.9Q298.7 241.4 298.3 241.1Q297.9 240.8 297.3 240.8L297.3 240.8Q296.7 240.8 296.3 241.1Q295.9 241.4 295.8 241.9Q295.6 242.4 295.6 243.0L295.6 243.0Q295.6 243.6 295.8 244.1Q295.9 244.6 296.3 245.0Q296.7 245.3 297.3 245.3ZM303.4 242.4L303.4 242.4L303.4 246L302.5 246L302.5 240.0L303.4 240.0L303.4 241.1Q303.7 240.5 304.0 240.3L304.0 240.3Q304.6 239.9 305.2 239.9L305.2 239.9Q305.8 239.9 306.3 240.2Q306.8 240.4 307.0 240.9Q307.3 241.4 307.3 242.2L307.3 242.2L307.3 246L306.3 246L306.3 242.3Q306.3 241.6 305.9 241.2Q305.6 240.8 304.9 240.8L304.9 240.8Q304.5 240.8 304.2 241.0Q303.8 241.2 303.6 241.5Q303.4 241.9 303.4 242.4Z "/></g><defs><clipPath id="satori_bc-id-1-2-1" clip-path="url(#satori_cp-id)"><path x="335" y="229" width="97" height="25" d="M347.5,229 h72 a12.5,12.5 0 0 1 12.5,12.5 v0 a12.5,12.5 0 0 1 -12.5,12.5 h-72 a12.5,12.5 0 0 1 -12.5,-12.5 v0 a12.5,12.5 0 0 1 12.5,-12.5"/></clipPath></defs><mask id="satori_om-id-1-2-1"><rect x="336" y="230" width="95" height="23" fill="#fff" mask="url(#satori_om-id)"/><path width="97" height="25" fill="none" stroke="#000" stroke-width="2" d="M338.661,232.661 A12.5,12.5 0 0 1 347.5,229 h72 a12.5,12.5 0 0 1 12.5,12.5 v0 a12.5,12.5 0 0 1 -12.5,12.5 h-72 a12.5,12.5 0 0 1 -12.5,-12.5 v0 A12.5,12.5 0 0 1 338.661,232.661"/></mask><path x="335" y="229" width="97" height="25" fill="rgba(255,255,255,0.04)" d="M347.5,229 h72 a12.5,12.5 0 0 1 12.5,12.5 v0 a12.5,12.5 0 0 1 -12.5,12.5 h-72 a12.5,12.5 0 0 1 -12.5,-12.5 v0 a12.5,12.5 0 0 1 12.5,-12.5" clip-path="url(#satori_cp-id)" mask="url(#satori_om-id)"/><path width="97" height="25" clip-path="url(#satori_bc-id-1-2-1)" fill="none" stroke="rgba(255,255,255,0.09)" stroke-width="2" d="M338.661,232.661 A12.5,12.5 0 0 1 347.5,229 h72 a12.5,12.5 0 0 1 12.5,12.5 v0 a12.5,12.5 0 0 1 -12.5,12.5 h-72 a12.5,12.5 0 0 1 -12.5,-12.5 v0 A12.5,12.5 0 0 1 338.661,232.661"/><g mask="url(#satori_om-id)" clip-path="url(#satori_cp-id)"><path fill="rgba(255,255,255,0.55)" d="M354.0 240.0L355.2 240.0L355.2 240.8L354.0 240.8L354.0 244.4Q354.0 244.8 354.1 245.0Q354.3 245.2 354.7 245.2L354.7 245.2Q354.8 245.2 354.9 245.2Q355.1 245.2 355.2 245.2L355.2 245.2L355.4 246.0Q355.2 246.0 355.0 246.0Q354.8 246.1 354.7 246.1L354.7 246.1Q353.9 246.1 353.4 245.7Q353.0 245.3 353.0 244.5L353.0 244.5L353.0 240.8L352.1 240.8L352.1 240.0L353.0 240.0L353.0 238.6L354.0 238.6L354.0 240.0ZM357.4 248.2L357.4 248.2L357.6 247.3L357.7 247.4Q358.0 247.4 358.2 247.4Q358.5 247.4 358.7 247.2Q358.9 247.0 359.0 246.5L359.0 246.5L359.2 246.0L356.9 240.0L357.9 240.0L359.2 243.6Q359.4 244.1 359.6 244.7L359.6 244.7Q359.6 244.9 359.7 245.1L359.7 245.1Q359.7 244.9 359.8 244.7L359.8 244.7Q360.0 244.1 360.1 243.6L360.1 243.6L361.4 240.0L362.5 240.0L359.9 246.9Q359.7 247.4 359.4 247.7Q359.2 248.0 358.8 248.1Q358.5 248.3 358.1 248.3L358.1 248.3Q357.8 248.3 357.6 248.3Q357.4 248.2 357.4 248.2ZM365.6 248.2L364.6 248.2L364.6 240.0L365.6 240.0L365.6 241.0L365.7 241.0Q365.8 240.8 366.0 240.6Q366.1 240.3 366.5 240.1Q366.8 239.9 367.4 239.9L367.4 239.9Q368.2 239.9 368.7 240.3Q369.3 240.7 369.6 241.4Q370.0 242.1 370.0 243.0L370.0 243.0Q370.0 244.0 369.6 244.7Q369.3 245.4 368.7 245.7Q368.2 246.1 367.4 246.1L367.4 246.1Q366.8 246.1 366.5 245.9Q366.1 245.7 366.0 245.5Q365.8 245.2 365.7 245.1L365.7 245.1L365.6 245.1L365.6 248.2ZM367.3 245.3L367.3 245.3Q367.8 245.3 368.2 245.0Q368.6 244.7 368.8 244.1Q369.0 243.6 369.0 243.0L369.0 243.0Q369.0 242.4 368.8 241.9Q368.6 241.4 368.2 241.1Q367.8 240.8 367.3 240.8L367.3 240.8Q366.7 240.8 366.3 241.1Q366.0 241.3 365.8 241.8Q365.6 242.3 365.6 243.0L365.6 243.0Q365.6 243.7 365.8 244.2Q366.0 244.7 366.4 245.0Q366.7 245.3 367.3 245.3ZM374.9 246.1L374.9 246.1Q374.0 246.1 373.4 245.7Q372.8 245.4 372.4 244.7Q372.1 244.0 372.1 243.0Q372.1 242.1 372.4 241.4Q372.7 240.7 373.4 240.3Q374.0 239.9 374.8 239.9L374.8 239.9Q375.3 239.9 375.7 240.1Q376.2 240.2 376.6 240.6Q376.9 240.9 377.2 241.5Q377.4 242.1 377.4 242.9L377.4 242.9L377.4 243.3L373.1 243.3Q373.1 243.9 373.3 244.3L373.3 244.3Q373.5 244.8 373.9 245.0Q374.3 245.3 374.9 245.3L374.9 245.3Q375.2 245.3 375.5 245.2Q375.8 245.1 376.0 244.9Q376.2 244.7 376.4 244.3L376.4 244.3L377.3 244.6Q377.2 245.1 376.8 245.4Q376.5 245.7 376.0 245.9Q375.5 246.1 374.9 246.1ZM373.1 242.5L373.1 242.5L376.4 242.5Q376.4 242.1 376.2 241.8L376.2 241.8Q376.0 241.3 375.7 241.0Q375.3 240.8 374.8 240.8Q374.2 240.8 373.8 241.0Q373.5 241.3 373.3 241.7L373.3 241.7Q373.1 242.1 373.1 242.5ZM381.8 246.1L381.8 246.1Q381.2 246.1 380.7 245.9Q380.2 245.8 379.9 245.4Q379.6 245.1 379.5 244.5L379.5 244.5L380.4 244.3Q380.6 244.8 380.9 245.0Q381.3 245.3 381.8 245.3L381.8 245.3Q382.4 245.3 382.8 245.0Q383.2 244.7 383.2 244.4L383.2 244.4Q383.2 244.1 383.0 243.9Q382.7 243.6 382.3 243.5L382.3 243.5L381.3 243.3Q380.5 243.1 380.1 242.7Q379.7 242.3 379.7 241.7L379.7 241.7Q379.7 241.2 380.0 240.8Q380.3 240.4 380.8 240.1Q381.3 239.9 381.9 239.9L381.9 239.9Q382.5 239.9 383.0 240.1Q383.4 240.3 383.7 240.6Q383.9 240.9 384.1 241.4L384.1 241.4L383.2 241.6Q383.1 241.3 382.8 241.0Q382.5 240.7 381.9 240.7L381.9 240.7Q381.4 240.7 381.0 241.0Q380.7 241.2 380.7 241.6L380.7 241.6Q380.7 241.9 380.9 242.1Q381.2 242.3 381.7 242.5L381.7 242.5L382.6 242.7Q383.4 242.9 383.8 243.3Q384.2 243.7 384.2 244.3L384.2 244.3Q384.2 244.8 383.9 245.2Q383.6 245.7 383.1 245.9Q382.5 246.1 381.8 246.1ZM389.0 246.1L389.0 246.1Q388.2 246.1 387.6 245.7Q387.0 245.4 386.6 244.7Q386.3 244.0 386.3 243.0L386.3 243.0Q386.3 242.1 386.6 241.4Q387.0 240.7 387.6 240.3Q388.2 239.9 389.0 239.9L389.0 239.9Q389.5 239.9 389.8 240.0Q390.2 240.1 390.6 240.4Q390.9 240.6 391.1 240.9Q391.3 241.2 391.5 241.6L391.5 241.6L390.5 241.8Q390.5 241.6 390.3 241.4Q390.2 241.2 390.0 241.1Q389.8 240.9 389.6 240.9Q389.3 240.8 389.0 240.8L389.0 240.8Q388.4 240.8 388.0 241.1Q387.7 241.4 387.5 241.9Q387.3 242.4 387.3 243.0L387.3 243.0Q387.3 243.6 387.5 244.1Q387.7 244.6 388.0 245.0Q388.4 245.3 389.0 245.3L389.0 245.3Q389.3 245.3 389.6 245.2Q389.8 245.1 390.0 245.0Q390.2 244.8 390.4 244.6Q390.5 244.4 390.6 244.2L390.6 244.2L391.5 244.4Q391.4 244.8 391.1 245.1Q390.9 245.5 390.6 245.7Q390.3 245.9 389.9 246.0Q389.5 246.1 389.0 246.1ZM394.8 246L393.9 246L393.9 240.0L394.8 240.0L394.8 240.9L394.9 240.9Q395.0 240.5 395.5 240.2Q395.9 239.9 396.4 239.9L396.4 239.9Q396.5 239.9 396.7 239.9Q396.8 239.9 396.9 239.9L396.9 239.9L396.9 240.9Q396.9 240.9 396.7 240.9Q396.5 240.8 396.3 240.8L396.3 240.8Q395.9 240.8 395.6 241.0Q395.2 241.2 395.0 241.5Q394.8 241.8 394.8 242.2L394.8 242.2L394.8 246ZM400.0 246L399.0 246L399.0 240.0L400.0 240.0L400.0 246ZM399.5 239.0L399.5 239.0Q399.2 239.0 399.0 238.8Q398.8 238.6 398.8 238.4L398.8 238.4Q398.8 238.1 399.0 237.9Q399.2 237.7 399.5 237.7L399.5 237.7Q399.8 237.7 400.0 237.9Q400.2 238.1 400.2 238.4L400.2 238.4Q400.2 238.6 400.0 238.8Q399.8 239.0 399.5 239.0ZM403.6 248.2L402.7 248.2L402.7 240.0L403.6 240.0L403.6 241.0L403.7 241.0Q403.8 240.8 404 240.6Q404.2 240.3 404.5 240.1Q404.9 239.9 405.5 239.9L405.5 239.9Q406.2 239.9 406.8 240.3Q407.4 240.7 407.7 241.4Q408.0 242.1 408.0 243.0L408.0 243.0Q408.0 244.0 407.7 244.7Q407.4 245.4 406.8 245.7Q406.2 246.1 405.5 246.1L405.5 246.1Q404.9 246.1 404.5 245.9Q404.2 245.7 404.0 245.5Q403.8 245.2 403.7 245.1L403.7 245.1L403.6 245.1L403.6 248.2ZM405.3 245.3L405.3 245.3Q405.9 245.3 406.3 245.0Q406.6 244.7 406.8 244.1Q407.0 243.6 407.0 243.0L407.0 243.0Q407.0 242.4 406.8 241.9Q406.6 241.4 406.3 241.1Q405.9 240.8 405.3 240.8L405.3 240.8Q404.8 240.8 404.4 241.1Q404.0 241.3 403.8 241.8Q403.6 242.3 403.6 243.0L403.6 243.0Q403.6 243.7 403.8 244.2Q404.0 244.7 404.4 245.0Q404.8 245.3 405.3 245.3ZM411.5 240.0L412.8 240.0L412.8 240.8L411.5 240.8L411.5 244.4Q411.5 244.8 411.7 245.0Q411.9 245.2 412.2 245.2L412.2 245.2Q412.3 245.2 412.5 245.2Q412.6 245.2 412.7 245.2L412.7 245.2L412.9 246.0Q412.8 246.0 412.6 246.0Q412.4 246.1 412.2 246.1L412.2 246.1Q411.4 246.1 411.0 245.7Q410.6 245.3 410.6 244.5L410.6 244.5L410.6 240.8L409.7 240.8L409.7 240.0L410.6 240.0L410.6 238.6L411.5 238.6L411.5 240.0Z "/></g><defs><clipPath id="satori_bc-id-1-2-2" clip-path="url(#satori_cp-id)"><path x="440" y="229" width="111" height="25" d="M452.5,229 h86 a12.5,12.5 0 0 1 12.5,12.5 v0 a12.5,12.5 0 0 1 -12.5,12.5 h-86 a12.5,12.5 0 0 1 -12.5,-12.5 v0 a12.5,12.5 0 0 1 12.5,-12.5"/></clipPath></defs><mask id="satori_om-id-1-2-2"><rect x="441" y="230" width="109" height="23" fill="#fff" mask="url(#satori_om-id)"/><path width="111" height="25" fill="none" stroke="#000" stroke-width="2" d="M443.661,232.661 A12.5,12.5 0 0 1 452.5,229 h86 a12.5,12.5 0 0 1 12.5,12.5 v0 a12.5,12.5 0 0 1 -12.5,12.5 h-86 a12.5,12.5 0 0 1 -12.5,-12.5 v0 A12.5,12.5 0 0 1 443.661,232.661"/></mask><path x="440" y="229" width="111" height="25" fill="rgba(255,255,255,0.04)" d="M452.5,229 h86 a12.5,12.5 0 0 1 12.5,12.5 v0 a12.5,12.5 0 0 1 -12.5,12.5 h-86 a12.5,12.5 0 0 1 -12.5,-12.5 v0 a12.5,12.5 0 0 1 12.5,-12.5" clip-path="url(#satori_cp-id)" mask="url(#satori_om-id)"/><path width="111" height="25" clip-path="url(#satori_bc-id-1-2-2)" fill="none" stroke="rgba(255,255,255,0.09)" stroke-width="2" d="M443.661,232.661 A12.5,12.5 0 0 1 452.5,229 h86 a12.5,12.5 0 0 1 12.5,12.5 v0 a12.5,12.5 0 0 1 -12.5,12.5 h-86 a12.5,12.5 0 0 1 -12.5,-12.5 v0 A12.5,12.5 0 0 1 443.661,232.661"/><g mask="url(#satori_om-id)" clip-path="url(#satori_cp-id)"><path fill="rgba(255,255,255,0.55)" d="M460.3 246.1L460.3 246.1Q459.5 246.1 458.9 245.7Q458.2 245.4 457.9 244.7Q457.6 244.0 457.6 243.0L457.6 243.0Q457.6 242.1 457.9 241.4Q458.2 240.7 458.9 240.3Q459.5 239.9 460.3 239.9L460.3 239.9Q461.1 239.9 461.7 240.3Q462.3 240.7 462.7 241.4Q463.0 242.1 463.0 243.0L463.0 243.0Q463.0 244.0 462.7 244.7Q462.3 245.4 461.7 245.7Q461.1 246.1 460.3 246.1ZM460.3 245.3L460.3 245.3Q460.9 245.3 461.3 245.0Q461.7 244.6 461.9 244.1Q462.1 243.6 462.1 243.0L462.1 243.0Q462.1 242.4 461.9 241.9Q461.7 241.4 461.3 241.1Q460.9 240.8 460.3 240.8L460.3 240.8Q459.7 240.8 459.3 241.1Q458.9 241.4 458.7 241.9Q458.5 242.4 458.5 243.0L458.5 243.0Q458.5 243.6 458.7 244.1Q458.9 244.6 459.3 245.0Q459.7 245.3 460.3 245.3ZM466.4 248.2L465.4 248.2L465.4 240.0L466.4 240.0L466.4 241.0L466.5 241.0Q466.6 240.8 466.8 240.6Q467.0 240.3 467.3 240.1Q467.6 239.9 468.2 239.9L468.2 239.9Q469.0 239.9 469.6 240.3Q470.1 240.7 470.4 241.4Q470.8 242.1 470.8 243.0L470.8 243.0Q470.8 244.0 470.5 244.7Q470.1 245.4 469.6 245.7Q469.0 246.1 468.2 246.1L468.2 246.1Q467.7 246.1 467.3 245.9Q467.0 245.7 466.8 245.5Q466.6 245.2 466.5 245.1L466.5 245.1L466.4 245.1L466.4 248.2ZM468.1 245.3L468.1 245.3Q468.7 245.3 469.0 245.0Q469.4 244.7 469.6 244.1Q469.8 243.6 469.8 243.0L469.8 243.0Q469.8 242.4 469.6 241.9Q469.4 241.4 469.0 241.1Q468.7 240.8 468.1 240.8L468.1 240.8Q467.5 240.8 467.2 241.1Q466.8 241.3 466.6 241.8Q466.4 242.3 466.4 243.0L466.4 243.0Q466.4 243.7 466.6 244.2Q466.8 244.7 467.2 245.0Q467.5 245.3 468.1 245.3ZM475.7 246.1L475.7 246.1Q474.8 246.1 474.2 245.7Q473.6 245.4 473.2 244.7Q472.9 244.0 472.9 243.0Q472.9 242.1 473.2 241.4Q473.6 240.7 474.2 240.3Q474.8 239.9 475.6 239.9L475.6 239.9Q476.1 239.9 476.5 240.1Q477.0 240.2 477.4 240.6Q477.8 240.9 478.0 241.5Q478.2 242.1 478.2 242.9L478.2 242.9L478.2 243.3L473.9 243.3Q473.9 243.9 474.1 244.3L474.1 244.3Q474.3 244.8 474.7 245.0Q475.2 245.3 475.7 245.3L475.7 245.3Q476.1 245.3 476.4 245.2Q476.6 245.1 476.9 244.9Q477.1 244.7 477.2 244.3L477.2 244.3L478.1 244.6Q478.0 245.1 477.6 245.4Q477.3 245.7 476.8 245.9Q476.3 246.1 475.7 246.1ZM473.9 242.5L473.9 242.5L477.2 242.5Q477.2 242.1 477.1 241.8L477.1 241.8Q476.9 241.3 476.5 241.0Q476.1 240.8 475.6 240.8Q475.0 240.8 474.7 241.0Q474.3 241.3 474.1 241.7L474.1 241.7Q473.9 242.1 473.9 242.5ZM481.6 242.4L481.6 242.4L481.6 246L480.6 246L480.6 240.0L481.5 240.0L481.5 241.1Q481.8 240.5 482.2 240.3L482.2 240.3Q482.7 239.9 483.4 239.9L483.4 239.9Q484.0 239.9 484.4 240.2Q484.9 240.4 485.1 240.9Q485.4 241.4 485.4 242.2L485.4 242.2L485.4 246L484.4 246L484.4 242.3Q484.4 241.6 484.1 241.2Q483.7 240.8 483.1 240.8L483.1 240.8Q482.6 240.8 482.3 241.0Q482.0 241.2 481.8 241.5Q481.6 241.9 481.6 242.4Z M494.2 246.1L494.2 246.1Q493.6 246.1 493.1 245.9Q492.6 245.8 492.3 245.4Q492.0 245.1 491.9 244.5L491.9 244.5L492.8 244.3Q493.0 244.8 493.3 245.0Q493.7 245.3 494.2 245.3L494.2 245.3Q494.8 245.3 495.2 245.0Q495.6 244.7 495.6 244.4L495.6 244.4Q495.6 244.1 495.4 243.9Q495.2 243.6 494.7 243.5L494.7 243.5L493.7 243.3Q492.9 243.1 492.5 242.7Q492.1 242.3 492.1 241.7L492.1 241.7Q492.1 241.2 492.4 240.8Q492.7 240.4 493.2 240.1Q493.7 239.9 494.3 239.9L494.3 239.9Q494.9 239.9 495.4 240.1Q495.8 240.3 496.1 240.6Q496.3 240.9 496.5 241.4L496.5 241.4L495.6 241.6Q495.5 241.3 495.2 241.0Q494.9 240.7 494.3 240.7L494.3 240.7Q493.8 240.7 493.4 241.0Q493.1 241.2 493.1 241.6L493.1 241.6Q493.1 241.9 493.3 242.1Q493.6 242.3 494.1 242.5L494.1 242.5L495.0 242.7Q495.8 242.9 496.2 243.3Q496.6 243.7 496.6 244.3L496.6 244.3Q496.6 244.8 496.3 245.2Q496.0 245.7 495.5 245.9Q494.9 246.1 494.2 246.1ZM501.4 246.1L501.4 246.1Q500.6 246.1 500.0 245.7Q499.4 245.4 499.0 244.7Q498.7 244.0 498.7 243.0L498.7 243.0Q498.7 242.1 499.0 241.4Q499.4 240.7 500.0 240.3Q500.6 239.9 501.4 239.9L501.4 239.9Q502.3 239.9 502.9 240.3Q503.5 240.7 503.8 241.4Q504.2 242.1 504.2 243.0L504.2 243.0Q504.2 244.0 503.8 244.7Q503.5 245.4 502.9 245.7Q502.3 246.1 501.4 246.1ZM501.4 245.3L501.4 245.3Q502.0 245.3 502.4 245.0Q502.8 244.6 503.0 244.1Q503.2 243.6 503.2 243.0L503.2 243.0Q503.2 242.4 503.0 241.9Q502.8 241.4 502.4 241.1Q502.0 240.8 501.4 240.8L501.4 240.8Q500.8 240.8 500.4 241.1Q500.1 241.4 499.9 241.9Q499.7 242.4 499.7 243.0L499.7 243.0Q499.7 243.6 499.9 244.1Q500.1 244.6 500.4 245.0Q500.8 245.3 501.4 245.3ZM508.6 246.1L508.6 246.1Q508.0 246.1 507.6 245.8Q507.1 245.6 506.8 245.1Q506.6 244.6 506.6 243.8L506.6 243.8L506.6 240.0L507.6 240.0L507.6 243.7Q507.6 244.4 507.9 244.8Q508.3 245.2 508.9 245.2L508.9 245.2Q509.3 245.2 509.7 245.0Q510.0 244.8 510.2 244.5Q510.4 244.1 510.4 243.6L510.4 243.6L510.4 240.0L511.4 240.0L511.4 246L510.5 246L510.5 244.9Q510.2 245.5 509.8 245.7L509.8 245.7Q509.3 246.1 508.6 246.1ZM515.1 246L514.1 246L514.1 240.0L515.0 240.0L515.0 240.9L515.1 240.9Q515.3 240.5 515.7 240.2Q516.1 239.9 516.6 239.9L516.6 239.9Q516.8 239.9 516.9 239.9Q517.1 239.9 517.1 239.9L517.1 239.9L517.1 240.9Q517.1 240.9 516.9 240.9Q516.8 240.8 516.6 240.8L516.6 240.8Q516.1 240.8 515.8 241.0Q515.4 241.2 515.3 241.5Q515.1 241.8 515.1 242.2L515.1 242.2L515.1 246ZM521.7 246.1L521.7 246.1Q520.9 246.1 520.2 245.7Q519.6 245.4 519.3 244.7Q518.9 244.0 518.9 243.0L518.9 243.0Q518.9 242.1 519.3 241.4Q519.6 240.7 520.2 240.3Q520.9 239.9 521.7 239.9L521.7 239.9Q522.1 239.9 522.5 240.0Q522.9 240.1 523.2 240.4Q523.5 240.6 523.8 240.9Q524.0 241.2 524.1 241.6L524.1 241.6L523.2 241.8Q523.1 241.6 523.0 241.4Q522.8 241.2 522.7 241.1Q522.5 240.9 522.2 240.9Q522.0 240.8 521.7 240.8L521.7 240.8Q521.1 240.8 520.7 241.1Q520.3 241.4 520.1 241.9Q519.9 242.4 519.9 243.0L519.9 243.0Q519.9 243.6 520.1 244.1Q520.3 244.6 520.7 245.0Q521.1 245.3 521.7 245.3L521.7 245.3Q522.0 245.3 522.2 245.2Q522.5 245.1 522.7 245.0Q522.9 244.8 523.0 244.6Q523.1 244.4 523.2 244.2L523.2 244.2L524.1 244.4Q524.0 244.8 523.8 245.1Q523.5 245.5 523.2 245.7Q522.9 245.9 522.5 246.0Q522.1 246.1 521.7 246.1ZM529.0 246.1L529.0 246.1Q528.2 246.1 527.5 245.7Q526.9 245.4 526.6 244.7Q526.2 244.0 526.2 243.0Q526.2 242.1 526.6 241.4Q526.9 240.7 527.5 240.3Q528.1 239.9 528.9 239.9L528.9 239.9Q529.4 239.9 529.9 240.1Q530.3 240.2 530.7 240.6Q531.1 240.9 531.3 241.5Q531.5 242.1 531.5 242.9L531.5 242.9L531.5 243.3L527.2 243.3Q527.2 243.9 527.4 244.3L527.4 244.3Q527.7 244.8 528.1 245.0Q528.5 245.3 529.0 245.3L529.0 245.3Q529.4 245.3 529.7 245.2Q530.0 245.1 530.2 244.9Q530.4 244.7 530.5 244.3L530.5 244.3L531.4 244.6Q531.3 245.1 531.0 245.4Q530.6 245.7 530.2 245.9Q529.7 246.1 529.0 246.1ZM527.2 242.5L527.2 242.5L530.6 242.5Q530.5 242.1 530.4 241.8L530.4 241.8Q530.2 241.3 529.8 241.0Q529.5 240.8 528.9 240.8Q528.4 240.8 528.0 241.0Q527.6 241.3 527.4 241.7L527.4 241.7Q527.2 242.1 527.2 242.5Z "/></g></svg>